%TF.GenerationSoftware,KiCad,Pcbnew,10.0.1*%
%TF.CreationDate,2026-09-22T18:38:54+02:00*%
%TF.ProjectId,ProPrj_BambuTagger-AMS_2026-09-22(1),50726f50-726a-45f4-9261-6d6275546167,rev?*%
%TF.SameCoordinates,PX8d8dcb0PY678a590*%
%TF.FileFunction,Legend,Bot*%
%TF.FilePolarity,Positive*%
%FSLAX46Y46*%
G04 Gerber Fmt 4.6, Leading zero omitted, Abs format (unit mm)*
G04 Created by KiCad (PCBNEW 10.0.1) date 2026-09-22 18:38:54*
%MOMM*%
%LPD*%
G01*
G04 APERTURE LIST*
%ADD10C,0.152000*%
%ADD11C,0.152500*%
%ADD12C,0.100000*%
%ADD13C,0.200000*%
%ADD14C,0.150000*%
%ADD15C,0.254000*%
%ADD16C,0.120000*%
G04 APERTURE END LIST*
D10*
X1834666Y-13394191D02*
X1606000Y-14194191D01*
X1606000Y-14194191D02*
X1377333Y-13394191D01*
X-778668Y-13432286D02*
X-713335Y-13394191D01*
X-713335Y-13394191D02*
X-615335Y-13394191D01*
X-615335Y-13394191D02*
X-517335Y-13432286D01*
X-517335Y-13432286D02*
X-452001Y-13508476D01*
X-452001Y-13508476D02*
X-419335Y-13584667D01*
X-419335Y-13584667D02*
X-386668Y-13737048D01*
X-386668Y-13737048D02*
X-386668Y-13851334D01*
X-386668Y-13851334D02*
X-419335Y-14003715D01*
X-419335Y-14003715D02*
X-452001Y-14079905D01*
X-452001Y-14079905D02*
X-517335Y-14156096D01*
X-517335Y-14156096D02*
X-615335Y-14194191D01*
X-615335Y-14194191D02*
X-680668Y-14194191D01*
X-680668Y-14194191D02*
X-778668Y-14156096D01*
X-778668Y-14156096D02*
X-811335Y-14118000D01*
X-811335Y-14118000D02*
X-811335Y-13851334D01*
X-811335Y-13851334D02*
X-680668Y-13851334D01*
X-2118002Y-14156096D02*
X-2216002Y-14194191D01*
X-2216002Y-14194191D02*
X-2379335Y-14194191D01*
X-2379335Y-14194191D02*
X-2444669Y-14156096D01*
X-2444669Y-14156096D02*
X-2477335Y-14118000D01*
X-2477335Y-14118000D02*
X-2510002Y-14041810D01*
X-2510002Y-14041810D02*
X-2510002Y-13965619D01*
X-2510002Y-13965619D02*
X-2477335Y-13889429D01*
X-2477335Y-13889429D02*
X-2444669Y-13851334D01*
X-2444669Y-13851334D02*
X-2379335Y-13813238D01*
X-2379335Y-13813238D02*
X-2248669Y-13775143D01*
X-2248669Y-13775143D02*
X-2183335Y-13737048D01*
X-2183335Y-13737048D02*
X-2150669Y-13698953D01*
X-2150669Y-13698953D02*
X-2118002Y-13622762D01*
X-2118002Y-13622762D02*
X-2118002Y-13546572D01*
X-2118002Y-13546572D02*
X-2150669Y-13470381D01*
X-2150669Y-13470381D02*
X-2183335Y-13432286D01*
X-2183335Y-13432286D02*
X-2248669Y-13394191D01*
X-2248669Y-13394191D02*
X-2412002Y-13394191D01*
X-2412002Y-13394191D02*
X-2510002Y-13432286D01*
D11*
X4099667Y19169835D02*
X4099667Y19969835D01*
X4099667Y19969835D02*
X3936334Y19969835D01*
X3936334Y19969835D02*
X3838334Y19931740D01*
X3838334Y19931740D02*
X3773001Y19855550D01*
X3773001Y19855550D02*
X3740334Y19779359D01*
X3740334Y19779359D02*
X3707667Y19626978D01*
X3707667Y19626978D02*
X3707667Y19512692D01*
X3707667Y19512692D02*
X3740334Y19360311D01*
X3740334Y19360311D02*
X3773001Y19284121D01*
X3773001Y19284121D02*
X3838334Y19207930D01*
X3838334Y19207930D02*
X3936334Y19169835D01*
X3936334Y19169835D02*
X4099667Y19169835D01*
X930999Y19246026D02*
X963666Y19207930D01*
X963666Y19207930D02*
X1061666Y19169835D01*
X1061666Y19169835D02*
X1126999Y19169835D01*
X1126999Y19169835D02*
X1224999Y19207930D01*
X1224999Y19207930D02*
X1290333Y19284121D01*
X1290333Y19284121D02*
X1322999Y19360311D01*
X1322999Y19360311D02*
X1355666Y19512692D01*
X1355666Y19512692D02*
X1355666Y19626978D01*
X1355666Y19626978D02*
X1322999Y19779359D01*
X1322999Y19779359D02*
X1290333Y19855550D01*
X1290333Y19855550D02*
X1224999Y19931740D01*
X1224999Y19931740D02*
X1126999Y19969835D01*
X1126999Y19969835D02*
X1061666Y19969835D01*
X1061666Y19969835D02*
X963666Y19931740D01*
X963666Y19931740D02*
X930999Y19893645D01*
X-833002Y19969835D02*
X-1061668Y19169835D01*
X-1061668Y19169835D02*
X-1290335Y19969835D01*
X-1813002Y19207930D02*
X-1747668Y19169835D01*
X-1747668Y19169835D02*
X-1617002Y19169835D01*
X-1617002Y19169835D02*
X-1551668Y19207930D01*
X-1551668Y19207930D02*
X-1519002Y19246026D01*
X-1519002Y19246026D02*
X-1486335Y19322216D01*
X-1486335Y19322216D02*
X-1486335Y19550788D01*
X-1486335Y19550788D02*
X-1519002Y19626978D01*
X-1519002Y19626978D02*
X-1551668Y19665073D01*
X-1551668Y19665073D02*
X-1617002Y19703169D01*
X-1617002Y19703169D02*
X-1747668Y19703169D01*
X-1747668Y19703169D02*
X-1813002Y19665073D01*
X-2401002Y19207930D02*
X-2335668Y19169835D01*
X-2335668Y19169835D02*
X-2205002Y19169835D01*
X-2205002Y19169835D02*
X-2139668Y19207930D01*
X-2139668Y19207930D02*
X-2107002Y19246026D01*
X-2107002Y19246026D02*
X-2074335Y19322216D01*
X-2074335Y19322216D02*
X-2074335Y19550788D01*
X-2074335Y19550788D02*
X-2107002Y19626978D01*
X-2107002Y19626978D02*
X-2139668Y19665073D01*
X-2139668Y19665073D02*
X-2205002Y19703169D01*
X-2205002Y19703169D02*
X-2335668Y19703169D01*
X-2335668Y19703169D02*
X-2401002Y19665073D01*
X-4099669Y19931740D02*
X-4034336Y19969835D01*
X-4034336Y19969835D02*
X-3936336Y19969835D01*
X-3936336Y19969835D02*
X-3838336Y19931740D01*
X-3838336Y19931740D02*
X-3773002Y19855550D01*
X-3773002Y19855550D02*
X-3740336Y19779359D01*
X-3740336Y19779359D02*
X-3707669Y19626978D01*
X-3707669Y19626978D02*
X-3707669Y19512692D01*
X-3707669Y19512692D02*
X-3740336Y19360311D01*
X-3740336Y19360311D02*
X-3773002Y19284121D01*
X-3773002Y19284121D02*
X-3838336Y19207930D01*
X-3838336Y19207930D02*
X-3936336Y19169835D01*
X-3936336Y19169835D02*
X-4001669Y19169835D01*
X-4001669Y19169835D02*
X-4099669Y19207930D01*
X-4099669Y19207930D02*
X-4132336Y19246026D01*
X-4132336Y19246026D02*
X-4132336Y19512692D01*
X-4132336Y19512692D02*
X-4001669Y19512692D01*
D12*
X-5737218Y-21527478D02*
X-5665789Y-21491764D01*
X-5665789Y-21491764D02*
X-5558647Y-21491764D01*
X-5558647Y-21491764D02*
X-5451504Y-21527478D01*
X-5451504Y-21527478D02*
X-5380075Y-21598907D01*
X-5380075Y-21598907D02*
X-5344361Y-21670335D01*
X-5344361Y-21670335D02*
X-5308647Y-21813192D01*
X-5308647Y-21813192D02*
X-5308647Y-21920335D01*
X-5308647Y-21920335D02*
X-5344361Y-22063192D01*
X-5344361Y-22063192D02*
X-5380075Y-22134621D01*
X-5380075Y-22134621D02*
X-5451504Y-22206050D01*
X-5451504Y-22206050D02*
X-5558647Y-22241764D01*
X-5558647Y-22241764D02*
X-5630075Y-22241764D01*
X-5630075Y-22241764D02*
X-5737218Y-22206050D01*
X-5737218Y-22206050D02*
X-5772932Y-22170335D01*
X-5772932Y-22170335D02*
X-5772932Y-21920335D01*
X-5772932Y-21920335D02*
X-5630075Y-21920335D01*
X-6094361Y-22241764D02*
X-6094361Y-21491764D01*
X-6094361Y-21491764D02*
X-6522932Y-22241764D01*
X-6522932Y-22241764D02*
X-6522932Y-21491764D01*
X-6880075Y-22241764D02*
X-6880075Y-21491764D01*
X-6880075Y-21491764D02*
X-7058646Y-21491764D01*
X-7058646Y-21491764D02*
X-7165789Y-21527478D01*
X-7165789Y-21527478D02*
X-7237218Y-21598907D01*
X-7237218Y-21598907D02*
X-7272932Y-21670335D01*
X-7272932Y-21670335D02*
X-7308646Y-21813192D01*
X-7308646Y-21813192D02*
X-7308646Y-21920335D01*
X-7308646Y-21920335D02*
X-7272932Y-22063192D01*
X-7272932Y-22063192D02*
X-7237218Y-22134621D01*
X-7237218Y-22134621D02*
X-7165789Y-22206050D01*
X-7165789Y-22206050D02*
X-7058646Y-22241764D01*
X-7058646Y-22241764D02*
X-6880075Y-22241764D01*
X-5304361Y-19356050D02*
X-5875789Y-19356050D01*
X-5590075Y-19641764D02*
X-5590075Y-19070335D01*
X-6590075Y-18891764D02*
X-6232932Y-18891764D01*
X-6232932Y-18891764D02*
X-6197218Y-19248907D01*
X-6197218Y-19248907D02*
X-6232932Y-19213192D01*
X-6232932Y-19213192D02*
X-6304360Y-19177478D01*
X-6304360Y-19177478D02*
X-6482932Y-19177478D01*
X-6482932Y-19177478D02*
X-6554360Y-19213192D01*
X-6554360Y-19213192D02*
X-6590075Y-19248907D01*
X-6590075Y-19248907D02*
X-6625789Y-19320335D01*
X-6625789Y-19320335D02*
X-6625789Y-19498907D01*
X-6625789Y-19498907D02*
X-6590075Y-19570335D01*
X-6590075Y-19570335D02*
X-6554360Y-19606050D01*
X-6554360Y-19606050D02*
X-6482932Y-19641764D01*
X-6482932Y-19641764D02*
X-6304360Y-19641764D01*
X-6304360Y-19641764D02*
X-6232932Y-19606050D01*
X-6232932Y-19606050D02*
X-6197218Y-19570335D01*
X-6840075Y-18891764D02*
X-7090075Y-19641764D01*
X-7090075Y-19641764D02*
X-7340075Y-18891764D01*
X8094961Y28427694D02*
X8142580Y28332456D01*
X8142580Y28332456D02*
X8142580Y28189599D01*
X8142580Y28189599D02*
X8094961Y28046742D01*
X8094961Y28046742D02*
X7999723Y27951504D01*
X7999723Y27951504D02*
X7904485Y27903885D01*
X7904485Y27903885D02*
X7714009Y27856266D01*
X7714009Y27856266D02*
X7571152Y27856266D01*
X7571152Y27856266D02*
X7380676Y27903885D01*
X7380676Y27903885D02*
X7285438Y27951504D01*
X7285438Y27951504D02*
X7190200Y28046742D01*
X7190200Y28046742D02*
X7142580Y28189599D01*
X7142580Y28189599D02*
X7142580Y28284837D01*
X7142580Y28284837D02*
X7190200Y28427694D01*
X7190200Y28427694D02*
X7237819Y28475313D01*
X7237819Y28475313D02*
X7571152Y28475313D01*
X7571152Y28475313D02*
X7571152Y28284837D01*
X7142580Y28903885D02*
X8142580Y28903885D01*
X8142580Y28903885D02*
X7142580Y29475313D01*
X7142580Y29475313D02*
X8142580Y29475313D01*
X7142580Y29951504D02*
X8142580Y29951504D01*
X8142580Y29951504D02*
X8142580Y30189599D01*
X8142580Y30189599D02*
X8094961Y30332456D01*
X8094961Y30332456D02*
X7999723Y30427694D01*
X7999723Y30427694D02*
X7904485Y30475313D01*
X7904485Y30475313D02*
X7714009Y30522932D01*
X7714009Y30522932D02*
X7571152Y30522932D01*
X7571152Y30522932D02*
X7380676Y30475313D01*
X7380676Y30475313D02*
X7285438Y30427694D01*
X7285438Y30427694D02*
X7190200Y30332456D01*
X7190200Y30332456D02*
X7142580Y30189599D01*
X7142580Y30189599D02*
X7142580Y29951504D01*
D13*
X6642857Y-2441365D02*
X6428571Y-2524699D01*
X6428571Y-2524699D02*
X6357142Y-2608032D01*
X6357142Y-2608032D02*
X6285714Y-2774699D01*
X6285714Y-2774699D02*
X6285714Y-3024699D01*
X6285714Y-3024699D02*
X6357142Y-3191365D01*
X6357142Y-3191365D02*
X6428571Y-3274699D01*
X6428571Y-3274699D02*
X6571428Y-3358032D01*
X6571428Y-3358032D02*
X7142857Y-3358032D01*
X7142857Y-3358032D02*
X7142857Y-1608032D01*
X7142857Y-1608032D02*
X6642857Y-1608032D01*
X6642857Y-1608032D02*
X6500000Y-1691365D01*
X6500000Y-1691365D02*
X6428571Y-1774699D01*
X6428571Y-1774699D02*
X6357142Y-1941365D01*
X6357142Y-1941365D02*
X6357142Y-2108032D01*
X6357142Y-2108032D02*
X6428571Y-2274699D01*
X6428571Y-2274699D02*
X6500000Y-2358032D01*
X6500000Y-2358032D02*
X6642857Y-2441365D01*
X6642857Y-2441365D02*
X7142857Y-2441365D01*
X5000000Y-3358032D02*
X5000000Y-2441365D01*
X5000000Y-2441365D02*
X5071428Y-2274699D01*
X5071428Y-2274699D02*
X5214285Y-2191365D01*
X5214285Y-2191365D02*
X5500000Y-2191365D01*
X5500000Y-2191365D02*
X5642857Y-2274699D01*
X5000000Y-3274699D02*
X5142857Y-3358032D01*
X5142857Y-3358032D02*
X5500000Y-3358032D01*
X5500000Y-3358032D02*
X5642857Y-3274699D01*
X5642857Y-3274699D02*
X5714285Y-3108032D01*
X5714285Y-3108032D02*
X5714285Y-2941365D01*
X5714285Y-2941365D02*
X5642857Y-2774699D01*
X5642857Y-2774699D02*
X5500000Y-2691365D01*
X5500000Y-2691365D02*
X5142857Y-2691365D01*
X5142857Y-2691365D02*
X5000000Y-2608032D01*
X4285714Y-3358032D02*
X4285714Y-2191365D01*
X4285714Y-2358032D02*
X4214285Y-2274699D01*
X4214285Y-2274699D02*
X4071428Y-2191365D01*
X4071428Y-2191365D02*
X3857142Y-2191365D01*
X3857142Y-2191365D02*
X3714285Y-2274699D01*
X3714285Y-2274699D02*
X3642857Y-2441365D01*
X3642857Y-2441365D02*
X3642857Y-3358032D01*
X3642857Y-2441365D02*
X3571428Y-2274699D01*
X3571428Y-2274699D02*
X3428571Y-2191365D01*
X3428571Y-2191365D02*
X3214285Y-2191365D01*
X3214285Y-2191365D02*
X3071428Y-2274699D01*
X3071428Y-2274699D02*
X2999999Y-2441365D01*
X2999999Y-2441365D02*
X2999999Y-3358032D01*
X2285714Y-3358032D02*
X2285714Y-1608032D01*
X2285714Y-2274699D02*
X2142857Y-2191365D01*
X2142857Y-2191365D02*
X1857142Y-2191365D01*
X1857142Y-2191365D02*
X1714285Y-2274699D01*
X1714285Y-2274699D02*
X1642857Y-2358032D01*
X1642857Y-2358032D02*
X1571428Y-2524699D01*
X1571428Y-2524699D02*
X1571428Y-3024699D01*
X1571428Y-3024699D02*
X1642857Y-3191365D01*
X1642857Y-3191365D02*
X1714285Y-3274699D01*
X1714285Y-3274699D02*
X1857142Y-3358032D01*
X1857142Y-3358032D02*
X2142857Y-3358032D01*
X2142857Y-3358032D02*
X2285714Y-3274699D01*
X285714Y-2191365D02*
X285714Y-3358032D01*
X928571Y-2191365D02*
X928571Y-3108032D01*
X928571Y-3108032D02*
X857142Y-3274699D01*
X857142Y-3274699D02*
X714285Y-3358032D01*
X714285Y-3358032D02*
X499999Y-3358032D01*
X499999Y-3358032D02*
X357142Y-3274699D01*
X357142Y-3274699D02*
X285714Y-3191365D01*
X-214287Y-1608032D02*
X-1071429Y-1608032D01*
X-642858Y-3358032D02*
X-642858Y-1608032D01*
X-2214286Y-3358032D02*
X-2214286Y-2441365D01*
X-2214286Y-2441365D02*
X-2142858Y-2274699D01*
X-2142858Y-2274699D02*
X-2000001Y-2191365D01*
X-2000001Y-2191365D02*
X-1714286Y-2191365D01*
X-1714286Y-2191365D02*
X-1571429Y-2274699D01*
X-2214286Y-3274699D02*
X-2071429Y-3358032D01*
X-2071429Y-3358032D02*
X-1714286Y-3358032D01*
X-1714286Y-3358032D02*
X-1571429Y-3274699D01*
X-1571429Y-3274699D02*
X-1500001Y-3108032D01*
X-1500001Y-3108032D02*
X-1500001Y-2941365D01*
X-1500001Y-2941365D02*
X-1571429Y-2774699D01*
X-1571429Y-2774699D02*
X-1714286Y-2691365D01*
X-1714286Y-2691365D02*
X-2071429Y-2691365D01*
X-2071429Y-2691365D02*
X-2214286Y-2608032D01*
X-3571429Y-2191365D02*
X-3571429Y-3608032D01*
X-3571429Y-3608032D02*
X-3500001Y-3774699D01*
X-3500001Y-3774699D02*
X-3428572Y-3858032D01*
X-3428572Y-3858032D02*
X-3285715Y-3941365D01*
X-3285715Y-3941365D02*
X-3071429Y-3941365D01*
X-3071429Y-3941365D02*
X-2928572Y-3858032D01*
X-3571429Y-3274699D02*
X-3428572Y-3358032D01*
X-3428572Y-3358032D02*
X-3142858Y-3358032D01*
X-3142858Y-3358032D02*
X-3000001Y-3274699D01*
X-3000001Y-3274699D02*
X-2928572Y-3191365D01*
X-2928572Y-3191365D02*
X-2857144Y-3024699D01*
X-2857144Y-3024699D02*
X-2857144Y-2524699D01*
X-2857144Y-2524699D02*
X-2928572Y-2358032D01*
X-2928572Y-2358032D02*
X-3000001Y-2274699D01*
X-3000001Y-2274699D02*
X-3142858Y-2191365D01*
X-3142858Y-2191365D02*
X-3428572Y-2191365D01*
X-3428572Y-2191365D02*
X-3571429Y-2274699D01*
X-4928572Y-2191365D02*
X-4928572Y-3608032D01*
X-4928572Y-3608032D02*
X-4857144Y-3774699D01*
X-4857144Y-3774699D02*
X-4785715Y-3858032D01*
X-4785715Y-3858032D02*
X-4642858Y-3941365D01*
X-4642858Y-3941365D02*
X-4428572Y-3941365D01*
X-4428572Y-3941365D02*
X-4285715Y-3858032D01*
X-4928572Y-3274699D02*
X-4785715Y-3358032D01*
X-4785715Y-3358032D02*
X-4500001Y-3358032D01*
X-4500001Y-3358032D02*
X-4357144Y-3274699D01*
X-4357144Y-3274699D02*
X-4285715Y-3191365D01*
X-4285715Y-3191365D02*
X-4214287Y-3024699D01*
X-4214287Y-3024699D02*
X-4214287Y-2524699D01*
X-4214287Y-2524699D02*
X-4285715Y-2358032D01*
X-4285715Y-2358032D02*
X-4357144Y-2274699D01*
X-4357144Y-2274699D02*
X-4500001Y-2191365D01*
X-4500001Y-2191365D02*
X-4785715Y-2191365D01*
X-4785715Y-2191365D02*
X-4928572Y-2274699D01*
X-6214287Y-3274699D02*
X-6071430Y-3358032D01*
X-6071430Y-3358032D02*
X-5785715Y-3358032D01*
X-5785715Y-3358032D02*
X-5642858Y-3274699D01*
X-5642858Y-3274699D02*
X-5571430Y-3108032D01*
X-5571430Y-3108032D02*
X-5571430Y-2441365D01*
X-5571430Y-2441365D02*
X-5642858Y-2274699D01*
X-5642858Y-2274699D02*
X-5785715Y-2191365D01*
X-5785715Y-2191365D02*
X-6071430Y-2191365D01*
X-6071430Y-2191365D02*
X-6214287Y-2274699D01*
X-6214287Y-2274699D02*
X-6285715Y-2441365D01*
X-6285715Y-2441365D02*
X-6285715Y-2608032D01*
X-6285715Y-2608032D02*
X-5571430Y-2774699D01*
X-6928572Y-3358032D02*
X-6928572Y-2191365D01*
X-6928572Y-2524699D02*
X-7000001Y-2358032D01*
X-7000001Y-2358032D02*
X-7071429Y-2274699D01*
X-7071429Y-2274699D02*
X-7214287Y-2191365D01*
X-7214287Y-2191365D02*
X-7357144Y-2191365D01*
X1928570Y-5675434D02*
X1214285Y-5675434D01*
X2071427Y-6175434D02*
X1571427Y-4425434D01*
X1571427Y-4425434D02*
X1071427Y-6175434D01*
X571428Y-6175434D02*
X571428Y-4425434D01*
X571428Y-4425434D02*
X71428Y-5675434D01*
X71428Y-5675434D02*
X-428572Y-4425434D01*
X-428572Y-4425434D02*
X-428572Y-6175434D01*
X-1071430Y-6092101D02*
X-1285715Y-6175434D01*
X-1285715Y-6175434D02*
X-1642858Y-6175434D01*
X-1642858Y-6175434D02*
X-1785715Y-6092101D01*
X-1785715Y-6092101D02*
X-1857144Y-6008767D01*
X-1857144Y-6008767D02*
X-1928573Y-5842101D01*
X-1928573Y-5842101D02*
X-1928573Y-5675434D01*
X-1928573Y-5675434D02*
X-1857144Y-5508767D01*
X-1857144Y-5508767D02*
X-1785715Y-5425434D01*
X-1785715Y-5425434D02*
X-1642858Y-5342101D01*
X-1642858Y-5342101D02*
X-1357144Y-5258767D01*
X-1357144Y-5258767D02*
X-1214287Y-5175434D01*
X-1214287Y-5175434D02*
X-1142858Y-5092101D01*
X-1142858Y-5092101D02*
X-1071430Y-4925434D01*
X-1071430Y-4925434D02*
X-1071430Y-4758767D01*
X-1071430Y-4758767D02*
X-1142858Y-4592101D01*
X-1142858Y-4592101D02*
X-1214287Y-4508767D01*
X-1214287Y-4508767D02*
X-1357144Y-4425434D01*
X-1357144Y-4425434D02*
X-1714287Y-4425434D01*
X-1714287Y-4425434D02*
X-1928573Y-4508767D01*
D14*
X19407200Y15571429D02*
X19454819Y15428572D01*
X19454819Y15428572D02*
X19454819Y15190477D01*
X19454819Y15190477D02*
X19407200Y15095239D01*
X19407200Y15095239D02*
X19359580Y15047620D01*
X19359580Y15047620D02*
X19264342Y15000001D01*
X19264342Y15000001D02*
X19169104Y15000001D01*
X19169104Y15000001D02*
X19073866Y15047620D01*
X19073866Y15047620D02*
X19026247Y15095239D01*
X19026247Y15095239D02*
X18978628Y15190477D01*
X18978628Y15190477D02*
X18931009Y15380953D01*
X18931009Y15380953D02*
X18883390Y15476191D01*
X18883390Y15476191D02*
X18835771Y15523810D01*
X18835771Y15523810D02*
X18740533Y15571429D01*
X18740533Y15571429D02*
X18645295Y15571429D01*
X18645295Y15571429D02*
X18550057Y15523810D01*
X18550057Y15523810D02*
X18502438Y15476191D01*
X18502438Y15476191D02*
X18454819Y15380953D01*
X18454819Y15380953D02*
X18454819Y15142858D01*
X18454819Y15142858D02*
X18502438Y15000001D01*
X19454819Y14095239D02*
X19454819Y14571429D01*
X19454819Y14571429D02*
X18454819Y14571429D01*
X18454819Y13571429D02*
X18454819Y13380953D01*
X18454819Y13380953D02*
X18502438Y13285715D01*
X18502438Y13285715D02*
X18597676Y13190477D01*
X18597676Y13190477D02*
X18788152Y13142858D01*
X18788152Y13142858D02*
X19121485Y13142858D01*
X19121485Y13142858D02*
X19311961Y13190477D01*
X19311961Y13190477D02*
X19407200Y13285715D01*
X19407200Y13285715D02*
X19454819Y13380953D01*
X19454819Y13380953D02*
X19454819Y13571429D01*
X19454819Y13571429D02*
X19407200Y13666667D01*
X19407200Y13666667D02*
X19311961Y13761905D01*
X19311961Y13761905D02*
X19121485Y13809524D01*
X19121485Y13809524D02*
X18788152Y13809524D01*
X18788152Y13809524D02*
X18597676Y13761905D01*
X18597676Y13761905D02*
X18502438Y13666667D01*
X18502438Y13666667D02*
X18454819Y13571429D01*
X18454819Y12857143D02*
X18454819Y12285715D01*
X19454819Y12571429D02*
X18454819Y12571429D01*
X18550057Y12000000D02*
X18502438Y11952381D01*
X18502438Y11952381D02*
X18454819Y11857143D01*
X18454819Y11857143D02*
X18454819Y11619048D01*
X18454819Y11619048D02*
X18502438Y11523810D01*
X18502438Y11523810D02*
X18550057Y11476191D01*
X18550057Y11476191D02*
X18645295Y11428572D01*
X18645295Y11428572D02*
X18740533Y11428572D01*
X18740533Y11428572D02*
X18883390Y11476191D01*
X18883390Y11476191D02*
X19454819Y12047619D01*
X19454819Y12047619D02*
X19454819Y11428572D01*
X-19407200Y-9571428D02*
X-19454820Y-9428571D01*
X-19454820Y-9428571D02*
X-19454820Y-9190476D01*
X-19454820Y-9190476D02*
X-19407200Y-9095238D01*
X-19407200Y-9095238D02*
X-19359581Y-9047619D01*
X-19359581Y-9047619D02*
X-19264343Y-9000000D01*
X-19264343Y-9000000D02*
X-19169105Y-9000000D01*
X-19169105Y-9000000D02*
X-19073867Y-9047619D01*
X-19073867Y-9047619D02*
X-19026248Y-9095238D01*
X-19026248Y-9095238D02*
X-18978629Y-9190476D01*
X-18978629Y-9190476D02*
X-18931010Y-9380952D01*
X-18931010Y-9380952D02*
X-18883391Y-9476190D01*
X-18883391Y-9476190D02*
X-18835772Y-9523809D01*
X-18835772Y-9523809D02*
X-18740534Y-9571428D01*
X-18740534Y-9571428D02*
X-18645296Y-9571428D01*
X-18645296Y-9571428D02*
X-18550058Y-9523809D01*
X-18550058Y-9523809D02*
X-18502439Y-9476190D01*
X-18502439Y-9476190D02*
X-18454820Y-9380952D01*
X-18454820Y-9380952D02*
X-18454820Y-9142857D01*
X-18454820Y-9142857D02*
X-18502439Y-9000000D01*
X-19454820Y-8095238D02*
X-19454820Y-8571428D01*
X-19454820Y-8571428D02*
X-18454820Y-8571428D01*
X-18454820Y-7571428D02*
X-18454820Y-7380952D01*
X-18454820Y-7380952D02*
X-18502439Y-7285714D01*
X-18502439Y-7285714D02*
X-18597677Y-7190476D01*
X-18597677Y-7190476D02*
X-18788153Y-7142857D01*
X-18788153Y-7142857D02*
X-19121486Y-7142857D01*
X-19121486Y-7142857D02*
X-19311962Y-7190476D01*
X-19311962Y-7190476D02*
X-19407200Y-7285714D01*
X-19407200Y-7285714D02*
X-19454820Y-7380952D01*
X-19454820Y-7380952D02*
X-19454820Y-7571428D01*
X-19454820Y-7571428D02*
X-19407200Y-7666666D01*
X-19407200Y-7666666D02*
X-19311962Y-7761904D01*
X-19311962Y-7761904D02*
X-19121486Y-7809523D01*
X-19121486Y-7809523D02*
X-18788153Y-7809523D01*
X-18788153Y-7809523D02*
X-18597677Y-7761904D01*
X-18597677Y-7761904D02*
X-18502439Y-7666666D01*
X-18502439Y-7666666D02*
X-18454820Y-7571428D01*
X-18454820Y-6857142D02*
X-18454820Y-6285714D01*
X-19454820Y-6571428D02*
X-18454820Y-6571428D01*
X-18454820Y-6047618D02*
X-18454820Y-5428571D01*
X-18454820Y-5428571D02*
X-18835772Y-5761904D01*
X-18835772Y-5761904D02*
X-18835772Y-5619047D01*
X-18835772Y-5619047D02*
X-18883391Y-5523809D01*
X-18883391Y-5523809D02*
X-18931010Y-5476190D01*
X-18931010Y-5476190D02*
X-19026248Y-5428571D01*
X-19026248Y-5428571D02*
X-19264343Y-5428571D01*
X-19264343Y-5428571D02*
X-19359581Y-5476190D01*
X-19359581Y-5476190D02*
X-19407200Y-5523809D01*
X-19407200Y-5523809D02*
X-19454820Y-5619047D01*
X-19454820Y-5619047D02*
X-19454820Y-5904761D01*
X-19454820Y-5904761D02*
X-19407200Y-5999999D01*
X-19407200Y-5999999D02*
X-19359581Y-6047618D01*
X-19407200Y11428572D02*
X-19454820Y11571429D01*
X-19454820Y11571429D02*
X-19454820Y11809524D01*
X-19454820Y11809524D02*
X-19407200Y11904762D01*
X-19407200Y11904762D02*
X-19359581Y11952381D01*
X-19359581Y11952381D02*
X-19264343Y12000000D01*
X-19264343Y12000000D02*
X-19169105Y12000000D01*
X-19169105Y12000000D02*
X-19073867Y11952381D01*
X-19073867Y11952381D02*
X-19026248Y11904762D01*
X-19026248Y11904762D02*
X-18978629Y11809524D01*
X-18978629Y11809524D02*
X-18931010Y11619048D01*
X-18931010Y11619048D02*
X-18883391Y11523810D01*
X-18883391Y11523810D02*
X-18835772Y11476191D01*
X-18835772Y11476191D02*
X-18740534Y11428572D01*
X-18740534Y11428572D02*
X-18645296Y11428572D01*
X-18645296Y11428572D02*
X-18550058Y11476191D01*
X-18550058Y11476191D02*
X-18502439Y11523810D01*
X-18502439Y11523810D02*
X-18454820Y11619048D01*
X-18454820Y11619048D02*
X-18454820Y11857143D01*
X-18454820Y11857143D02*
X-18502439Y12000000D01*
X-19454820Y12904762D02*
X-19454820Y12428572D01*
X-19454820Y12428572D02*
X-18454820Y12428572D01*
X-18454820Y13428572D02*
X-18454820Y13619048D01*
X-18454820Y13619048D02*
X-18502439Y13714286D01*
X-18502439Y13714286D02*
X-18597677Y13809524D01*
X-18597677Y13809524D02*
X-18788153Y13857143D01*
X-18788153Y13857143D02*
X-19121486Y13857143D01*
X-19121486Y13857143D02*
X-19311962Y13809524D01*
X-19311962Y13809524D02*
X-19407200Y13714286D01*
X-19407200Y13714286D02*
X-19454820Y13619048D01*
X-19454820Y13619048D02*
X-19454820Y13428572D01*
X-19454820Y13428572D02*
X-19407200Y13333334D01*
X-19407200Y13333334D02*
X-19311962Y13238096D01*
X-19311962Y13238096D02*
X-19121486Y13190477D01*
X-19121486Y13190477D02*
X-18788153Y13190477D01*
X-18788153Y13190477D02*
X-18597677Y13238096D01*
X-18597677Y13238096D02*
X-18502439Y13333334D01*
X-18502439Y13333334D02*
X-18454820Y13428572D01*
X-18454820Y14142858D02*
X-18454820Y14714286D01*
X-19454820Y14428572D02*
X-18454820Y14428572D01*
X-18788153Y15476191D02*
X-19454820Y15476191D01*
X-18407200Y15238096D02*
X-19121486Y15000001D01*
X-19121486Y15000001D02*
X-19121486Y15619048D01*
X19407200Y-5428571D02*
X19454819Y-5571428D01*
X19454819Y-5571428D02*
X19454819Y-5809523D01*
X19454819Y-5809523D02*
X19407200Y-5904761D01*
X19407200Y-5904761D02*
X19359580Y-5952380D01*
X19359580Y-5952380D02*
X19264342Y-5999999D01*
X19264342Y-5999999D02*
X19169104Y-5999999D01*
X19169104Y-5999999D02*
X19073866Y-5952380D01*
X19073866Y-5952380D02*
X19026247Y-5904761D01*
X19026247Y-5904761D02*
X18978628Y-5809523D01*
X18978628Y-5809523D02*
X18931009Y-5619047D01*
X18931009Y-5619047D02*
X18883390Y-5523809D01*
X18883390Y-5523809D02*
X18835771Y-5476190D01*
X18835771Y-5476190D02*
X18740533Y-5428571D01*
X18740533Y-5428571D02*
X18645295Y-5428571D01*
X18645295Y-5428571D02*
X18550057Y-5476190D01*
X18550057Y-5476190D02*
X18502438Y-5523809D01*
X18502438Y-5523809D02*
X18454819Y-5619047D01*
X18454819Y-5619047D02*
X18454819Y-5857142D01*
X18454819Y-5857142D02*
X18502438Y-5999999D01*
X19454819Y-6904761D02*
X19454819Y-6428571D01*
X19454819Y-6428571D02*
X18454819Y-6428571D01*
X18454819Y-7428571D02*
X18454819Y-7619047D01*
X18454819Y-7619047D02*
X18502438Y-7714285D01*
X18502438Y-7714285D02*
X18597676Y-7809523D01*
X18597676Y-7809523D02*
X18788152Y-7857142D01*
X18788152Y-7857142D02*
X19121485Y-7857142D01*
X19121485Y-7857142D02*
X19311961Y-7809523D01*
X19311961Y-7809523D02*
X19407200Y-7714285D01*
X19407200Y-7714285D02*
X19454819Y-7619047D01*
X19454819Y-7619047D02*
X19454819Y-7428571D01*
X19454819Y-7428571D02*
X19407200Y-7333333D01*
X19407200Y-7333333D02*
X19311961Y-7238095D01*
X19311961Y-7238095D02*
X19121485Y-7190476D01*
X19121485Y-7190476D02*
X18788152Y-7190476D01*
X18788152Y-7190476D02*
X18597676Y-7238095D01*
X18597676Y-7238095D02*
X18502438Y-7333333D01*
X18502438Y-7333333D02*
X18454819Y-7428571D01*
X18454819Y-8142857D02*
X18454819Y-8714285D01*
X19454819Y-8428571D02*
X18454819Y-8428571D01*
X19454819Y-9571428D02*
X19454819Y-9000000D01*
X19454819Y-9285714D02*
X18454819Y-9285714D01*
X18454819Y-9285714D02*
X18597676Y-9190476D01*
X18597676Y-9190476D02*
X18692914Y-9095238D01*
X18692914Y-9095238D02*
X18740533Y-9000000D01*
X2738094Y-12054819D02*
X2499999Y-13054819D01*
X2499999Y-13054819D02*
X2309523Y-12340533D01*
X2309523Y-12340533D02*
X2119047Y-13054819D01*
X2119047Y-13054819D02*
X1880952Y-12054819D01*
X1547618Y-13007200D02*
X1404761Y-13054819D01*
X1404761Y-13054819D02*
X1166666Y-13054819D01*
X1166666Y-13054819D02*
X1071428Y-13007200D01*
X1071428Y-13007200D02*
X1023809Y-12959580D01*
X1023809Y-12959580D02*
X976190Y-12864342D01*
X976190Y-12864342D02*
X976190Y-12769104D01*
X976190Y-12769104D02*
X1023809Y-12673866D01*
X1023809Y-12673866D02*
X1071428Y-12626247D01*
X1071428Y-12626247D02*
X1166666Y-12578628D01*
X1166666Y-12578628D02*
X1357142Y-12531009D01*
X1357142Y-12531009D02*
X1452380Y-12483390D01*
X1452380Y-12483390D02*
X1499999Y-12435771D01*
X1499999Y-12435771D02*
X1547618Y-12340533D01*
X1547618Y-12340533D02*
X1547618Y-12245295D01*
X1547618Y-12245295D02*
X1499999Y-12150057D01*
X1499999Y-12150057D02*
X1452380Y-12102438D01*
X1452380Y-12102438D02*
X1357142Y-12054819D01*
X1357142Y-12054819D02*
X1119047Y-12054819D01*
X1119047Y-12054819D02*
X976190Y-12102438D01*
X71428Y-13054819D02*
X547618Y-13054819D01*
X547618Y-13054819D02*
X547618Y-12054819D01*
X-261906Y-12531009D02*
X-595239Y-12531009D01*
X-738096Y-13054819D02*
X-261906Y-13054819D01*
X-261906Y-13054819D02*
X-261906Y-12054819D01*
X-261906Y-12054819D02*
X-738096Y-12054819D01*
X-1166668Y-13054819D02*
X-1166668Y-12054819D01*
X-1166668Y-12054819D02*
X-1404763Y-12054819D01*
X-1404763Y-12054819D02*
X-1547620Y-12102438D01*
X-1547620Y-12102438D02*
X-1642858Y-12197676D01*
X-1642858Y-12197676D02*
X-1690477Y-12292914D01*
X-1690477Y-12292914D02*
X-1738096Y-12483390D01*
X-1738096Y-12483390D02*
X-1738096Y-12626247D01*
X-1738096Y-12626247D02*
X-1690477Y-12816723D01*
X-1690477Y-12816723D02*
X-1642858Y-12911961D01*
X-1642858Y-12911961D02*
X-1547620Y-13007200D01*
X-1547620Y-13007200D02*
X-1404763Y-13054819D01*
X-1404763Y-13054819D02*
X-1166668Y-13054819D01*
X-2690477Y-13054819D02*
X-2119049Y-13054819D01*
X-2404763Y-13054819D02*
X-2404763Y-12054819D01*
X-2404763Y-12054819D02*
X-2309525Y-12197676D01*
X-2309525Y-12197676D02*
X-2214287Y-12292914D01*
X-2214287Y-12292914D02*
X-2119049Y-12340533D01*
X10766666Y-24059580D02*
X10814285Y-24107200D01*
X10814285Y-24107200D02*
X10957142Y-24154819D01*
X10957142Y-24154819D02*
X11052380Y-24154819D01*
X11052380Y-24154819D02*
X11195237Y-24107200D01*
X11195237Y-24107200D02*
X11290475Y-24011961D01*
X11290475Y-24011961D02*
X11338094Y-23916723D01*
X11338094Y-23916723D02*
X11385713Y-23726247D01*
X11385713Y-23726247D02*
X11385713Y-23583390D01*
X11385713Y-23583390D02*
X11338094Y-23392914D01*
X11338094Y-23392914D02*
X11290475Y-23297676D01*
X11290475Y-23297676D02*
X11195237Y-23202438D01*
X11195237Y-23202438D02*
X11052380Y-23154819D01*
X11052380Y-23154819D02*
X10957142Y-23154819D01*
X10957142Y-23154819D02*
X10814285Y-23202438D01*
X10814285Y-23202438D02*
X10766666Y-23250057D01*
X9814285Y-24154819D02*
X10385713Y-24154819D01*
X10099999Y-24154819D02*
X10099999Y-23154819D01*
X10099999Y-23154819D02*
X10195237Y-23297676D01*
X10195237Y-23297676D02*
X10290475Y-23392914D01*
X10290475Y-23392914D02*
X10385713Y-23440533D01*
%TO.C,SENSOR*%
D15*
X-5050000Y22970000D02*
X-5050000Y20430000D01*
X-5050000Y20430000D02*
X-2486500Y20430000D01*
X-2486500Y20430000D02*
X-2486500Y22970000D01*
X-2486500Y20430000D02*
X5110000Y20430000D01*
X5110000Y22970000D02*
X-5050000Y22970000D01*
X5110000Y20430000D02*
X5110000Y22970000D01*
%TO.C,SLOT2*%
D16*
X6340000Y23560000D02*
X6340000Y22140000D01*
X6340000Y22140000D02*
X10840000Y22140000D01*
X6340000Y4860000D02*
X10840000Y4860000D01*
X6340000Y3440000D02*
X6340000Y4860000D01*
X6650000Y21300000D02*
X6650000Y20700000D01*
X6650000Y20700000D02*
X7250000Y21000000D01*
X7250000Y21000000D02*
X6650000Y21300000D01*
X10840000Y22140000D02*
X10840000Y13500000D01*
X10840000Y4860000D02*
X10840000Y13500000D01*
X18060000Y23560000D02*
X6340000Y23560000D01*
X18060000Y13500000D02*
X18060000Y23560000D01*
X18060000Y13500000D02*
X18060000Y3440000D01*
X18060000Y3440000D02*
X6340000Y3440000D01*
X11950000Y21250000D02*
X17450000Y21250000D01*
X17450000Y20750000D01*
X11950000Y20750000D01*
X11950000Y21250000D01*
X11950000Y18750000D02*
X17450000Y18750000D01*
X17450000Y18250000D01*
X11950000Y18250000D01*
X11950000Y18750000D01*
X11950000Y16250000D02*
X17450000Y16250000D01*
X17450000Y15750000D01*
X11950000Y15750000D01*
X11950000Y16250000D01*
X11950000Y13750000D02*
X17450000Y13750000D01*
X17450000Y13250000D01*
X11950000Y13250000D01*
X11950000Y13750000D01*
X11950000Y11250000D02*
X17450000Y11250000D01*
X17450000Y10750000D01*
X11950000Y10750000D01*
X11950000Y11250000D01*
X11950000Y8750000D02*
X17450000Y8750000D01*
X17450000Y8250000D01*
X11950000Y8250000D01*
X11950000Y8750000D01*
X11950000Y6250000D02*
X17450000Y6250000D01*
X17450000Y5750000D01*
X11950000Y5750000D01*
X11950000Y6250000D01*
%TO.C,TFT*%
D15*
X-14000000Y27424000D02*
X-14000000Y-11576000D01*
X-14000000Y-11576000D02*
X14000000Y-11576000D01*
X-13250000Y22445500D02*
X-13250000Y-6637500D01*
X-13250000Y-6637500D02*
X13250000Y-6637500D01*
X13250000Y22445500D02*
X-13250000Y22445500D01*
X13250000Y-6637500D02*
X13250000Y22445500D01*
X14000000Y27424000D02*
X-14000000Y27424000D01*
X14000000Y-11576000D02*
X14000000Y27424000D01*
%TO.C,SLOT3*%
D16*
X-18060000Y2582234D02*
X-6340000Y2582234D01*
X-18060000Y-7477766D02*
X-18060000Y2582234D01*
X-18060000Y-7477766D02*
X-18060000Y-17537766D01*
X-18060000Y-17537766D02*
X-6340000Y-17537766D01*
X-10840000Y1162234D02*
X-10840000Y-7477766D01*
X-10840000Y-16117766D02*
X-10840000Y-7477766D01*
X-7250000Y-14977766D02*
X-6650000Y-15277766D01*
X-6650000Y-14677766D02*
X-7250000Y-14977766D01*
X-6650000Y-15277766D02*
X-6650000Y-14677766D01*
X-6340000Y2582234D02*
X-6340000Y1162234D01*
X-6340000Y1162234D02*
X-10840000Y1162234D01*
X-6340000Y-16117766D02*
X-10840000Y-16117766D01*
X-6340000Y-17537766D02*
X-6340000Y-16117766D01*
X-17450000Y272234D02*
X-11950000Y272234D01*
X-11950000Y-227766D01*
X-17450000Y-227766D01*
X-17450000Y272234D01*
X-17450000Y-2227766D02*
X-11950000Y-2227766D01*
X-11950000Y-2727766D01*
X-17450000Y-2727766D01*
X-17450000Y-2227766D01*
X-17450000Y-4727766D02*
X-11950000Y-4727766D01*
X-11950000Y-5227766D01*
X-17450000Y-5227766D01*
X-17450000Y-4727766D01*
X-17450000Y-7227766D02*
X-11950000Y-7227766D01*
X-11950000Y-7727766D01*
X-17450000Y-7727766D01*
X-17450000Y-7227766D01*
X-17450000Y-9727766D02*
X-11950000Y-9727766D01*
X-11950000Y-10227766D01*
X-17450000Y-10227766D01*
X-17450000Y-9727766D01*
X-17450000Y-12227766D02*
X-11950000Y-12227766D01*
X-11950000Y-12727766D01*
X-17450000Y-12727766D01*
X-17450000Y-12227766D01*
X-17450000Y-14727766D02*
X-11950000Y-14727766D01*
X-11950000Y-15227766D01*
X-17450000Y-15227766D01*
X-17450000Y-14727766D01*
%TO.C,5V*%
D15*
X-10089000Y-17802000D02*
X-10089000Y-23282000D01*
X-10089000Y-23282000D02*
X-7549000Y-23282000D01*
X-7549000Y-17802000D02*
X-10089000Y-17802000D01*
X-7549000Y-17802000D02*
X-7549000Y-23282000D01*
%TO.C,SLOT4*%
D16*
X-18060000Y23551973D02*
X-6340000Y23551973D01*
X-18060000Y13491973D02*
X-18060000Y23551973D01*
X-18060000Y13491973D02*
X-18060000Y3431973D01*
X-18060000Y3431973D02*
X-6340000Y3431973D01*
X-10840000Y22131973D02*
X-10840000Y13491973D01*
X-10840000Y4851973D02*
X-10840000Y13491973D01*
X-7250000Y5991973D02*
X-6650000Y5691973D01*
X-6650000Y6291973D02*
X-7250000Y5991973D01*
X-6650000Y5691973D02*
X-6650000Y6291973D01*
X-6340000Y23551973D02*
X-6340000Y22131973D01*
X-6340000Y22131973D02*
X-10840000Y22131973D01*
X-6340000Y4851973D02*
X-10840000Y4851973D01*
X-6340000Y3431973D02*
X-6340000Y4851973D01*
X-17450000Y21241973D02*
X-11950000Y21241973D01*
X-11950000Y20741973D01*
X-17450000Y20741973D01*
X-17450000Y21241973D01*
X-17450000Y18741973D02*
X-11950000Y18741973D01*
X-11950000Y18241973D01*
X-17450000Y18241973D01*
X-17450000Y18741973D01*
X-17450000Y16241973D02*
X-11950000Y16241973D01*
X-11950000Y15741973D01*
X-17450000Y15741973D01*
X-17450000Y16241973D01*
X-17450000Y13741973D02*
X-11950000Y13741973D01*
X-11950000Y13241973D01*
X-17450000Y13241973D01*
X-17450000Y13741973D01*
X-17450000Y11241973D02*
X-11950000Y11241973D01*
X-11950000Y10741973D01*
X-17450000Y10741973D01*
X-17450000Y11241973D01*
X-17450000Y8741973D02*
X-11950000Y8741973D01*
X-11950000Y8241973D01*
X-17450000Y8241973D01*
X-17450000Y8741973D01*
X-17450000Y6241973D02*
X-11950000Y6241973D01*
X-11950000Y5741973D01*
X-17450000Y5741973D01*
X-17450000Y6241973D01*
%TO.C,SLOT1*%
X6340000Y2560000D02*
X6340000Y1140000D01*
X6340000Y1140000D02*
X10840000Y1140000D01*
X6340000Y-16140000D02*
X10840000Y-16140000D01*
X6340000Y-17560000D02*
X6340000Y-16140000D01*
X6650000Y300000D02*
X6650000Y-300000D01*
X6650000Y-300000D02*
X7250000Y0D01*
X7250000Y0D02*
X6650000Y300000D01*
X10840000Y1140000D02*
X10840000Y-7500000D01*
X10840000Y-16140000D02*
X10840000Y-7500000D01*
X18060000Y2560000D02*
X6340000Y2560000D01*
X18060000Y-7500000D02*
X18060000Y2560000D01*
X18060000Y-7500000D02*
X18060000Y-17560000D01*
X18060000Y-17560000D02*
X6340000Y-17560000D01*
X11950000Y250000D02*
X17450000Y250000D01*
X17450000Y-250000D01*
X11950000Y-250000D01*
X11950000Y250000D01*
X11950000Y-2250000D02*
X17450000Y-2250000D01*
X17450000Y-2750000D01*
X11950000Y-2750000D01*
X11950000Y-2250000D01*
X11950000Y-4750000D02*
X17450000Y-4750000D01*
X17450000Y-5250000D01*
X11950000Y-5250000D01*
X11950000Y-4750000D01*
X11950000Y-7250000D02*
X17450000Y-7250000D01*
X17450000Y-7750000D01*
X11950000Y-7750000D01*
X11950000Y-7250000D01*
X11950000Y-9750000D02*
X17450000Y-9750000D01*
X17450000Y-10250000D01*
X11950000Y-10250000D01*
X11950000Y-9750000D01*
X11950000Y-12250000D02*
X17450000Y-12250000D01*
X17450000Y-12750000D01*
X11950000Y-12750000D01*
X11950000Y-12250000D01*
X11950000Y-14750000D02*
X17450000Y-14750000D01*
X17450000Y-15250000D01*
X11950000Y-15250000D01*
X11950000Y-14750000D01*
%TO.C,WSLED1*%
X-5060000Y-13145000D02*
X-3640000Y-13145000D01*
X-5060000Y-24865000D02*
X-5060000Y-13145000D01*
X-3640000Y-13145000D02*
X-3640000Y-17645000D01*
X-3640000Y-17645000D02*
X0Y-17645000D01*
X0Y-24865000D02*
X-5060000Y-24865000D01*
X0Y-24865000D02*
X5060000Y-24865000D01*
X2200000Y-13455000D02*
X2500000Y-14055000D01*
X2500000Y-14055000D02*
X2800000Y-13455000D01*
X2800000Y-13455000D02*
X2200000Y-13455000D01*
X3640000Y-13145000D02*
X3640000Y-17645000D01*
X3640000Y-17645000D02*
X0Y-17645000D01*
X5060000Y-13145000D02*
X3640000Y-13145000D01*
X5060000Y-24865000D02*
X5060000Y-13145000D01*
X-2750000Y-18755000D02*
X-2250000Y-18755000D01*
X-2250000Y-24255000D01*
X-2750000Y-24255000D01*
X-2750000Y-18755000D01*
X-250000Y-18755000D02*
X250000Y-18755000D01*
X250000Y-24255000D01*
X-250000Y-24255000D01*
X-250000Y-18755000D01*
X2250000Y-18755000D02*
X2750000Y-18755000D01*
X2750000Y-24255000D01*
X2250000Y-24255000D01*
X2250000Y-18755000D01*
%TO.C,C1*%
X5437401Y-21144887D02*
X6977401Y-21144887D01*
X5437401Y-21184887D02*
X6977401Y-21184887D01*
X5438401Y-21224887D02*
X6977401Y-21224887D01*
X5440401Y-21264887D02*
X6977401Y-21264887D01*
X5442401Y-21304887D02*
X6977401Y-21304887D01*
X5445401Y-21344887D02*
X6977401Y-21344887D01*
X5448401Y-21384887D02*
X6977401Y-21384887D01*
X5452401Y-21424887D02*
X6977401Y-21424887D01*
X5457401Y-21464887D02*
X6977401Y-21464887D01*
X5462401Y-21504887D02*
X6977401Y-21504887D01*
X5468401Y-21544887D02*
X6977401Y-21544887D01*
X5474401Y-21584887D02*
X6977401Y-21584887D01*
X5481401Y-21624887D02*
X6977401Y-21624887D01*
X5489401Y-21664887D02*
X6977401Y-21664887D01*
X5498401Y-21704887D02*
X6977401Y-21704887D01*
X5507401Y-21744887D02*
X6977401Y-21744887D01*
X5516401Y-21784887D02*
X6977401Y-21784887D01*
X5527401Y-21824887D02*
X6977401Y-21824887D01*
X5538401Y-21864887D02*
X6977401Y-21864887D01*
X5550401Y-21904887D02*
X6977401Y-21904887D01*
X5562401Y-21944887D02*
X6977401Y-21944887D01*
X5575401Y-21984887D02*
X6977401Y-21984887D01*
X5589401Y-22024887D02*
X6977401Y-22024887D01*
X5604401Y-22064887D02*
X6977401Y-22064887D01*
X5619401Y-22104887D02*
X6977401Y-22104887D01*
X5635401Y-22144887D02*
X6977401Y-22144887D01*
X5652401Y-22184887D02*
X6977401Y-22184887D01*
X5670401Y-22224887D02*
X6977401Y-22224887D01*
X5688401Y-22264887D02*
X6977401Y-22264887D01*
X5708401Y-22304887D02*
X6977401Y-22304887D01*
X5728401Y-22344887D02*
X6977401Y-22344887D01*
X5749401Y-22384887D02*
X6977401Y-22384887D01*
X5771401Y-22424887D02*
X6977401Y-22424887D01*
X5794401Y-22464887D02*
X6977401Y-22464887D01*
X5818401Y-22504887D02*
X6977401Y-22504887D01*
X5842401Y-22544887D02*
X6977401Y-22544887D01*
X5868401Y-22584887D02*
X6977401Y-22584887D01*
X5895401Y-22624887D02*
X6977401Y-22624887D01*
X5923401Y-22664887D02*
X6977401Y-22664887D01*
X5952401Y-22704887D02*
X6977401Y-22704887D01*
X5982401Y-22744887D02*
X6977401Y-22744887D01*
X6014401Y-22784887D02*
X6977401Y-22784887D01*
X6047401Y-22824887D02*
X6977401Y-22824887D01*
X6081401Y-22864887D02*
X6977401Y-22864887D01*
X6116401Y-22904887D02*
X6977401Y-22904887D01*
X6153401Y-22944887D02*
X6977401Y-22944887D01*
X6192401Y-22984887D02*
X6977401Y-22984887D01*
X6232401Y-23024887D02*
X6977401Y-23024887D01*
X6274401Y-23064887D02*
X6977401Y-23064887D01*
X6292401Y-18590112D02*
X6792401Y-18590112D01*
X6318401Y-23104887D02*
X6977401Y-23104887D01*
X6365401Y-23144887D02*
X6977401Y-23144887D01*
X6413401Y-23184887D02*
X9621401Y-23184887D01*
X6464401Y-23224887D02*
X9570401Y-23224887D01*
X6518401Y-23264887D02*
X9516401Y-23264887D01*
X6542401Y-18340112D02*
X6542401Y-18840112D01*
X6574401Y-23304887D02*
X9460401Y-23304887D01*
X6634401Y-23344887D02*
X9400401Y-23344887D01*
X6698401Y-23384887D02*
X9336401Y-23384887D01*
X6766401Y-23424887D02*
X9268401Y-23424887D01*
X6840401Y-23464887D02*
X9194401Y-23464887D01*
X6919401Y-23504887D02*
X9115401Y-23504887D01*
X7006401Y-23544887D02*
X9028401Y-23544887D01*
X7103401Y-23584887D02*
X8931401Y-23584887D01*
X7212401Y-23624887D02*
X8822401Y-23624887D01*
X7340401Y-23664887D02*
X8694401Y-23664887D01*
X7500401Y-23704887D02*
X8534401Y-23704887D01*
X7734401Y-23744887D02*
X8300401Y-23744887D01*
X9057401Y-21144887D02*
X10597401Y-21144887D01*
X9057401Y-21184887D02*
X10597401Y-21184887D01*
X9057401Y-21224887D02*
X10596401Y-21224887D01*
X9057401Y-21264887D02*
X10594401Y-21264887D01*
X9057401Y-21304887D02*
X10592401Y-21304887D01*
X9057401Y-21344887D02*
X10589401Y-21344887D01*
X9057401Y-21384887D02*
X10586401Y-21384887D01*
X9057401Y-21424887D02*
X10582401Y-21424887D01*
X9057401Y-21464887D02*
X10577401Y-21464887D01*
X9057401Y-21504887D02*
X10572401Y-21504887D01*
X9057401Y-21544887D02*
X10566401Y-21544887D01*
X9057401Y-21584887D02*
X10560401Y-21584887D01*
X9057401Y-21624887D02*
X10553401Y-21624887D01*
X9057401Y-21664887D02*
X10545401Y-21664887D01*
X9057401Y-21704887D02*
X10536401Y-21704887D01*
X9057401Y-21744887D02*
X10527401Y-21744887D01*
X9057401Y-21784887D02*
X10518401Y-21784887D01*
X9057401Y-21824887D02*
X10507401Y-21824887D01*
X9057401Y-21864887D02*
X10496401Y-21864887D01*
X9057401Y-21904887D02*
X10484401Y-21904887D01*
X9057401Y-21944887D02*
X10472401Y-21944887D01*
X9057401Y-21984887D02*
X10459401Y-21984887D01*
X9057401Y-22024887D02*
X10445401Y-22024887D01*
X9057401Y-22064887D02*
X10430401Y-22064887D01*
X9057401Y-22104887D02*
X10415401Y-22104887D01*
X9057401Y-22144887D02*
X10399401Y-22144887D01*
X9057401Y-22184887D02*
X10382401Y-22184887D01*
X9057401Y-22224887D02*
X10364401Y-22224887D01*
X9057401Y-22264887D02*
X10346401Y-22264887D01*
X9057401Y-22304887D02*
X10326401Y-22304887D01*
X9057401Y-22344887D02*
X10306401Y-22344887D01*
X9057401Y-22384887D02*
X10285401Y-22384887D01*
X9057401Y-22424887D02*
X10263401Y-22424887D01*
X9057401Y-22464887D02*
X10240401Y-22464887D01*
X9057401Y-22504887D02*
X10216401Y-22504887D01*
X9057401Y-22544887D02*
X10192401Y-22544887D01*
X9057401Y-22584887D02*
X10166401Y-22584887D01*
X9057401Y-22624887D02*
X10139401Y-22624887D01*
X9057401Y-22664887D02*
X10111401Y-22664887D01*
X9057401Y-22704887D02*
X10082401Y-22704887D01*
X9057401Y-22744887D02*
X10052401Y-22744887D01*
X9057401Y-22784887D02*
X10020401Y-22784887D01*
X9057401Y-22824887D02*
X9987401Y-22824887D01*
X9057401Y-22864887D02*
X9953401Y-22864887D01*
X9057401Y-22904887D02*
X9918401Y-22904887D01*
X9057401Y-22944887D02*
X9881401Y-22944887D01*
X9057401Y-22984887D02*
X9842401Y-22984887D01*
X9057401Y-23024887D02*
X9802401Y-23024887D01*
X9057401Y-23064887D02*
X9760401Y-23064887D01*
X9057401Y-23104887D02*
X9716401Y-23104887D01*
X9057401Y-23144887D02*
X9669401Y-23144887D01*
X10637401Y-21144887D02*
G75*
G02*
X5397401Y-21144887I-2620000J0D01*
G01*
X5397401Y-21144887D02*
G75*
G02*
X10637401Y-21144887I2620000J0D01*
G01*
%TD*%
M02*
