%TF.GenerationSoftware,KiCad,Pcbnew,10.0.1*%
%TF.CreationDate,2026-09-22T18:38:54+02:00*%
%TF.ProjectId,ProPrj_BambuTagger-AMS_2026-09-22(1),50726f50-726a-45f4-9261-6d6275546167,rev?*%
%TF.SameCoordinates,PX8d8dcb0PY678a590*%
%TF.FileFunction,Legend,Top*%
%TF.FilePolarity,Positive*%
%FSLAX46Y46*%
G04 Gerber Fmt 4.6, Leading zero omitted, Abs format (unit mm)*
G04 Created by KiCad (PCBNEW 10.0.1) date 2026-09-22 18:38:54*
%MOMM*%
%LPD*%
G01*
G04 APERTURE LIST*
%ADD10C,0.000000*%
%ADD11C,0.100000*%
%ADD12C,0.152000*%
%ADD13C,0.200000*%
%ADD14C,0.150000*%
%ADD15C,0.127000*%
G04 APERTURE END LIST*
D10*
G36*
X178941Y3339762D02*
G01*
X264549Y3326797D01*
X345716Y3303353D01*
X427061Y3279909D01*
X481055Y3254688D01*
X535226Y3229468D01*
X598810Y3188618D01*
X662394Y3147769D01*
X743917Y3079924D01*
X825439Y3012255D01*
X881209Y2949915D01*
X936978Y2887575D01*
X977473Y2833760D01*
X1017968Y2779944D01*
X1071961Y2671604D01*
X1125954Y2563441D01*
X1136789Y2372158D01*
X1147800Y2180697D01*
X1136966Y2055483D01*
X1126310Y1930092D01*
X1102865Y1837204D01*
X1079421Y1744137D01*
X1049582Y1673449D01*
X1019566Y1602584D01*
X941241Y1483054D01*
X862737Y1363347D01*
X757415Y1259624D01*
X652092Y1155901D01*
X578385Y1112742D01*
X504854Y1069584D01*
X440737Y1043298D01*
X376798Y1016834D01*
X311615Y998896D01*
X246610Y981135D01*
X148037Y971544D01*
X49464Y961954D01*
X-76106Y961954D01*
X-201854Y961954D01*
X-293499Y980602D01*
X-385145Y999074D01*
X-460985Y1029977D01*
X-537001Y1060881D01*
X-586910Y1090364D01*
X-636818Y1119847D01*
X-768427Y1250566D01*
X-900035Y1381463D01*
X-955982Y1463873D01*
X-1011751Y1546282D01*
X-1051713Y1626383D01*
X-1091676Y1706307D01*
X-1117251Y1783033D01*
X-1143005Y1859582D01*
X-1142472Y2085144D01*
X-1141939Y2310705D01*
X-1122580Y2398088D01*
X-1103220Y2485471D01*
X-1079953Y2554738D01*
X-1056687Y2624183D01*
X-1013172Y2715651D01*
X-969658Y2806941D01*
X-905896Y2903382D01*
X-841957Y2999645D01*
X-808566Y3036587D01*
X-774998Y3073530D01*
X-718341Y3118819D01*
X-661683Y3163931D01*
X-586554Y3205491D01*
X-511426Y3247051D01*
X-434698Y3276534D01*
X-357971Y3306195D01*
X-267746Y3324843D01*
X-177521Y3343315D01*
X-150524Y3346867D01*
X-123350Y3350241D01*
X-15186Y3351485D01*
X93156Y3352728D01*
X178941Y3339762D01*
G37*
G36*
X-55681Y5297530D02*
G01*
X237552Y5294334D01*
X372891Y5276218D01*
X508229Y5258102D01*
X611420Y5238742D01*
X714789Y5219206D01*
X846042Y5187591D01*
X977295Y5155977D01*
X1094695Y5116726D01*
X1211917Y5077652D01*
X1356314Y5022239D01*
X1500710Y4966648D01*
X1597152Y4918161D01*
X1693594Y4869674D01*
X1784885Y4812839D01*
X1876354Y4755827D01*
X1981499Y4674661D01*
X2086821Y4593494D01*
X2214167Y4467215D01*
X2341513Y4340936D01*
X2400124Y4266163D01*
X2458913Y4191391D01*
X2493192Y4141661D01*
X2527470Y4091753D01*
X2531733Y3959258D01*
X2535818Y3826585D01*
X2516814Y3747194D01*
X2497809Y3667626D01*
X2470635Y3602799D01*
X2443639Y3537795D01*
X2360162Y3452721D01*
X2276686Y3367647D01*
X2222515Y3327685D01*
X2168344Y3287723D01*
X2117192Y3261970D01*
X2066041Y3236040D01*
X1999793Y3217568D01*
X1933722Y3199097D01*
X1870671Y3193769D01*
X1807442Y3188441D01*
X1736753Y3212063D01*
X1666242Y3235862D01*
X1618110Y3266588D01*
X1570155Y3297314D01*
X1485791Y3368002D01*
X1401427Y3438690D01*
X1348854Y3477941D01*
X1296104Y3517015D01*
X1190959Y3584506D01*
X1085637Y3652174D01*
X977295Y3705456D01*
X869131Y3758561D01*
X771979Y3794438D01*
X674826Y3830314D01*
X566307Y3857488D01*
X457965Y3884840D01*
X374311Y3898338D01*
X290835Y3911659D01*
X160470Y3922138D01*
X29927Y3932616D01*
X-162069Y3926755D01*
X-354241Y3920717D01*
X-438251Y3903489D01*
X-522260Y3886083D01*
X-623852Y3853226D01*
X-725445Y3820546D01*
X-821354Y3780407D01*
X-917441Y3740267D01*
X-1013172Y3687163D01*
X-1109081Y3634236D01*
X-1211740Y3569764D01*
X-1314398Y3505293D01*
X-1440678Y3415956D01*
X-1566958Y3326619D01*
X-1633740Y3288434D01*
X-1700343Y3250248D01*
X-1773518Y3223607D01*
X-1846693Y3197144D01*
X-1927861Y3196078D01*
X-2009206Y3195012D01*
X-2094814Y3237105D01*
X-2180599Y3279198D01*
X-2257149Y3335500D01*
X-2333698Y3391801D01*
X-2412557Y3470659D01*
X-2491593Y3549517D01*
X-2501361Y3575270D01*
X-2511130Y3601023D01*
X-2533331Y3686808D01*
X-2555355Y3772414D01*
X-2560861Y3858909D01*
X-2566544Y3945227D01*
X-2555710Y4021243D01*
X-2544876Y4097259D01*
X-2512373Y4146811D01*
X-2479871Y4196541D01*
X-2424989Y4264032D01*
X-2370108Y4331701D01*
X-2297821Y4404164D01*
X-2225712Y4476628D01*
X-2144544Y4544830D01*
X-2063199Y4613031D01*
X-1978302Y4674306D01*
X-1893404Y4735580D01*
X-1708691Y4857419D01*
X-1523977Y4979258D01*
X-1405689Y5035915D01*
X-1287401Y5092394D01*
X-1173554Y5133421D01*
X-1059706Y5174271D01*
X-929873Y5206240D01*
X-800041Y5238210D01*
X-691877Y5256503D01*
X-583535Y5274619D01*
X-466313Y5287762D01*
X-348913Y5300727D01*
X-55681Y5297530D01*
G37*
G36*
X97596Y7894686D02*
G01*
X309662Y7890778D01*
X454058Y7877280D01*
X598454Y7863960D01*
X702178Y7850284D01*
X805902Y7836430D01*
X945858Y7813697D01*
X1085637Y7790785D01*
X1256142Y7750823D01*
X1426825Y7710862D01*
X1578326Y7665927D01*
X1730004Y7620815D01*
X1871914Y7570197D01*
X2013824Y7519756D01*
X2158753Y7459902D01*
X2303682Y7400049D01*
X2524806Y7289932D01*
X2745752Y7179815D01*
X2822479Y7135413D01*
X2899207Y7091011D01*
X2953377Y7061351D01*
X3007371Y7031513D01*
X3138269Y6947505D01*
X3269167Y6863674D01*
X3360813Y6797781D01*
X3452460Y6731889D01*
X3572701Y6637047D01*
X3692943Y6542382D01*
X3787786Y6462103D01*
X3882630Y6381825D01*
X3944260Y6322326D01*
X4005891Y6262650D01*
X4062548Y6194981D01*
X4119383Y6127313D01*
X4224350Y5969420D01*
X4329140Y5811527D01*
X4330383Y5757356D01*
X4331449Y5703186D01*
X4329495Y5649193D01*
X4327541Y5595023D01*
X4309780Y5541741D01*
X4292020Y5488459D01*
X4266444Y5438018D01*
X4240868Y5387400D01*
X4165562Y5307121D01*
X4090255Y5226665D01*
X4014061Y5165213D01*
X3937689Y5103761D01*
X3838050Y5054208D01*
X3738233Y5004478D01*
X3643923Y4980679D01*
X3549612Y4956702D01*
X3504144Y4961675D01*
X3458499Y4966470D01*
X3413386Y4986540D01*
X3368273Y5006432D01*
X3309662Y5044617D01*
X3251051Y5082625D01*
X3192440Y5144966D01*
X3133829Y5207306D01*
X3052484Y5301260D01*
X2971316Y5395037D01*
X2863152Y5493787D01*
X2754810Y5592359D01*
X2673643Y5653101D01*
X2592475Y5713665D01*
X2520188Y5763040D01*
X2448079Y5812237D01*
X2366911Y5860724D01*
X2285566Y5909211D01*
X2141347Y5982918D01*
X1996951Y6056447D01*
X1893227Y6099961D01*
X1789325Y6143475D01*
X1669439Y6187344D01*
X1549375Y6231213D01*
X1443875Y6263360D01*
X1338198Y6295330D01*
X1189361Y6334403D01*
X1040524Y6373477D01*
X914244Y6401361D01*
X787964Y6429246D01*
X697738Y6442744D01*
X607513Y6456420D01*
X476614Y6469563D01*
X345716Y6482528D01*
X190663Y6493895D01*
X35433Y6505084D01*
X-233467Y6494428D01*
X-502368Y6483771D01*
X-678379Y6461037D01*
X-854212Y6438481D01*
X-957225Y6420188D01*
X-1060061Y6401894D01*
X-1209431Y6365840D01*
X-1358978Y6329963D01*
X-1447960Y6302434D01*
X-1536942Y6274905D01*
X-1664821Y6226773D01*
X-1792522Y6178641D01*
X-1864809Y6145251D01*
X-1936919Y6111861D01*
X-2045260Y6058046D01*
X-2153425Y6004053D01*
X-2290361Y5922176D01*
X-2427121Y5840299D01*
X-2535462Y5762685D01*
X-2643982Y5685248D01*
X-2718755Y5626637D01*
X-2793707Y5567849D01*
X-2902226Y5473184D01*
X-3010568Y5378519D01*
X-3164022Y5224179D01*
X-3317477Y5069838D01*
X-3353531Y5051366D01*
X-3389586Y5033073D01*
X-3438606Y5018509D01*
X-3487626Y5003945D01*
X-3583536Y5003945D01*
X-3679622Y5003945D01*
X-3782813Y5022416D01*
X-3885827Y5040710D01*
X-3949056Y5070726D01*
X-4012107Y5100741D01*
X-4064147Y5141413D01*
X-4116008Y5182086D01*
X-4172311Y5249932D01*
X-4228613Y5317778D01*
X-4267332Y5382427D01*
X-4305873Y5447076D01*
X-4329140Y5516521D01*
X-4352584Y5585965D01*
X-4347966Y5658074D01*
X-4343171Y5730360D01*
X-4320792Y5799805D01*
X-4298413Y5869427D01*
X-4248683Y5944200D01*
X-4198952Y6018972D01*
X-4129684Y6109197D01*
X-4060417Y6199422D01*
X-3973033Y6297283D01*
X-3885827Y6394967D01*
X-3763987Y6507926D01*
X-3642147Y6621062D01*
X-3508052Y6721588D01*
X-3373956Y6822114D01*
X-3253360Y6898662D01*
X-3132940Y6975389D01*
X-2998668Y7067390D01*
X-2864395Y7159390D01*
X-2749482Y7222974D01*
X-2634568Y7286557D01*
X-2506867Y7348720D01*
X-2378989Y7411060D01*
X-2257326Y7462566D01*
X-2135486Y7513895D01*
X-1923420Y7584938D01*
X-1711355Y7656159D01*
X-1512965Y7706422D01*
X-1314398Y7756685D01*
X-1147445Y7787233D01*
X-980492Y7817959D01*
X-822597Y7840515D01*
X-664703Y7863249D01*
X-539133Y7873906D01*
X-413385Y7884562D01*
X-263838Y7891666D01*
X-114292Y7898771D01*
X97596Y7894686D01*
G37*
G36*
X408945Y11500119D02*
G01*
X562400Y11491061D01*
X711236Y11477385D01*
X860073Y11463709D01*
X977295Y11450211D01*
X1094695Y11436713D01*
X1288645Y11404566D01*
X1482594Y11372419D01*
X1626990Y11341338D01*
X1771387Y11310256D01*
X1942780Y11269229D01*
X2114173Y11228379D01*
X2288053Y11179004D01*
X2461932Y11129629D01*
X2662453Y11061428D01*
X2863152Y10993227D01*
X3034545Y10925026D01*
X3205938Y10857002D01*
X3377331Y10780986D01*
X3548724Y10705147D01*
X3778906Y10587216D01*
X4008910Y10469462D01*
X4103754Y10415114D01*
X4198419Y10360944D01*
X4360754Y10261306D01*
X4523267Y10161668D01*
X4658250Y10071621D01*
X4793056Y9981574D01*
X4946865Y9868971D01*
X5100675Y9756546D01*
X5181843Y9692252D01*
X5263010Y9627958D01*
X5393908Y9519084D01*
X5524806Y9410033D01*
X5664585Y9283932D01*
X5804364Y9157830D01*
X5974869Y8986794D01*
X6145374Y8815936D01*
X6263662Y8685217D01*
X6381949Y8554320D01*
X6459209Y8464095D01*
X6536292Y8373871D01*
X6635753Y8252032D01*
X6735214Y8130371D01*
X6839471Y7990416D01*
X6943728Y7850639D01*
X7055622Y7683688D01*
X7167516Y7516737D01*
X7231455Y7413014D01*
X7295395Y7309291D01*
X7363064Y7191893D01*
X7430733Y7074672D01*
X7513144Y6919087D01*
X7595554Y6763681D01*
X7693240Y6567247D01*
X7790925Y6370990D01*
X7850779Y6231036D01*
X7910456Y6091259D01*
X7973685Y5897311D01*
X8036914Y5703186D01*
X8072436Y5599463D01*
X8107958Y5495740D01*
X8150229Y5378519D01*
X8192322Y5261121D01*
X8222516Y5143900D01*
X8252709Y5026501D01*
X8311498Y4724391D01*
X8370287Y4422103D01*
X8392843Y4286766D01*
X8415399Y4151429D01*
X8429253Y4047706D01*
X8443106Y3943806D01*
X8452165Y3862639D01*
X8461223Y3781472D01*
X8474543Y3628019D01*
X8488042Y3474744D01*
X8498521Y3235684D01*
X8509000Y2996448D01*
X8503671Y2734832D01*
X8498165Y2473216D01*
X8484134Y2283709D01*
X8470103Y2094202D01*
X8451987Y1931868D01*
X8433871Y1769358D01*
X8420195Y1674693D01*
X8406697Y1580028D01*
X8384851Y1448776D01*
X8363005Y1317524D01*
X8335830Y1184673D01*
X8308834Y1051823D01*
X8275976Y909915D01*
X8242941Y768006D01*
X8208129Y641194D01*
X8173495Y514383D01*
X8131580Y384019D01*
X8089841Y253655D01*
X8017554Y59707D01*
X7945445Y-134240D01*
X7877953Y-292133D01*
X7810462Y-450026D01*
X7722190Y-631541D01*
X7634096Y-812879D01*
X7545824Y-974324D01*
X7457552Y-1135769D01*
X7376384Y-1271106D01*
X7295395Y-1406443D01*
X7200729Y-1550838D01*
X7106063Y-1695233D01*
X7032888Y-1798956D01*
X6959535Y-1902679D01*
X6878900Y-2011019D01*
X6798266Y-2119182D01*
X6746937Y-2182410D01*
X6695608Y-2245639D01*
X6562756Y-2407972D01*
X6429726Y-2570305D01*
X6349092Y-2662839D01*
X6268457Y-2755372D01*
X6220680Y-2755372D01*
X6172726Y-2755372D01*
X6162602Y-2789118D01*
X6152478Y-2823041D01*
X6124593Y-2866910D01*
X6096709Y-2910779D01*
X6049820Y-2960331D01*
X6002931Y-3010062D01*
X5917146Y-3078441D01*
X5831538Y-3146819D01*
X5673288Y-3300628D01*
X5515216Y-3454613D01*
X5390001Y-3562776D01*
X5264609Y-3671117D01*
X5209727Y-3719604D01*
X5154846Y-3768268D01*
X5060535Y-3835226D01*
X4966047Y-3902184D01*
X4888965Y-3948007D01*
X4811882Y-3993652D01*
X4748831Y-4030950D01*
X4685602Y-4068070D01*
X4559322Y-4158650D01*
X4433041Y-4249052D01*
X4356314Y-4299137D01*
X4279587Y-4349223D01*
X4198419Y-4394690D01*
X4117252Y-4440158D01*
X4017968Y-4489888D01*
X3918685Y-4539440D01*
X3769848Y-4607286D01*
X3621011Y-4674955D01*
X3467557Y-4740137D01*
X3314280Y-4805319D01*
X3183382Y-4857358D01*
X3052484Y-4909397D01*
X2939702Y-4950779D01*
X2826920Y-4991984D01*
X2587857Y-5068711D01*
X2348795Y-5145437D01*
X2213457Y-5182557D01*
X2078118Y-5219855D01*
X1917382Y-5259461D01*
X1756645Y-5299245D01*
X1574596Y-5339562D01*
X1392368Y-5379879D01*
X1230033Y-5407053D01*
X1067521Y-5434405D01*
X959357Y-5448436D01*
X851015Y-5462644D01*
X666124Y-5481471D01*
X481055Y-5500297D01*
X29927Y-5504737D01*
X-421200Y-5509000D01*
X-565597Y-5498699D01*
X-709815Y-5488220D01*
X-885826Y-5470637D01*
X-1061837Y-5452876D01*
X-1255609Y-5425524D01*
X-1449381Y-5398350D01*
X-1675122Y-5353060D01*
X-1900864Y-5307770D01*
X-2009206Y-5281840D01*
X-2117370Y-5255909D01*
X-2270824Y-5214349D01*
X-2424101Y-5172789D01*
X-2568498Y-5127321D01*
X-2712894Y-5081854D01*
X-2875229Y-5024842D01*
X-3037742Y-4967830D01*
X-3204695Y-4899984D01*
X-3371470Y-4832315D01*
X-3479812Y-4785071D01*
X-3588153Y-4737828D01*
X-3759546Y-4655063D01*
X-3930940Y-4572298D01*
X-4066278Y-4496992D01*
X-4201616Y-4421686D01*
X-4285270Y-4372844D01*
X-4368747Y-4324002D01*
X-4497158Y-4231646D01*
X-4625747Y-4139290D01*
X-4729471Y-4063097D01*
X-4833195Y-3986903D01*
X-4958410Y-3905736D01*
X-5083802Y-3824570D01*
X-5188592Y-3746422D01*
X-5293381Y-3668275D01*
X-5365491Y-3608066D01*
X-5437778Y-3547857D01*
X-5559262Y-3433656D01*
X-5680747Y-3319276D01*
X-6060654Y-2940262D01*
X-6440560Y-2561425D01*
X-6544107Y-2444026D01*
X-6647653Y-2326805D01*
X-6738234Y-2214025D01*
X-6828992Y-2101244D01*
X-6938932Y-1953297D01*
X-7048695Y-1805350D01*
X-7141585Y-1664507D01*
X-7234652Y-1523842D01*
X-7291842Y-1428999D01*
X-7349032Y-1334334D01*
X-7421319Y-1208055D01*
X-7493429Y-1081599D01*
X-7589516Y-892269D01*
X-7685780Y-702762D01*
X-7763395Y-526753D01*
X-7841188Y-350921D01*
X-7908147Y-179353D01*
X-7975106Y-7961D01*
X-8020574Y122758D01*
X-8066042Y253655D01*
X-8102274Y366435D01*
X-8138506Y479216D01*
X-8183974Y637109D01*
X-8229442Y795003D01*
X-8274200Y976340D01*
X-8319135Y1157677D01*
X-8356255Y1332798D01*
X-8393376Y1507742D01*
X-8437600Y1769358D01*
X-8481825Y2031151D01*
X-8491061Y2175368D01*
X-8500297Y2319763D01*
X-8504737Y2786871D01*
X-8505662Y2888285D01*
X-6552809Y2888285D01*
X-6552632Y2563441D01*
X-6543219Y2373934D01*
X-6533628Y2184426D01*
X-6519952Y2062588D01*
X-6506276Y1940926D01*
X-6488160Y1828678D01*
X-6470221Y1716430D01*
X-6451750Y1625673D01*
X-6433456Y1534916D01*
X-6392783Y1372405D01*
X-6352111Y1210071D01*
X-6281422Y998008D01*
X-6210911Y785945D01*
X-6152478Y641550D01*
X-6093867Y497332D01*
X-6052129Y404266D01*
X-6010213Y311377D01*
X-5932597Y156148D01*
X-5854982Y1097D01*
X-5786958Y-120742D01*
X-5718756Y-242581D01*
X-5664940Y-332805D01*
X-5611124Y-423030D01*
X-5516459Y-567425D01*
X-5421793Y-711820D01*
X-5335652Y-833481D01*
X-5249334Y-955320D01*
X-5140637Y-1095275D01*
X-5031763Y-1235052D01*
X-4945267Y-1338775D01*
X-4858771Y-1442497D01*
X-4755758Y-1546753D01*
X-4652744Y-1651009D01*
X-4553460Y-1741056D01*
X-4454177Y-1830925D01*
X-4350453Y-1913157D01*
X-4246729Y-1995567D01*
X-4143005Y-2078155D01*
X-4039281Y-2160565D01*
X-3908383Y-2248836D01*
X-3777485Y-2336929D01*
X-3624208Y-2428042D01*
X-3470754Y-2518977D01*
X-3384080Y-2569240D01*
X-3297229Y-2619680D01*
X-3228317Y-2669055D01*
X-3159582Y-2718430D01*
X-3098662Y-2753774D01*
X-3037742Y-2789295D01*
X-2925315Y-2845419D01*
X-2813066Y-2901543D01*
X-2731366Y-2937598D01*
X-2649665Y-2973652D01*
X-2509887Y-3025869D01*
X-2370108Y-3078085D01*
X-2256616Y-3114317D01*
X-2143123Y-3150549D01*
X-1963383Y-3195839D01*
X-1783642Y-3241129D01*
X-1661802Y-3264218D01*
X-1539962Y-3287129D01*
X-1481351Y-3296187D01*
X-1422740Y-3305068D01*
X-1291841Y-3318744D01*
X-1160943Y-3332242D01*
X-1070718Y-3333307D01*
X-980492Y-3334195D01*
X-894884Y-3305956D01*
X-809099Y-3277716D01*
X-744982Y-3246812D01*
X-680865Y-3216086D01*
X-618169Y-3166889D01*
X-555473Y-3117869D01*
X-526700Y-3029066D01*
X-497927Y-2940262D01*
X-487093Y-2890709D01*
X-476081Y-2840979D01*
X-476081Y-2741874D01*
X-476081Y-2642592D01*
X-492066Y-2566576D01*
X-508051Y-2490382D01*
X-553519Y-2413123D01*
X-599165Y-2335863D01*
X-664703Y-2245639D01*
X-730418Y-2155414D01*
X-819400Y-2068209D01*
X-908383Y-1981003D01*
X-962554Y-1936602D01*
X-1016724Y-1892022D01*
X-1126487Y-1771071D01*
X-1236427Y-1650121D01*
X-1280119Y-1591510D01*
X-1323811Y-1532722D01*
X-1395388Y-1419941D01*
X-1466964Y-1307160D01*
X-1509413Y-1250681D01*
X-1551684Y-1194024D01*
X-1583831Y-1158681D01*
X-1615801Y-1123159D01*
X-1667841Y-1080711D01*
X-1720058Y-1038263D01*
X-1792345Y-1003807D01*
X-1864809Y-969528D01*
X-1950417Y-956030D01*
X-2036202Y-942710D01*
X-2148984Y-929212D01*
X-2261766Y-915713D01*
X-2437777Y-901505D01*
X-2613611Y-887296D01*
X-2720354Y-873798D01*
X-2827275Y-860300D01*
X-2937037Y-837211D01*
X-3046800Y-814122D01*
X-3123350Y-792809D01*
X-3200077Y-771318D01*
X-3317477Y-731002D01*
X-3434699Y-690685D01*
X-3547481Y-643086D01*
X-3660263Y-595487D01*
X-3787964Y-530305D01*
X-3915665Y-465123D01*
X-4004470Y-413084D01*
X-4093274Y-361045D01*
X-4210674Y-284851D01*
X-4327897Y-208658D01*
X-4436238Y-131221D01*
X-4544402Y-53784D01*
X-4671393Y45854D01*
X-4798384Y145314D01*
X-4855396Y195044D01*
X-4912409Y244597D01*
X-5015778Y357378D01*
X-5119324Y470158D01*
X-5207418Y582939D01*
X-5295513Y695720D01*
X-5414511Y858231D01*
X-5533687Y1020564D01*
X-5594784Y1110789D01*
X-5655882Y1201013D01*
X-5705968Y1286798D01*
X-5756231Y1372405D01*
X-5814842Y1489803D01*
X-5873454Y1607024D01*
X-5913593Y1701689D01*
X-5953911Y1796531D01*
X-5995294Y1913752D01*
X-6036854Y2031151D01*
X-6068646Y2143044D01*
X-6100616Y2254937D01*
X-6123350Y2356350D01*
X-6146084Y2457764D01*
X-6163667Y2572499D01*
X-6181251Y2687411D01*
X-6191197Y2814933D01*
X-6201143Y2942278D01*
X-6198301Y3208155D01*
X-6195637Y3473856D01*
X-6128145Y3494991D01*
X-6060476Y3516127D01*
X-5925138Y3542413D01*
X-5789622Y3568521D01*
X-5691049Y3578112D01*
X-5592475Y3587525D01*
X-5411314Y3587347D01*
X-5230152Y3587347D01*
X-5121988Y3578112D01*
X-5013646Y3569054D01*
X-4914363Y3555378D01*
X-4815079Y3541525D01*
X-4670860Y3514351D01*
X-4526464Y3487177D01*
X-4363951Y3446149D01*
X-4201616Y3405122D01*
X-4003049Y3339585D01*
X-3804659Y3274225D01*
X-3664703Y3219700D01*
X-3524924Y3165352D01*
X-3371470Y3095907D01*
X-3218193Y3026464D01*
X-3123350Y2978865D01*
X-3028684Y2931444D01*
X-2995293Y2912440D01*
X-2961903Y2893613D01*
X-2855515Y2828964D01*
X-2748949Y2764315D01*
X-2667781Y2707836D01*
X-2586614Y2651357D01*
X-2491771Y2576406D01*
X-2397105Y2501633D01*
X-2324995Y2438050D01*
X-2252708Y2374644D01*
X-2175981Y2300937D01*
X-2099431Y2227230D01*
X-2049701Y2182117D01*
X-2000148Y2137005D01*
X-1905304Y2057259D01*
X-1810638Y1977514D01*
X-1756645Y1920146D01*
X-1702652Y1862601D01*
X-1666420Y1814115D01*
X-1630187Y1765628D01*
X-1534101Y1614129D01*
X-1438192Y1462629D01*
X-1389171Y1377022D01*
X-1340151Y1291238D01*
X-1287756Y1182897D01*
X-1235362Y1074734D01*
X-1186874Y950587D01*
X-1138564Y826617D01*
X-1106240Y720585D01*
X-1073915Y614553D01*
X-1048161Y506213D01*
X-1022230Y398050D01*
X-999319Y267153D01*
X-976407Y136434D01*
X-958469Y-12579D01*
X-940708Y-161414D01*
X-926499Y-337246D01*
X-912113Y-513255D01*
X-893996Y-623904D01*
X-875703Y-734376D01*
X-857586Y-790678D01*
X-839470Y-847157D01*
X-800041Y-928324D01*
X-760434Y-1009490D01*
X-702178Y-1086217D01*
X-644100Y-1162943D01*
X-568616Y-1235052D01*
X-493310Y-1307160D01*
X-348913Y-1417988D01*
X-204518Y-1528815D01*
X-148748Y-1556521D01*
X-92801Y-1584406D01*
X-22290Y-1581209D01*
X48043Y-1577834D01*
X160825Y-1522066D01*
X273607Y-1466297D01*
X349446Y-1411594D01*
X425463Y-1356891D01*
X486738Y-1302365D01*
X548013Y-1247840D01*
X603783Y-1192248D01*
X659374Y-1136480D01*
X718163Y-1064016D01*
X776952Y-991374D01*
X798620Y-943065D01*
X820111Y-894756D01*
X841424Y-821226D01*
X862560Y-747874D01*
X876768Y-657650D01*
X890977Y-567425D01*
X909626Y-364420D01*
X928097Y-161414D01*
X946391Y-36201D01*
X964507Y89012D01*
X987064Y202859D01*
X1009620Y316883D01*
X1049938Y472290D01*
X1090255Y627696D01*
X1131815Y752021D01*
X1173554Y876169D01*
X1222751Y998008D01*
X1271949Y1119847D01*
X1339618Y1257670D01*
X1407465Y1395494D01*
X1483304Y1521595D01*
X1559144Y1647696D01*
X1601592Y1708616D01*
X1643863Y1769358D01*
X1711533Y1859582D01*
X1779202Y1949807D01*
X1847049Y2031151D01*
X1914718Y2112318D01*
X2059647Y2256890D01*
X2204399Y2401463D01*
X2272068Y2456344D01*
X2339737Y2511224D01*
X2436179Y2583866D01*
X2532443Y2656685D01*
X2648245Y2732523D01*
X2763868Y2808539D01*
X2854094Y2862710D01*
X2944319Y2916880D01*
X3057101Y2980819D01*
X3169883Y3044757D01*
X3258510Y3086139D01*
X3347138Y3127521D01*
X3461518Y3171568D01*
X3575898Y3215615D01*
X3688680Y3252380D01*
X3801462Y3289144D01*
X3898615Y3316141D01*
X3995767Y3343137D01*
X4255077Y3401392D01*
X4514209Y3459825D01*
X4649547Y3487354D01*
X4784886Y3514706D01*
X4947221Y3528026D01*
X5109733Y3541347D01*
X5351637Y3552181D01*
X5593719Y3563015D01*
X5730656Y3557332D01*
X5867593Y3551826D01*
X5953378Y3534243D01*
X6038986Y3516660D01*
X6106655Y3495347D01*
X6174324Y3473856D01*
X6185691Y3402103D01*
X6197058Y3330349D01*
X6202741Y3135514D01*
X6208425Y2940679D01*
X6197413Y2819729D01*
X6186401Y2698778D01*
X6164555Y2570368D01*
X6142710Y2441780D01*
X6106477Y2299694D01*
X6070245Y2157430D01*
X6024599Y2022093D01*
X5978776Y1886756D01*
X5929401Y1765983D01*
X5880025Y1645210D01*
X5825322Y1531541D01*
X5770795Y1417872D01*
X5705080Y1300296D01*
X5639364Y1182897D01*
X5592120Y1106171D01*
X5544699Y1029622D01*
X5443994Y894285D01*
X5343112Y758948D01*
X5250045Y646167D01*
X5156800Y533387D01*
X4984341Y361462D01*
X4811882Y189716D01*
X4703718Y103754D01*
X4595376Y17614D01*
X4487212Y-56981D01*
X4378871Y-131754D01*
X4315642Y-196403D01*
X4252590Y-261052D01*
X4180303Y-314512D01*
X4108194Y-367794D01*
X4022408Y-421432D01*
X3936801Y-475069D01*
X3833077Y-527108D01*
X3729175Y-579147D01*
X3643568Y-615201D01*
X3557782Y-651256D01*
X3395447Y-705604D01*
X3232935Y-759952D01*
X3124771Y-787126D01*
X3016429Y-814299D01*
X2872032Y-841829D01*
X2727814Y-869358D01*
X2623912Y-882501D01*
X2520188Y-895644D01*
X2344355Y-909852D01*
X2168344Y-923883D01*
X2061245Y-933474D01*
X1954147Y-943065D01*
X1888254Y-959938D01*
X1822361Y-976810D01*
X1787194Y-994749D01*
X1752028Y-1012687D01*
X1705849Y-1049274D01*
X1659493Y-1085861D01*
X1611006Y-1151399D01*
X1562696Y-1216936D01*
X1496803Y-1315330D01*
X1430732Y-1413547D01*
X1198774Y-1649233D01*
X966639Y-1884740D01*
X890267Y-1970347D01*
X813895Y-2056131D01*
X700935Y-2187383D01*
X588153Y-2318635D01*
X551921Y-2367833D01*
X515866Y-2417030D01*
X492244Y-2457525D01*
X468800Y-2498197D01*
X445355Y-2568529D01*
X421733Y-2638684D01*
X420845Y-2694808D01*
X420135Y-2750755D01*
X440382Y-2823041D01*
X460630Y-2895150D01*
X491356Y-2957490D01*
X522082Y-3019830D01*
X562222Y-3075954D01*
X602362Y-3132256D01*
X649961Y-3184472D01*
X697738Y-3236689D01*
X751731Y-3261021D01*
X805902Y-3285353D01*
X855633Y-3299384D01*
X905186Y-3313415D01*
X981380Y-3324427D01*
X1057752Y-3335439D01*
X1179948Y-3330110D01*
X1302143Y-3324605D01*
X1401427Y-3305423D01*
X1500710Y-3286241D01*
X1663045Y-3245924D01*
X1825558Y-3205430D01*
X1951838Y-3169198D01*
X2078118Y-3132966D01*
X2195341Y-3093537D01*
X2312740Y-3054108D01*
X2393908Y-3025691D01*
X2475075Y-2997451D01*
X2592475Y-2952162D01*
X2709697Y-2907049D01*
X2804363Y-2866199D01*
X2899207Y-2825350D01*
X3106654Y-2724469D01*
X3314280Y-2623410D01*
X3445000Y-2547749D01*
X3575898Y-2472088D01*
X3670564Y-2411879D01*
X3765408Y-2351493D01*
X3873572Y-2277253D01*
X3981914Y-2202835D01*
X4040525Y-2157190D01*
X4099136Y-2111367D01*
X4162365Y-2061282D01*
X4225416Y-2011197D01*
X4329318Y-1919906D01*
X4433041Y-1828439D01*
X4554881Y-1702870D01*
X4676544Y-1577302D01*
X4748831Y-1487965D01*
X4820940Y-1398628D01*
X4942070Y-1271994D01*
X5063200Y-1145360D01*
X5160885Y-1033645D01*
X5258570Y-921930D01*
X5351815Y-798848D01*
X5445060Y-675588D01*
X5522142Y-562807D01*
X5599225Y-450026D01*
X5682879Y-310249D01*
X5766710Y-170472D01*
X5844681Y-17019D01*
X5922829Y136434D01*
X5975046Y253122D01*
X6027263Y369810D01*
X6079836Y501595D01*
X6132408Y633202D01*
X6191197Y808856D01*
X6250163Y984510D01*
X6290481Y1133345D01*
X6330620Y1282180D01*
X6362590Y1422135D01*
X6394560Y1561912D01*
X6417471Y1681087D01*
X6440383Y1800084D01*
X6467024Y1987815D01*
X6493843Y2175368D01*
X6507519Y2315323D01*
X6521195Y2455100D01*
X6531496Y2603935D01*
X6541798Y2752948D01*
X6542153Y3005506D01*
X6542508Y3258241D01*
X6531852Y3407076D01*
X6521018Y3555911D01*
X6507519Y3677750D01*
X6493843Y3799588D01*
X6475550Y3925867D01*
X6457256Y4052146D01*
X6422444Y4228333D01*
X6387633Y4404697D01*
X6354953Y4535061D01*
X6322273Y4665603D01*
X6276982Y4819056D01*
X6231514Y4972509D01*
X6173614Y5132000D01*
X6115713Y5291669D01*
X6053372Y5438906D01*
X5990853Y5585965D01*
X5943609Y5685248D01*
X5896365Y5784530D01*
X5824078Y5919867D01*
X5751614Y6055204D01*
X5688562Y6158927D01*
X5625511Y6262650D01*
X5553579Y6370990D01*
X5481647Y6479153D01*
X5391244Y6600992D01*
X5300663Y6722831D01*
X5215588Y6824423D01*
X5130514Y6926192D01*
X5026079Y7036486D01*
X4921822Y7146780D01*
X4766592Y7318349D01*
X4611361Y7489740D01*
X4463590Y7634135D01*
X4315642Y7778530D01*
X4176573Y7894330D01*
X4037328Y8010131D01*
X3951010Y8075312D01*
X3864514Y8140494D01*
X3738233Y8226989D01*
X3611953Y8313307D01*
X3521728Y8369608D01*
X3431502Y8426087D01*
X3291723Y8506544D01*
X3151767Y8587000D01*
X2984814Y8670831D01*
X2818039Y8754484D01*
X2687141Y8813627D01*
X2556243Y8872770D01*
X2416464Y8928184D01*
X2276686Y8983775D01*
X2199958Y9015922D01*
X2123231Y9047891D01*
X2035847Y9078262D01*
X1948286Y9108456D01*
X1814724Y9143977D01*
X1681161Y9179499D01*
X1505150Y9220881D01*
X1329317Y9262264D01*
X1193979Y9289082D01*
X1058640Y9315901D01*
X977295Y9329399D01*
X896128Y9342898D01*
X814960Y9353021D01*
X733793Y9362967D01*
X598454Y9376465D01*
X463116Y9389964D01*
X120152Y9392983D01*
X-222633Y9395825D01*
X-267746Y9392628D01*
X-312858Y9389253D01*
X-457255Y9379485D01*
X-601651Y9369716D01*
X-744627Y9351956D01*
X-887780Y9334372D01*
X-1069474Y9303469D01*
X-1251169Y9272565D01*
X-1409064Y9240063D01*
X-1566958Y9207738D01*
X-1759487Y9158363D01*
X-1952016Y9108988D01*
X-2111331Y9056061D01*
X-2270824Y9003312D01*
X-2361050Y8967258D01*
X-2451276Y8931026D01*
X-2568498Y8879342D01*
X-2685898Y8827480D01*
X-2852673Y8745781D01*
X-3019626Y8663904D01*
X-3200077Y8560714D01*
X-3380528Y8457524D01*
X-3497928Y8380797D01*
X-3615150Y8304071D01*
X-3718874Y8230897D01*
X-3822598Y8157722D01*
X-3917441Y8085791D01*
X-4012107Y8014038D01*
X-4115831Y7930740D01*
X-4219732Y7847442D01*
X-4270529Y7803928D01*
X-4321503Y7760414D01*
X-4401427Y7693101D01*
X-4481351Y7625965D01*
X-4562519Y7554212D01*
X-4643686Y7482281D01*
X-4729471Y7399693D01*
X-4815079Y7317106D01*
X-4909923Y7218356D01*
X-5004588Y7119606D01*
X-5113641Y6988887D01*
X-5222693Y6858168D01*
X-5306702Y6745387D01*
X-5390711Y6632606D01*
X-5460156Y6528884D01*
X-5529602Y6424983D01*
X-5588035Y6330318D01*
X-5646291Y6235654D01*
X-5691937Y6154309D01*
X-5737405Y6073143D01*
X-5789977Y5973860D01*
X-5842372Y5874755D01*
X-5912705Y5739951D01*
X-5983039Y5605147D01*
X-6038097Y5484374D01*
X-6093156Y5363423D01*
X-6131698Y5267160D01*
X-6170416Y5170896D01*
X-6220680Y5026501D01*
X-6270943Y4882284D01*
X-6298295Y4792059D01*
X-6325647Y4701835D01*
X-6362235Y4557617D01*
X-6398645Y4413578D01*
X-6429904Y4255507D01*
X-6460985Y4097259D01*
X-6483542Y3939366D01*
X-6505921Y3781472D01*
X-6519952Y3641695D01*
X-6533805Y3501741D01*
X-6543396Y3357346D01*
X-6552809Y3213128D01*
X-6552809Y2888285D01*
X-8505662Y2888285D01*
X-8508626Y3213128D01*
X-8508999Y3253978D01*
X-8500474Y3459115D01*
X-8491949Y3664251D01*
X-8482358Y3781472D01*
X-8472945Y3898693D01*
X-8455184Y4043088D01*
X-8437423Y4187483D01*
X-8406341Y4367933D01*
X-8375260Y4548382D01*
X-8342757Y4706275D01*
X-8310255Y4864168D01*
X-8260879Y5056872D01*
X-8211326Y5249576D01*
X-8167101Y5395215D01*
X-8123054Y5540853D01*
X-8062667Y5716862D01*
X-8002280Y5892693D01*
X-7928039Y6077760D01*
X-7853621Y6262650D01*
X-7801936Y6379871D01*
X-7750252Y6497269D01*
X-7639069Y6722831D01*
X-7528063Y6948393D01*
X-7451868Y7092788D01*
X-7375851Y7237005D01*
X-7300723Y7363461D01*
X-7225594Y7489740D01*
X-7135368Y7625077D01*
X-7044965Y7760414D01*
X-6957937Y7882253D01*
X-6870908Y8003914D01*
X-6732905Y8193244D01*
X-6594903Y8382574D01*
X-6554230Y8430172D01*
X-6513735Y8477594D01*
X-6467379Y8477771D01*
X-6421201Y8477771D01*
X-6403973Y8519331D01*
X-6386922Y8560892D01*
X-6333107Y8643301D01*
X-6279469Y8725711D01*
X-6056569Y8946833D01*
X-5833491Y9167954D01*
X-5698863Y9289793D01*
X-5564058Y9411632D01*
X-5473832Y9488536D01*
X-5383607Y9565617D01*
X-5177225Y9730437D01*
X-4971020Y9895257D01*
X-4852555Y9974470D01*
X-4733912Y10053683D01*
X-4562519Y10155985D01*
X-4391125Y10258287D01*
X-4215115Y10363608D01*
X-4039281Y10469107D01*
X-3944438Y10523100D01*
X-3849772Y10577092D01*
X-3750488Y10628776D01*
X-3651205Y10680638D01*
X-3524924Y10739603D01*
X-3398644Y10798747D01*
X-3266325Y10855581D01*
X-3133829Y10912415D01*
X-2987301Y10967829D01*
X-2840595Y11023420D01*
X-2695489Y11072973D01*
X-2550559Y11122525D01*
X-2378989Y11171722D01*
X-2207595Y11221097D01*
X-2009206Y11269939D01*
X-1810638Y11318782D01*
X-1715973Y11337608D01*
X-1621129Y11356434D01*
X-1440678Y11387516D01*
X-1260227Y11418775D01*
X-1160943Y11432273D01*
X-1061837Y11445949D01*
X-894884Y11463532D01*
X-727932Y11480937D01*
X-570037Y11490883D01*
X-412142Y11500652D01*
X-357971Y11503316D01*
X-303800Y11505802D01*
X-24067Y11507401D01*
X255491Y11508999D01*
X408945Y11500119D01*
G37*
D11*
X13800000Y27600000D02*
X14200000Y28000000D01*
X13800000Y27600000D02*
X14600000Y27600000D01*
X14200000Y28000000D02*
X14600000Y27600000D01*
X14200000Y-22000000D02*
X13800000Y-21600000D01*
X14200000Y-22000000D02*
X14600000Y-21600000D01*
X14600000Y-21600000D02*
X13800000Y-21600000D01*
D12*
X-16275143Y22202000D02*
X-15741809Y22365334D01*
X-15741809Y22365334D02*
X-16275143Y22528667D01*
X-15741809Y23149334D02*
X-15741809Y22757334D01*
X-15741809Y22953334D02*
X-16541809Y22953334D01*
X-16541809Y22953334D02*
X-16427524Y22888001D01*
X-16427524Y22888001D02*
X-16351333Y22822667D01*
X-16351333Y22822667D02*
X-16313238Y22757334D01*
X-15818000Y23443334D02*
X-15779904Y23476000D01*
X-15779904Y23476000D02*
X-15741809Y23443334D01*
X-15741809Y23443334D02*
X-15779904Y23410667D01*
X-15779904Y23410667D02*
X-15818000Y23443334D01*
X-15818000Y23443334D02*
X-15741809Y23443334D01*
X-16541809Y23704667D02*
X-16541809Y24129334D01*
X-16541809Y24129334D02*
X-16237047Y23900667D01*
X-16237047Y23900667D02*
X-16237047Y23998667D01*
X-16237047Y23998667D02*
X-16198952Y24064001D01*
X-16198952Y24064001D02*
X-16160857Y24096667D01*
X-16160857Y24096667D02*
X-16084666Y24129334D01*
X-16084666Y24129334D02*
X-15894190Y24129334D01*
X-15894190Y24129334D02*
X-15818000Y24096667D01*
X-15818000Y24096667D02*
X-15779904Y24064001D01*
X-15779904Y24064001D02*
X-15741809Y23998667D01*
X-15741809Y23998667D02*
X-15741809Y23802667D01*
X-15741809Y23802667D02*
X-15779904Y23737334D01*
X-15779904Y23737334D02*
X-15818000Y23704667D01*
X18534953Y13285715D02*
X18487334Y13321429D01*
X18487334Y13321429D02*
X18439715Y13392857D01*
X18439715Y13392857D02*
X18439715Y13571429D01*
X18439715Y13571429D02*
X18487334Y13642857D01*
X18487334Y13642857D02*
X18534953Y13678572D01*
X18534953Y13678572D02*
X18630191Y13714286D01*
X18630191Y13714286D02*
X18725429Y13714286D01*
X18725429Y13714286D02*
X18868286Y13678572D01*
X18868286Y13678572D02*
X19439715Y13250000D01*
X19439715Y13250000D02*
X19439715Y13714286D01*
X19439715Y-7285714D02*
X19439715Y-7714285D01*
X19439715Y-7500000D02*
X18439715Y-7500000D01*
X18439715Y-7500000D02*
X18582572Y-7571428D01*
X18582572Y-7571428D02*
X18677810Y-7642857D01*
X18677810Y-7642857D02*
X18725429Y-7714285D01*
X-19096952Y13642857D02*
X-18430285Y13642857D01*
X-19477904Y13464286D02*
X-18763619Y13285715D01*
X-18763619Y13285715D02*
X-18763619Y13750000D01*
X-19430285Y-7750000D02*
X-19430285Y-7285714D01*
X-19430285Y-7285714D02*
X-19049333Y-7535714D01*
X-19049333Y-7535714D02*
X-19049333Y-7428571D01*
X-19049333Y-7428571D02*
X-19001714Y-7357143D01*
X-19001714Y-7357143D02*
X-18954095Y-7321428D01*
X-18954095Y-7321428D02*
X-18858857Y-7285714D01*
X-18858857Y-7285714D02*
X-18620762Y-7285714D01*
X-18620762Y-7285714D02*
X-18525524Y-7321428D01*
X-18525524Y-7321428D02*
X-18477904Y-7357143D01*
X-18477904Y-7357143D02*
X-18430285Y-7428571D01*
X-18430285Y-7428571D02*
X-18430285Y-7642857D01*
X-18430285Y-7642857D02*
X-18477904Y-7714285D01*
X-18477904Y-7714285D02*
X-18525524Y-7750000D01*
D11*
X-5595239Y14357581D02*
X-5595239Y15024248D01*
X-5595239Y14929010D02*
X-5547620Y14976629D01*
X-5547620Y14976629D02*
X-5452382Y15024248D01*
X-5452382Y15024248D02*
X-5309525Y15024248D01*
X-5309525Y15024248D02*
X-5214287Y14976629D01*
X-5214287Y14976629D02*
X-5166668Y14881391D01*
X-5166668Y14881391D02*
X-5166668Y14357581D01*
X-5166668Y14881391D02*
X-5119049Y14976629D01*
X-5119049Y14976629D02*
X-5023811Y15024248D01*
X-5023811Y15024248D02*
X-4880954Y15024248D01*
X-4880954Y15024248D02*
X-4785715Y14976629D01*
X-4785715Y14976629D02*
X-4738096Y14881391D01*
X-4738096Y14881391D02*
X-4738096Y14357581D01*
X-4119049Y14357581D02*
X-4214287Y14405200D01*
X-4214287Y14405200D02*
X-4261906Y14452820D01*
X-4261906Y14452820D02*
X-4309525Y14548058D01*
X-4309525Y14548058D02*
X-4309525Y14833772D01*
X-4309525Y14833772D02*
X-4261906Y14929010D01*
X-4261906Y14929010D02*
X-4214287Y14976629D01*
X-4214287Y14976629D02*
X-4119049Y15024248D01*
X-4119049Y15024248D02*
X-3976192Y15024248D01*
X-3976192Y15024248D02*
X-3880954Y14976629D01*
X-3880954Y14976629D02*
X-3833335Y14929010D01*
X-3833335Y14929010D02*
X-3785716Y14833772D01*
X-3785716Y14833772D02*
X-3785716Y14548058D01*
X-3785716Y14548058D02*
X-3833335Y14452820D01*
X-3833335Y14452820D02*
X-3880954Y14405200D01*
X-3880954Y14405200D02*
X-3976192Y14357581D01*
X-3976192Y14357581D02*
X-4119049Y14357581D01*
X-2928573Y15024248D02*
X-2928573Y14357581D01*
X-3357144Y15024248D02*
X-3357144Y14500439D01*
X-3357144Y14500439D02*
X-3309525Y14405200D01*
X-3309525Y14405200D02*
X-3214287Y14357581D01*
X-3214287Y14357581D02*
X-3071430Y14357581D01*
X-3071430Y14357581D02*
X-2976192Y14405200D01*
X-2976192Y14405200D02*
X-2928573Y14452820D01*
X-2452382Y15024248D02*
X-2452382Y14357581D01*
X-2452382Y14929010D02*
X-2404763Y14976629D01*
X-2404763Y14976629D02*
X-2309525Y15024248D01*
X-2309525Y15024248D02*
X-2166668Y15024248D01*
X-2166668Y15024248D02*
X-2071430Y14976629D01*
X-2071430Y14976629D02*
X-2023811Y14881391D01*
X-2023811Y14881391D02*
X-2023811Y14357581D01*
X-1690477Y15024248D02*
X-1309525Y15024248D01*
X-1547620Y15357581D02*
X-1547620Y14500439D01*
X-1547620Y14500439D02*
X-1500001Y14405200D01*
X-1500001Y14405200D02*
X-1404763Y14357581D01*
X-1404763Y14357581D02*
X-1309525Y14357581D01*
X-976191Y14357581D02*
X-976191Y15024248D01*
X-976191Y15357581D02*
X-1023810Y15309962D01*
X-1023810Y15309962D02*
X-976191Y15262343D01*
X-976191Y15262343D02*
X-928572Y15309962D01*
X-928572Y15309962D02*
X-976191Y15357581D01*
X-976191Y15357581D02*
X-976191Y15262343D01*
X-500001Y15024248D02*
X-500001Y14357581D01*
X-500001Y14929010D02*
X-452382Y14976629D01*
X-452382Y14976629D02*
X-357144Y15024248D01*
X-357144Y15024248D02*
X-214287Y15024248D01*
X-214287Y15024248D02*
X-119049Y14976629D01*
X-119049Y14976629D02*
X-71430Y14881391D01*
X-71430Y14881391D02*
X-71430Y14357581D01*
X833332Y15024248D02*
X833332Y14214724D01*
X833332Y14214724D02*
X785713Y14119486D01*
X785713Y14119486D02*
X738094Y14071867D01*
X738094Y14071867D02*
X642856Y14024248D01*
X642856Y14024248D02*
X499999Y14024248D01*
X499999Y14024248D02*
X404761Y14071867D01*
X833332Y14405200D02*
X738094Y14357581D01*
X738094Y14357581D02*
X547618Y14357581D01*
X547618Y14357581D02*
X452380Y14405200D01*
X452380Y14405200D02*
X404761Y14452820D01*
X404761Y14452820D02*
X357142Y14548058D01*
X357142Y14548058D02*
X357142Y14833772D01*
X357142Y14833772D02*
X404761Y14929010D01*
X404761Y14929010D02*
X452380Y14976629D01*
X452380Y14976629D02*
X547618Y15024248D01*
X547618Y15024248D02*
X738094Y15024248D01*
X738094Y15024248D02*
X833332Y14976629D01*
X2071428Y14357581D02*
X2071428Y15357581D01*
X2499999Y14357581D02*
X2499999Y14881391D01*
X2499999Y14881391D02*
X2452380Y14976629D01*
X2452380Y14976629D02*
X2357142Y15024248D01*
X2357142Y15024248D02*
X2214285Y15024248D01*
X2214285Y15024248D02*
X2119047Y14976629D01*
X2119047Y14976629D02*
X2071428Y14929010D01*
X3119047Y14357581D02*
X3023809Y14405200D01*
X3023809Y14405200D02*
X2976190Y14452820D01*
X2976190Y14452820D02*
X2928571Y14548058D01*
X2928571Y14548058D02*
X2928571Y14833772D01*
X2928571Y14833772D02*
X2976190Y14929010D01*
X2976190Y14929010D02*
X3023809Y14976629D01*
X3023809Y14976629D02*
X3119047Y15024248D01*
X3119047Y15024248D02*
X3261904Y15024248D01*
X3261904Y15024248D02*
X3357142Y14976629D01*
X3357142Y14976629D02*
X3404761Y14929010D01*
X3404761Y14929010D02*
X3452380Y14833772D01*
X3452380Y14833772D02*
X3452380Y14548058D01*
X3452380Y14548058D02*
X3404761Y14452820D01*
X3404761Y14452820D02*
X3357142Y14405200D01*
X3357142Y14405200D02*
X3261904Y14357581D01*
X3261904Y14357581D02*
X3119047Y14357581D01*
X4023809Y14357581D02*
X3928571Y14405200D01*
X3928571Y14405200D02*
X3880952Y14500439D01*
X3880952Y14500439D02*
X3880952Y15357581D01*
X4785714Y14405200D02*
X4690476Y14357581D01*
X4690476Y14357581D02*
X4500000Y14357581D01*
X4500000Y14357581D02*
X4404762Y14405200D01*
X4404762Y14405200D02*
X4357143Y14500439D01*
X4357143Y14500439D02*
X4357143Y14881391D01*
X4357143Y14881391D02*
X4404762Y14976629D01*
X4404762Y14976629D02*
X4500000Y15024248D01*
X4500000Y15024248D02*
X4690476Y15024248D01*
X4690476Y15024248D02*
X4785714Y14976629D01*
X4785714Y14976629D02*
X4833333Y14881391D01*
X4833333Y14881391D02*
X4833333Y14786153D01*
X4833333Y14786153D02*
X4357143Y14690915D01*
X5214286Y14405200D02*
X5309524Y14357581D01*
X5309524Y14357581D02*
X5500000Y14357581D01*
X5500000Y14357581D02*
X5595238Y14405200D01*
X5595238Y14405200D02*
X5642857Y14500439D01*
X5642857Y14500439D02*
X5642857Y14548058D01*
X5642857Y14548058D02*
X5595238Y14643296D01*
X5595238Y14643296D02*
X5500000Y14690915D01*
X5500000Y14690915D02*
X5357143Y14690915D01*
X5357143Y14690915D02*
X5261905Y14738534D01*
X5261905Y14738534D02*
X5214286Y14833772D01*
X5214286Y14833772D02*
X5214286Y14881391D01*
X5214286Y14881391D02*
X5261905Y14976629D01*
X5261905Y14976629D02*
X5357143Y15024248D01*
X5357143Y15024248D02*
X5500000Y15024248D01*
X5500000Y15024248D02*
X5595238Y14976629D01*
X-2357144Y13747637D02*
X-2833334Y13747637D01*
X-2833334Y13747637D02*
X-2880953Y13271447D01*
X-2880953Y13271447D02*
X-2833334Y13319066D01*
X-2833334Y13319066D02*
X-2738096Y13366685D01*
X-2738096Y13366685D02*
X-2500001Y13366685D01*
X-2500001Y13366685D02*
X-2404763Y13319066D01*
X-2404763Y13319066D02*
X-2357144Y13271447D01*
X-2357144Y13271447D02*
X-2309525Y13176209D01*
X-2309525Y13176209D02*
X-2309525Y12938114D01*
X-2309525Y12938114D02*
X-2357144Y12842876D01*
X-2357144Y12842876D02*
X-2404763Y12795256D01*
X-2404763Y12795256D02*
X-2500001Y12747637D01*
X-2500001Y12747637D02*
X-2738096Y12747637D01*
X-2738096Y12747637D02*
X-2833334Y12795256D01*
X-2833334Y12795256D02*
X-2880953Y12842876D01*
X-1690477Y13747637D02*
X-1595239Y13747637D01*
X-1595239Y13747637D02*
X-1500001Y13700018D01*
X-1500001Y13700018D02*
X-1452382Y13652399D01*
X-1452382Y13652399D02*
X-1404763Y13557161D01*
X-1404763Y13557161D02*
X-1357144Y13366685D01*
X-1357144Y13366685D02*
X-1357144Y13128590D01*
X-1357144Y13128590D02*
X-1404763Y12938114D01*
X-1404763Y12938114D02*
X-1452382Y12842876D01*
X-1452382Y12842876D02*
X-1500001Y12795256D01*
X-1500001Y12795256D02*
X-1595239Y12747637D01*
X-1595239Y12747637D02*
X-1690477Y12747637D01*
X-1690477Y12747637D02*
X-1785715Y12795256D01*
X-1785715Y12795256D02*
X-1833334Y12842876D01*
X-1833334Y12842876D02*
X-1880953Y12938114D01*
X-1880953Y12938114D02*
X-1928572Y13128590D01*
X-1928572Y13128590D02*
X-1928572Y13366685D01*
X-1928572Y13366685D02*
X-1880953Y13557161D01*
X-1880953Y13557161D02*
X-1833334Y13652399D01*
X-1833334Y13652399D02*
X-1785715Y13700018D01*
X-1785715Y13700018D02*
X-1690477Y13747637D01*
X-261905Y12747637D02*
X261904Y13414304D01*
X-261905Y13414304D02*
X261904Y12747637D01*
X1309524Y13747637D02*
X1928571Y13747637D01*
X1928571Y13747637D02*
X1595238Y13366685D01*
X1595238Y13366685D02*
X1738095Y13366685D01*
X1738095Y13366685D02*
X1833333Y13319066D01*
X1833333Y13319066D02*
X1880952Y13271447D01*
X1880952Y13271447D02*
X1928571Y13176209D01*
X1928571Y13176209D02*
X1928571Y12938114D01*
X1928571Y12938114D02*
X1880952Y12842876D01*
X1880952Y12842876D02*
X1833333Y12795256D01*
X1833333Y12795256D02*
X1738095Y12747637D01*
X1738095Y12747637D02*
X1452381Y12747637D01*
X1452381Y12747637D02*
X1357143Y12795256D01*
X1357143Y12795256D02*
X1309524Y12842876D01*
X2785714Y13414304D02*
X2785714Y12747637D01*
X2547619Y13795256D02*
X2309524Y13080971D01*
X2309524Y13080971D02*
X2928571Y13080971D01*
X13695808Y-14838972D02*
X13695808Y-14458020D01*
X14362475Y-14696115D02*
X13505332Y-14696115D01*
X13505332Y-14696115D02*
X13410094Y-14648496D01*
X13410094Y-14648496D02*
X13362475Y-14553258D01*
X13362475Y-14553258D02*
X13362475Y-14458020D01*
X14362475Y-14124686D02*
X13695808Y-14124686D01*
X13362475Y-14124686D02*
X13410094Y-14172305D01*
X13410094Y-14172305D02*
X13457713Y-14124686D01*
X13457713Y-14124686D02*
X13410094Y-14077067D01*
X13410094Y-14077067D02*
X13362475Y-14124686D01*
X13362475Y-14124686D02*
X13457713Y-14124686D01*
X14362475Y-13648496D02*
X13695808Y-13648496D01*
X13886284Y-13648496D02*
X13791046Y-13600877D01*
X13791046Y-13600877D02*
X13743427Y-13553258D01*
X13743427Y-13553258D02*
X13695808Y-13458020D01*
X13695808Y-13458020D02*
X13695808Y-13362782D01*
X14362475Y-13029448D02*
X13695808Y-13029448D01*
X13791046Y-13029448D02*
X13743427Y-12981829D01*
X13743427Y-12981829D02*
X13695808Y-12886591D01*
X13695808Y-12886591D02*
X13695808Y-12743734D01*
X13695808Y-12743734D02*
X13743427Y-12648496D01*
X13743427Y-12648496D02*
X13838665Y-12600877D01*
X13838665Y-12600877D02*
X14362475Y-12600877D01*
X13838665Y-12600877D02*
X13743427Y-12553258D01*
X13743427Y-12553258D02*
X13695808Y-12458020D01*
X13695808Y-12458020D02*
X13695808Y-12315163D01*
X13695808Y-12315163D02*
X13743427Y-12219924D01*
X13743427Y-12219924D02*
X13838665Y-12172305D01*
X13838665Y-12172305D02*
X14362475Y-12172305D01*
X13695808Y-11791353D02*
X14362475Y-11600877D01*
X14362475Y-11600877D02*
X13886284Y-11410401D01*
X13886284Y-11410401D02*
X14362475Y-11219925D01*
X14362475Y-11219925D02*
X13695808Y-11029449D01*
X14362475Y-10219925D02*
X13838665Y-10219925D01*
X13838665Y-10219925D02*
X13743427Y-10267544D01*
X13743427Y-10267544D02*
X13695808Y-10362782D01*
X13695808Y-10362782D02*
X13695808Y-10553258D01*
X13695808Y-10553258D02*
X13743427Y-10648496D01*
X14314856Y-10219925D02*
X14362475Y-10315163D01*
X14362475Y-10315163D02*
X14362475Y-10553258D01*
X14362475Y-10553258D02*
X14314856Y-10648496D01*
X14314856Y-10648496D02*
X14219617Y-10696115D01*
X14219617Y-10696115D02*
X14124379Y-10696115D01*
X14124379Y-10696115D02*
X14029141Y-10648496D01*
X14029141Y-10648496D02*
X13981522Y-10553258D01*
X13981522Y-10553258D02*
X13981522Y-10315163D01*
X13981522Y-10315163D02*
X13933903Y-10219925D01*
X14362475Y-9743734D02*
X13695808Y-9743734D01*
X13886284Y-9743734D02*
X13791046Y-9696115D01*
X13791046Y-9696115D02*
X13743427Y-9648496D01*
X13743427Y-9648496D02*
X13695808Y-9553258D01*
X13695808Y-9553258D02*
X13695808Y-9458020D01*
X14314856Y-8743734D02*
X14362475Y-8838972D01*
X14362475Y-8838972D02*
X14362475Y-9029448D01*
X14362475Y-9029448D02*
X14314856Y-9124686D01*
X14314856Y-9124686D02*
X14219617Y-9172305D01*
X14219617Y-9172305D02*
X13838665Y-9172305D01*
X13838665Y-9172305D02*
X13743427Y-9124686D01*
X13743427Y-9124686D02*
X13695808Y-9029448D01*
X13695808Y-9029448D02*
X13695808Y-8838972D01*
X13695808Y-8838972D02*
X13743427Y-8743734D01*
X13743427Y-8743734D02*
X13838665Y-8696115D01*
X13838665Y-8696115D02*
X13933903Y-8696115D01*
X13933903Y-8696115D02*
X14029141Y-9172305D01*
X14267236Y-8267543D02*
X14314856Y-8219924D01*
X14314856Y-8219924D02*
X14362475Y-8267543D01*
X14362475Y-8267543D02*
X14314856Y-8315162D01*
X14314856Y-8315162D02*
X14267236Y-8267543D01*
X14267236Y-8267543D02*
X14362475Y-8267543D01*
X13743427Y-8267543D02*
X13791046Y-8219924D01*
X13791046Y-8219924D02*
X13838665Y-8267543D01*
X13838665Y-8267543D02*
X13791046Y-8315162D01*
X13791046Y-8315162D02*
X13743427Y-8267543D01*
X13743427Y-8267543D02*
X13838665Y-8267543D01*
X14457713Y1732455D02*
X14410094Y1637217D01*
X14410094Y1637217D02*
X14314856Y1541979D01*
X14314856Y1541979D02*
X14171998Y1399122D01*
X14171998Y1399122D02*
X14124379Y1303884D01*
X14124379Y1303884D02*
X14124379Y1208646D01*
X14362475Y1256265D02*
X14314856Y1161027D01*
X14314856Y1161027D02*
X14219617Y1065789D01*
X14219617Y1065789D02*
X14029141Y1018170D01*
X14029141Y1018170D02*
X13695808Y1018170D01*
X13695808Y1018170D02*
X13505332Y1065789D01*
X13505332Y1065789D02*
X13410094Y1161027D01*
X13410094Y1161027D02*
X13362475Y1256265D01*
X13362475Y1256265D02*
X13362475Y1446741D01*
X13362475Y1446741D02*
X13410094Y1541979D01*
X13410094Y1541979D02*
X13505332Y1637217D01*
X13505332Y1637217D02*
X13695808Y1684836D01*
X13695808Y1684836D02*
X14029141Y1684836D01*
X14029141Y1684836D02*
X14219617Y1637217D01*
X14219617Y1637217D02*
X14314856Y1541979D01*
X14314856Y1541979D02*
X14362475Y1446741D01*
X14362475Y1446741D02*
X14362475Y1256265D01*
X13695808Y2541979D02*
X14362475Y2541979D01*
X13695808Y2113408D02*
X14219617Y2113408D01*
X14219617Y2113408D02*
X14314856Y2161027D01*
X14314856Y2161027D02*
X14362475Y2256265D01*
X14362475Y2256265D02*
X14362475Y2399122D01*
X14362475Y2399122D02*
X14314856Y2494360D01*
X14314856Y2494360D02*
X14267236Y2541979D01*
X14314856Y3399122D02*
X14362475Y3303884D01*
X14362475Y3303884D02*
X14362475Y3113408D01*
X14362475Y3113408D02*
X14314856Y3018170D01*
X14314856Y3018170D02*
X14219617Y2970551D01*
X14219617Y2970551D02*
X13838665Y2970551D01*
X13838665Y2970551D02*
X13743427Y3018170D01*
X13743427Y3018170D02*
X13695808Y3113408D01*
X13695808Y3113408D02*
X13695808Y3303884D01*
X13695808Y3303884D02*
X13743427Y3399122D01*
X13743427Y3399122D02*
X13838665Y3446741D01*
X13838665Y3446741D02*
X13933903Y3446741D01*
X13933903Y3446741D02*
X14029141Y2970551D01*
X14314856Y4256265D02*
X14362475Y4161027D01*
X14362475Y4161027D02*
X14362475Y3970551D01*
X14362475Y3970551D02*
X14314856Y3875313D01*
X14314856Y3875313D02*
X14219617Y3827694D01*
X14219617Y3827694D02*
X13838665Y3827694D01*
X13838665Y3827694D02*
X13743427Y3875313D01*
X13743427Y3875313D02*
X13695808Y3970551D01*
X13695808Y3970551D02*
X13695808Y4161027D01*
X13695808Y4161027D02*
X13743427Y4256265D01*
X13743427Y4256265D02*
X13838665Y4303884D01*
X13838665Y4303884D02*
X13933903Y4303884D01*
X13933903Y4303884D02*
X14029141Y3827694D01*
X13695808Y4732456D02*
X14362475Y4732456D01*
X13791046Y4732456D02*
X13743427Y4780075D01*
X13743427Y4780075D02*
X13695808Y4875313D01*
X13695808Y4875313D02*
X13695808Y5018170D01*
X13695808Y5018170D02*
X13743427Y5113408D01*
X13743427Y5113408D02*
X13838665Y5161027D01*
X13838665Y5161027D02*
X14362475Y5161027D01*
X13362475Y6256266D02*
X14362475Y6589599D01*
X14362475Y6589599D02*
X13362475Y6922932D01*
X14362475Y7256266D02*
X13695808Y7256266D01*
X13362475Y7256266D02*
X13410094Y7208647D01*
X13410094Y7208647D02*
X13457713Y7256266D01*
X13457713Y7256266D02*
X13410094Y7303885D01*
X13410094Y7303885D02*
X13362475Y7256266D01*
X13362475Y7256266D02*
X13457713Y7256266D01*
X13695808Y7732456D02*
X14362475Y7732456D01*
X13791046Y7732456D02*
X13743427Y7780075D01*
X13743427Y7780075D02*
X13695808Y7875313D01*
X13695808Y7875313D02*
X13695808Y8018170D01*
X13695808Y8018170D02*
X13743427Y8113408D01*
X13743427Y8113408D02*
X13838665Y8161027D01*
X13838665Y8161027D02*
X14362475Y8161027D01*
X13695808Y8541980D02*
X14362475Y8780075D01*
X13695808Y9018170D02*
X14362475Y8780075D01*
X14362475Y8780075D02*
X14600570Y8684837D01*
X14600570Y8684837D02*
X14648189Y8637218D01*
X14648189Y8637218D02*
X14695808Y8541980D01*
X14362475Y9541980D02*
X14314856Y9446742D01*
X14314856Y9446742D02*
X14219617Y9399123D01*
X14219617Y9399123D02*
X13362475Y9399123D01*
X14362475Y10684838D02*
X13362475Y10684838D01*
X13362475Y10684838D02*
X13362475Y10922933D01*
X13362475Y10922933D02*
X13410094Y11065790D01*
X13410094Y11065790D02*
X13505332Y11161028D01*
X13505332Y11161028D02*
X13600570Y11208647D01*
X13600570Y11208647D02*
X13791046Y11256266D01*
X13791046Y11256266D02*
X13933903Y11256266D01*
X13933903Y11256266D02*
X14124379Y11208647D01*
X14124379Y11208647D02*
X14219617Y11161028D01*
X14219617Y11161028D02*
X14314856Y11065790D01*
X14314856Y11065790D02*
X14362475Y10922933D01*
X14362475Y10922933D02*
X14362475Y10684838D01*
X14362475Y12113409D02*
X13838665Y12113409D01*
X13838665Y12113409D02*
X13743427Y12065790D01*
X13743427Y12065790D02*
X13695808Y11970552D01*
X13695808Y11970552D02*
X13695808Y11780076D01*
X13695808Y11780076D02*
X13743427Y11684838D01*
X14314856Y12113409D02*
X14362475Y12018171D01*
X14362475Y12018171D02*
X14362475Y11780076D01*
X14362475Y11780076D02*
X14314856Y11684838D01*
X14314856Y11684838D02*
X14219617Y11637219D01*
X14219617Y11637219D02*
X14124379Y11637219D01*
X14124379Y11637219D02*
X14029141Y11684838D01*
X14029141Y11684838D02*
X13981522Y11780076D01*
X13981522Y11780076D02*
X13981522Y12018171D01*
X13981522Y12018171D02*
X13933903Y12113409D01*
X14267236Y12589600D02*
X14314856Y12637219D01*
X14314856Y12637219D02*
X14362475Y12589600D01*
X14362475Y12589600D02*
X14314856Y12541981D01*
X14314856Y12541981D02*
X14267236Y12589600D01*
X14267236Y12589600D02*
X14362475Y12589600D01*
X14362475Y13065790D02*
X13695808Y13065790D01*
X13362475Y13065790D02*
X13410094Y13018171D01*
X13410094Y13018171D02*
X13457713Y13065790D01*
X13457713Y13065790D02*
X13410094Y13113409D01*
X13410094Y13113409D02*
X13362475Y13065790D01*
X13362475Y13065790D02*
X13457713Y13065790D01*
X13362475Y13589599D02*
X13552951Y13494361D01*
X13695808Y14446741D02*
X14505332Y14446741D01*
X14505332Y14446741D02*
X14600570Y14399122D01*
X14600570Y14399122D02*
X14648189Y14351503D01*
X14648189Y14351503D02*
X14695808Y14256265D01*
X14695808Y14256265D02*
X14695808Y14113408D01*
X14695808Y14113408D02*
X14648189Y14018170D01*
X14314856Y14446741D02*
X14362475Y14351503D01*
X14362475Y14351503D02*
X14362475Y14161027D01*
X14362475Y14161027D02*
X14314856Y14065789D01*
X14314856Y14065789D02*
X14267236Y14018170D01*
X14267236Y14018170D02*
X14171998Y13970551D01*
X14171998Y13970551D02*
X13886284Y13970551D01*
X13886284Y13970551D02*
X13791046Y14018170D01*
X13791046Y14018170D02*
X13743427Y14065789D01*
X13743427Y14065789D02*
X13695808Y14161027D01*
X13695808Y14161027D02*
X13695808Y14351503D01*
X13695808Y14351503D02*
X13743427Y14446741D01*
X13695808Y14827694D02*
X14362475Y15065789D01*
X13695808Y15303884D02*
X14362475Y15065789D01*
X14362475Y15065789D02*
X14600570Y14970551D01*
X14600570Y14970551D02*
X14648189Y14922932D01*
X14648189Y14922932D02*
X14695808Y14827694D01*
X13695808Y16113408D02*
X14362475Y16113408D01*
X13695808Y15684837D02*
X14219617Y15684837D01*
X14219617Y15684837D02*
X14314856Y15732456D01*
X14314856Y15732456D02*
X14362475Y15827694D01*
X14362475Y15827694D02*
X14362475Y15970551D01*
X14362475Y15970551D02*
X14314856Y16065789D01*
X14314856Y16065789D02*
X14267236Y16113408D01*
X13981522Y16589599D02*
X13981522Y17351503D01*
X14362475Y17827694D02*
X13362475Y17827694D01*
X14362475Y18399122D02*
X13791046Y17970551D01*
X13362475Y18399122D02*
X13933903Y17827694D01*
X14362475Y19256265D02*
X13838665Y19256265D01*
X13838665Y19256265D02*
X13743427Y19208646D01*
X13743427Y19208646D02*
X13695808Y19113408D01*
X13695808Y19113408D02*
X13695808Y18922932D01*
X13695808Y18922932D02*
X13743427Y18827694D01*
X14314856Y19256265D02*
X14362475Y19161027D01*
X14362475Y19161027D02*
X14362475Y18922932D01*
X14362475Y18922932D02*
X14314856Y18827694D01*
X14314856Y18827694D02*
X14219617Y18780075D01*
X14219617Y18780075D02*
X14124379Y18780075D01*
X14124379Y18780075D02*
X14029141Y18827694D01*
X14029141Y18827694D02*
X13981522Y18922932D01*
X13981522Y18922932D02*
X13981522Y19161027D01*
X13981522Y19161027D02*
X13933903Y19256265D01*
X13695808Y19637218D02*
X13695808Y20161027D01*
X13695808Y20161027D02*
X14362475Y19637218D01*
X14362475Y19637218D02*
X14362475Y20161027D01*
X14362475Y20684837D02*
X14314856Y20589599D01*
X14314856Y20589599D02*
X14267236Y20541980D01*
X14267236Y20541980D02*
X14171998Y20494361D01*
X14171998Y20494361D02*
X13886284Y20494361D01*
X13886284Y20494361D02*
X13791046Y20541980D01*
X13791046Y20541980D02*
X13743427Y20589599D01*
X13743427Y20589599D02*
X13695808Y20684837D01*
X13695808Y20684837D02*
X13695808Y20827694D01*
X13695808Y20827694D02*
X13743427Y20922932D01*
X13743427Y20922932D02*
X13791046Y20970551D01*
X13791046Y20970551D02*
X13886284Y21018170D01*
X13886284Y21018170D02*
X14171998Y21018170D01*
X14171998Y21018170D02*
X14267236Y20970551D01*
X14267236Y20970551D02*
X14314856Y20922932D01*
X14314856Y20922932D02*
X14362475Y20827694D01*
X14362475Y20827694D02*
X14362475Y20684837D01*
X13695808Y21303885D02*
X13695808Y21684837D01*
X13362475Y21446742D02*
X14219617Y21446742D01*
X14219617Y21446742D02*
X14314856Y21494361D01*
X14314856Y21494361D02*
X14362475Y21589599D01*
X14362475Y21589599D02*
X14362475Y21684837D01*
X14314856Y22399123D02*
X14362475Y22303885D01*
X14362475Y22303885D02*
X14362475Y22113409D01*
X14362475Y22113409D02*
X14314856Y22018171D01*
X14314856Y22018171D02*
X14219617Y21970552D01*
X14219617Y21970552D02*
X13838665Y21970552D01*
X13838665Y21970552D02*
X13743427Y22018171D01*
X13743427Y22018171D02*
X13695808Y22113409D01*
X13695808Y22113409D02*
X13695808Y22303885D01*
X13695808Y22303885D02*
X13743427Y22399123D01*
X13743427Y22399123D02*
X13838665Y22446742D01*
X13838665Y22446742D02*
X13933903Y22446742D01*
X13933903Y22446742D02*
X14029141Y21970552D01*
X13695808Y22732457D02*
X13695808Y23113409D01*
X13362475Y22875314D02*
X14219617Y22875314D01*
X14219617Y22875314D02*
X14314856Y22922933D01*
X14314856Y22922933D02*
X14362475Y23018171D01*
X14362475Y23018171D02*
X14362475Y23113409D01*
X14314856Y23399124D02*
X14362475Y23494362D01*
X14362475Y23494362D02*
X14362475Y23684838D01*
X14362475Y23684838D02*
X14314856Y23780076D01*
X14314856Y23780076D02*
X14219617Y23827695D01*
X14219617Y23827695D02*
X14171998Y23827695D01*
X14171998Y23827695D02*
X14076760Y23780076D01*
X14076760Y23780076D02*
X14029141Y23684838D01*
X14029141Y23684838D02*
X14029141Y23541981D01*
X14029141Y23541981D02*
X13981522Y23446743D01*
X13981522Y23446743D02*
X13886284Y23399124D01*
X13886284Y23399124D02*
X13838665Y23399124D01*
X13838665Y23399124D02*
X13743427Y23446743D01*
X13743427Y23446743D02*
X13695808Y23541981D01*
X13695808Y23541981D02*
X13695808Y23684838D01*
X13695808Y23684838D02*
X13743427Y23780076D01*
X13695808Y24684838D02*
X14362475Y24684838D01*
X13695808Y24256267D02*
X14219617Y24256267D01*
X14219617Y24256267D02*
X14314856Y24303886D01*
X14314856Y24303886D02*
X14362475Y24399124D01*
X14362475Y24399124D02*
X14362475Y24541981D01*
X14362475Y24541981D02*
X14314856Y24637219D01*
X14314856Y24637219D02*
X14267236Y24684838D01*
X15972419Y-14696115D02*
X14972419Y-14696115D01*
X15353371Y-14696115D02*
X15305752Y-14600877D01*
X15305752Y-14600877D02*
X15305752Y-14410401D01*
X15305752Y-14410401D02*
X15353371Y-14315163D01*
X15353371Y-14315163D02*
X15400990Y-14267544D01*
X15400990Y-14267544D02*
X15496228Y-14219925D01*
X15496228Y-14219925D02*
X15781942Y-14219925D01*
X15781942Y-14219925D02*
X15877180Y-14267544D01*
X15877180Y-14267544D02*
X15924800Y-14315163D01*
X15924800Y-14315163D02*
X15972419Y-14410401D01*
X15972419Y-14410401D02*
X15972419Y-14600877D01*
X15972419Y-14600877D02*
X15924800Y-14696115D01*
X15972419Y-13648496D02*
X15924800Y-13743734D01*
X15924800Y-13743734D02*
X15877180Y-13791353D01*
X15877180Y-13791353D02*
X15781942Y-13838972D01*
X15781942Y-13838972D02*
X15496228Y-13838972D01*
X15496228Y-13838972D02*
X15400990Y-13791353D01*
X15400990Y-13791353D02*
X15353371Y-13743734D01*
X15353371Y-13743734D02*
X15305752Y-13648496D01*
X15305752Y-13648496D02*
X15305752Y-13505639D01*
X15305752Y-13505639D02*
X15353371Y-13410401D01*
X15353371Y-13410401D02*
X15400990Y-13362782D01*
X15400990Y-13362782D02*
X15496228Y-13315163D01*
X15496228Y-13315163D02*
X15781942Y-13315163D01*
X15781942Y-13315163D02*
X15877180Y-13362782D01*
X15877180Y-13362782D02*
X15924800Y-13410401D01*
X15924800Y-13410401D02*
X15972419Y-13505639D01*
X15972419Y-13505639D02*
X15972419Y-13648496D01*
X15972419Y-12458020D02*
X15448609Y-12458020D01*
X15448609Y-12458020D02*
X15353371Y-12505639D01*
X15353371Y-12505639D02*
X15305752Y-12600877D01*
X15305752Y-12600877D02*
X15305752Y-12791353D01*
X15305752Y-12791353D02*
X15353371Y-12886591D01*
X15924800Y-12458020D02*
X15972419Y-12553258D01*
X15972419Y-12553258D02*
X15972419Y-12791353D01*
X15972419Y-12791353D02*
X15924800Y-12886591D01*
X15924800Y-12886591D02*
X15829561Y-12934210D01*
X15829561Y-12934210D02*
X15734323Y-12934210D01*
X15734323Y-12934210D02*
X15639085Y-12886591D01*
X15639085Y-12886591D02*
X15591466Y-12791353D01*
X15591466Y-12791353D02*
X15591466Y-12553258D01*
X15591466Y-12553258D02*
X15543847Y-12458020D01*
X15972419Y-11981829D02*
X15305752Y-11981829D01*
X15496228Y-11981829D02*
X15400990Y-11934210D01*
X15400990Y-11934210D02*
X15353371Y-11886591D01*
X15353371Y-11886591D02*
X15305752Y-11791353D01*
X15305752Y-11791353D02*
X15305752Y-11696115D01*
X15972419Y-10934210D02*
X14972419Y-10934210D01*
X15924800Y-10934210D02*
X15972419Y-11029448D01*
X15972419Y-11029448D02*
X15972419Y-11219924D01*
X15972419Y-11219924D02*
X15924800Y-11315162D01*
X15924800Y-11315162D02*
X15877180Y-11362781D01*
X15877180Y-11362781D02*
X15781942Y-11410400D01*
X15781942Y-11410400D02*
X15496228Y-11410400D01*
X15496228Y-11410400D02*
X15400990Y-11362781D01*
X15400990Y-11362781D02*
X15353371Y-11315162D01*
X15353371Y-11315162D02*
X15305752Y-11219924D01*
X15305752Y-11219924D02*
X15305752Y-11029448D01*
X15305752Y-11029448D02*
X15353371Y-10934210D01*
X15972419Y-9696114D02*
X15305752Y-9696114D01*
X15496228Y-9696114D02*
X15400990Y-9648495D01*
X15400990Y-9648495D02*
X15353371Y-9600876D01*
X15353371Y-9600876D02*
X15305752Y-9505638D01*
X15305752Y-9505638D02*
X15305752Y-9410400D01*
X15924800Y-8696114D02*
X15972419Y-8791352D01*
X15972419Y-8791352D02*
X15972419Y-8981828D01*
X15972419Y-8981828D02*
X15924800Y-9077066D01*
X15924800Y-9077066D02*
X15829561Y-9124685D01*
X15829561Y-9124685D02*
X15448609Y-9124685D01*
X15448609Y-9124685D02*
X15353371Y-9077066D01*
X15353371Y-9077066D02*
X15305752Y-8981828D01*
X15305752Y-8981828D02*
X15305752Y-8791352D01*
X15305752Y-8791352D02*
X15353371Y-8696114D01*
X15353371Y-8696114D02*
X15448609Y-8648495D01*
X15448609Y-8648495D02*
X15543847Y-8648495D01*
X15543847Y-8648495D02*
X15639085Y-9124685D01*
X15972419Y-7791352D02*
X14972419Y-7791352D01*
X15924800Y-7791352D02*
X15972419Y-7886590D01*
X15972419Y-7886590D02*
X15972419Y-8077066D01*
X15972419Y-8077066D02*
X15924800Y-8172304D01*
X15924800Y-8172304D02*
X15877180Y-8219923D01*
X15877180Y-8219923D02*
X15781942Y-8267542D01*
X15781942Y-8267542D02*
X15496228Y-8267542D01*
X15496228Y-8267542D02*
X15400990Y-8219923D01*
X15400990Y-8219923D02*
X15353371Y-8172304D01*
X15353371Y-8172304D02*
X15305752Y-8077066D01*
X15305752Y-8077066D02*
X15305752Y-7886590D01*
X15305752Y-7886590D02*
X15353371Y-7791352D01*
X15924800Y-6934209D02*
X15972419Y-7029447D01*
X15972419Y-7029447D02*
X15972419Y-7219923D01*
X15972419Y-7219923D02*
X15924800Y-7315161D01*
X15924800Y-7315161D02*
X15829561Y-7362780D01*
X15829561Y-7362780D02*
X15448609Y-7362780D01*
X15448609Y-7362780D02*
X15353371Y-7315161D01*
X15353371Y-7315161D02*
X15305752Y-7219923D01*
X15305752Y-7219923D02*
X15305752Y-7029447D01*
X15305752Y-7029447D02*
X15353371Y-6934209D01*
X15353371Y-6934209D02*
X15448609Y-6886590D01*
X15448609Y-6886590D02*
X15543847Y-6886590D01*
X15543847Y-6886590D02*
X15639085Y-7362780D01*
X15924800Y-6505637D02*
X15972419Y-6410399D01*
X15972419Y-6410399D02*
X15972419Y-6219923D01*
X15972419Y-6219923D02*
X15924800Y-6124685D01*
X15924800Y-6124685D02*
X15829561Y-6077066D01*
X15829561Y-6077066D02*
X15781942Y-6077066D01*
X15781942Y-6077066D02*
X15686704Y-6124685D01*
X15686704Y-6124685D02*
X15639085Y-6219923D01*
X15639085Y-6219923D02*
X15639085Y-6362780D01*
X15639085Y-6362780D02*
X15591466Y-6458018D01*
X15591466Y-6458018D02*
X15496228Y-6505637D01*
X15496228Y-6505637D02*
X15448609Y-6505637D01*
X15448609Y-6505637D02*
X15353371Y-6458018D01*
X15353371Y-6458018D02*
X15305752Y-6362780D01*
X15305752Y-6362780D02*
X15305752Y-6219923D01*
X15305752Y-6219923D02*
X15353371Y-6124685D01*
X15972419Y-5648494D02*
X15305752Y-5648494D01*
X14972419Y-5648494D02*
X15020038Y-5696113D01*
X15020038Y-5696113D02*
X15067657Y-5648494D01*
X15067657Y-5648494D02*
X15020038Y-5600875D01*
X15020038Y-5600875D02*
X14972419Y-5648494D01*
X14972419Y-5648494D02*
X15067657Y-5648494D01*
X15305752Y-4743733D02*
X16115276Y-4743733D01*
X16115276Y-4743733D02*
X16210514Y-4791352D01*
X16210514Y-4791352D02*
X16258133Y-4838971D01*
X16258133Y-4838971D02*
X16305752Y-4934209D01*
X16305752Y-4934209D02*
X16305752Y-5077066D01*
X16305752Y-5077066D02*
X16258133Y-5172304D01*
X15924800Y-4743733D02*
X15972419Y-4838971D01*
X15972419Y-4838971D02*
X15972419Y-5029447D01*
X15972419Y-5029447D02*
X15924800Y-5124685D01*
X15924800Y-5124685D02*
X15877180Y-5172304D01*
X15877180Y-5172304D02*
X15781942Y-5219923D01*
X15781942Y-5219923D02*
X15496228Y-5219923D01*
X15496228Y-5219923D02*
X15400990Y-5172304D01*
X15400990Y-5172304D02*
X15353371Y-5124685D01*
X15353371Y-5124685D02*
X15305752Y-5029447D01*
X15305752Y-5029447D02*
X15305752Y-4838971D01*
X15305752Y-4838971D02*
X15353371Y-4743733D01*
X15305752Y-4267542D02*
X15972419Y-4267542D01*
X15400990Y-4267542D02*
X15353371Y-4219923D01*
X15353371Y-4219923D02*
X15305752Y-4124685D01*
X15305752Y-4124685D02*
X15305752Y-3981828D01*
X15305752Y-3981828D02*
X15353371Y-3886590D01*
X15353371Y-3886590D02*
X15448609Y-3838971D01*
X15448609Y-3838971D02*
X15972419Y-3838971D01*
X15877180Y-3362780D02*
X15924800Y-3315161D01*
X15924800Y-3315161D02*
X15972419Y-3362780D01*
X15972419Y-3362780D02*
X15924800Y-3410399D01*
X15924800Y-3410399D02*
X15877180Y-3362780D01*
X15877180Y-3362780D02*
X15972419Y-3362780D01*
X15353371Y-3362780D02*
X15400990Y-3315161D01*
X15400990Y-3315161D02*
X15448609Y-3362780D01*
X15448609Y-3362780D02*
X15400990Y-3410399D01*
X15400990Y-3410399D02*
X15353371Y-3362780D01*
X15353371Y-3362780D02*
X15448609Y-3362780D01*
X15448609Y-1791352D02*
X15448609Y-2124685D01*
X15972419Y-2124685D02*
X14972419Y-2124685D01*
X14972419Y-2124685D02*
X14972419Y-1648495D01*
X15972419Y-1267542D02*
X15305752Y-1267542D01*
X15496228Y-1267542D02*
X15400990Y-1219923D01*
X15400990Y-1219923D02*
X15353371Y-1172304D01*
X15353371Y-1172304D02*
X15305752Y-1077066D01*
X15305752Y-1077066D02*
X15305752Y-981828D01*
X15924800Y-267542D02*
X15972419Y-362780D01*
X15972419Y-362780D02*
X15972419Y-553256D01*
X15972419Y-553256D02*
X15924800Y-648494D01*
X15924800Y-648494D02*
X15829561Y-696113D01*
X15829561Y-696113D02*
X15448609Y-696113D01*
X15448609Y-696113D02*
X15353371Y-648494D01*
X15353371Y-648494D02*
X15305752Y-553256D01*
X15305752Y-553256D02*
X15305752Y-362780D01*
X15305752Y-362780D02*
X15353371Y-267542D01*
X15353371Y-267542D02*
X15448609Y-219923D01*
X15448609Y-219923D02*
X15543847Y-219923D01*
X15543847Y-219923D02*
X15639085Y-696113D01*
X15305752Y113411D02*
X15972419Y351506D01*
X15305752Y589601D02*
X15972419Y351506D01*
X15972419Y351506D02*
X16210514Y256268D01*
X16210514Y256268D02*
X16258133Y208649D01*
X16258133Y208649D02*
X16305752Y113411D01*
X15972419Y1399125D02*
X15448609Y1399125D01*
X15448609Y1399125D02*
X15353371Y1351506D01*
X15353371Y1351506D02*
X15305752Y1256268D01*
X15305752Y1256268D02*
X15305752Y1065792D01*
X15305752Y1065792D02*
X15353371Y970554D01*
X15924800Y1399125D02*
X15972419Y1303887D01*
X15972419Y1303887D02*
X15972419Y1065792D01*
X15972419Y1065792D02*
X15924800Y970554D01*
X15924800Y970554D02*
X15829561Y922935D01*
X15829561Y922935D02*
X15734323Y922935D01*
X15734323Y922935D02*
X15639085Y970554D01*
X15639085Y970554D02*
X15591466Y1065792D01*
X15591466Y1065792D02*
X15591466Y1303887D01*
X15591466Y1303887D02*
X15543847Y1399125D01*
X15972419Y2637221D02*
X14972419Y2637221D01*
X14972419Y2637221D02*
X15686704Y2970554D01*
X15686704Y2970554D02*
X14972419Y3303887D01*
X14972419Y3303887D02*
X15972419Y3303887D01*
X15972419Y4970554D02*
X15448609Y4970554D01*
X15448609Y4970554D02*
X15353371Y4922935D01*
X15353371Y4922935D02*
X15305752Y4827697D01*
X15305752Y4827697D02*
X15305752Y4637221D01*
X15305752Y4637221D02*
X15353371Y4541983D01*
X15924800Y4970554D02*
X15972419Y4875316D01*
X15972419Y4875316D02*
X15972419Y4637221D01*
X15972419Y4637221D02*
X15924800Y4541983D01*
X15924800Y4541983D02*
X15829561Y4494364D01*
X15829561Y4494364D02*
X15734323Y4494364D01*
X15734323Y4494364D02*
X15639085Y4541983D01*
X15639085Y4541983D02*
X15591466Y4637221D01*
X15591466Y4637221D02*
X15591466Y4875316D01*
X15591466Y4875316D02*
X15543847Y4970554D01*
X15972419Y5446745D02*
X14972419Y5446745D01*
X15591466Y5541983D02*
X15972419Y5827697D01*
X15305752Y5827697D02*
X15686704Y5446745D01*
X15972419Y6684840D02*
X15448609Y6684840D01*
X15448609Y6684840D02*
X15353371Y6637221D01*
X15353371Y6637221D02*
X15305752Y6541983D01*
X15305752Y6541983D02*
X15305752Y6351507D01*
X15305752Y6351507D02*
X15353371Y6256269D01*
X15924800Y6684840D02*
X15972419Y6589602D01*
X15972419Y6589602D02*
X15972419Y6351507D01*
X15972419Y6351507D02*
X15924800Y6256269D01*
X15924800Y6256269D02*
X15829561Y6208650D01*
X15829561Y6208650D02*
X15734323Y6208650D01*
X15734323Y6208650D02*
X15639085Y6256269D01*
X15639085Y6256269D02*
X15591466Y6351507D01*
X15591466Y6351507D02*
X15591466Y6589602D01*
X15591466Y6589602D02*
X15543847Y6684840D01*
X15972419Y7922936D02*
X14972419Y7922936D01*
X14972419Y7922936D02*
X14972419Y8161031D01*
X14972419Y8161031D02*
X15020038Y8303888D01*
X15020038Y8303888D02*
X15115276Y8399126D01*
X15115276Y8399126D02*
X15210514Y8446745D01*
X15210514Y8446745D02*
X15400990Y8494364D01*
X15400990Y8494364D02*
X15543847Y8494364D01*
X15543847Y8494364D02*
X15734323Y8446745D01*
X15734323Y8446745D02*
X15829561Y8399126D01*
X15829561Y8399126D02*
X15924800Y8303888D01*
X15924800Y8303888D02*
X15972419Y8161031D01*
X15972419Y8161031D02*
X15972419Y7922936D01*
X15972419Y8922936D02*
X15305752Y8922936D01*
X14972419Y8922936D02*
X15020038Y8875317D01*
X15020038Y8875317D02*
X15067657Y8922936D01*
X15067657Y8922936D02*
X15020038Y8970555D01*
X15020038Y8970555D02*
X14972419Y8922936D01*
X14972419Y8922936D02*
X15067657Y8922936D01*
X15305752Y9827697D02*
X16115276Y9827697D01*
X16115276Y9827697D02*
X16210514Y9780078D01*
X16210514Y9780078D02*
X16258133Y9732459D01*
X16258133Y9732459D02*
X16305752Y9637221D01*
X16305752Y9637221D02*
X16305752Y9494364D01*
X16305752Y9494364D02*
X16258133Y9399126D01*
X15924800Y9827697D02*
X15972419Y9732459D01*
X15972419Y9732459D02*
X15972419Y9541983D01*
X15972419Y9541983D02*
X15924800Y9446745D01*
X15924800Y9446745D02*
X15877180Y9399126D01*
X15877180Y9399126D02*
X15781942Y9351507D01*
X15781942Y9351507D02*
X15496228Y9351507D01*
X15496228Y9351507D02*
X15400990Y9399126D01*
X15400990Y9399126D02*
X15353371Y9446745D01*
X15353371Y9446745D02*
X15305752Y9541983D01*
X15305752Y9541983D02*
X15305752Y9732459D01*
X15305752Y9732459D02*
X15353371Y9827697D01*
X15972419Y10303888D02*
X15305752Y10303888D01*
X14972419Y10303888D02*
X15020038Y10256269D01*
X15020038Y10256269D02*
X15067657Y10303888D01*
X15067657Y10303888D02*
X15020038Y10351507D01*
X15020038Y10351507D02*
X14972419Y10303888D01*
X14972419Y10303888D02*
X15067657Y10303888D01*
X15305752Y10637221D02*
X15305752Y11018173D01*
X14972419Y10780078D02*
X15829561Y10780078D01*
X15829561Y10780078D02*
X15924800Y10827697D01*
X15924800Y10827697D02*
X15972419Y10922935D01*
X15972419Y10922935D02*
X15972419Y11018173D01*
X15924800Y11303888D02*
X15972419Y11399126D01*
X15972419Y11399126D02*
X15972419Y11589602D01*
X15972419Y11589602D02*
X15924800Y11684840D01*
X15924800Y11684840D02*
X15829561Y11732459D01*
X15829561Y11732459D02*
X15781942Y11732459D01*
X15781942Y11732459D02*
X15686704Y11684840D01*
X15686704Y11684840D02*
X15639085Y11589602D01*
X15639085Y11589602D02*
X15639085Y11446745D01*
X15639085Y11446745D02*
X15591466Y11351507D01*
X15591466Y11351507D02*
X15496228Y11303888D01*
X15496228Y11303888D02*
X15448609Y11303888D01*
X15448609Y11303888D02*
X15353371Y11351507D01*
X15353371Y11351507D02*
X15305752Y11446745D01*
X15305752Y11446745D02*
X15305752Y11589602D01*
X15305752Y11589602D02*
X15353371Y11684840D01*
D13*
X-16114400Y-5918850D02*
X-16014400Y-5661707D01*
X-16014400Y-5661707D02*
X-15914400Y-5575993D01*
X-15914400Y-5575993D02*
X-15714400Y-5490279D01*
X-15714400Y-5490279D02*
X-15414400Y-5490279D01*
X-15414400Y-5490279D02*
X-15214400Y-5575993D01*
X-15214400Y-5575993D02*
X-15114400Y-5661707D01*
X-15114400Y-5661707D02*
X-15014400Y-5833136D01*
X-15014400Y-5833136D02*
X-15014400Y-6518850D01*
X-15014400Y-6518850D02*
X-17114400Y-6518850D01*
X-17114400Y-6518850D02*
X-17114400Y-5918850D01*
X-17114400Y-5918850D02*
X-17014400Y-5747422D01*
X-17014400Y-5747422D02*
X-16914400Y-5661707D01*
X-16914400Y-5661707D02*
X-16714400Y-5575993D01*
X-16714400Y-5575993D02*
X-16514400Y-5575993D01*
X-16514400Y-5575993D02*
X-16314400Y-5661707D01*
X-16314400Y-5661707D02*
X-16214400Y-5747422D01*
X-16214400Y-5747422D02*
X-16114400Y-5918850D01*
X-16114400Y-5918850D02*
X-16114400Y-6518850D01*
X-15014400Y-3947422D02*
X-16114400Y-3947422D01*
X-16114400Y-3947422D02*
X-16314400Y-4033136D01*
X-16314400Y-4033136D02*
X-16414400Y-4204564D01*
X-16414400Y-4204564D02*
X-16414400Y-4547422D01*
X-16414400Y-4547422D02*
X-16314400Y-4718850D01*
X-15114400Y-3947422D02*
X-15014400Y-4118850D01*
X-15014400Y-4118850D02*
X-15014400Y-4547422D01*
X-15014400Y-4547422D02*
X-15114400Y-4718850D01*
X-15114400Y-4718850D02*
X-15314400Y-4804564D01*
X-15314400Y-4804564D02*
X-15514400Y-4804564D01*
X-15514400Y-4804564D02*
X-15714400Y-4718850D01*
X-15714400Y-4718850D02*
X-15814400Y-4547422D01*
X-15814400Y-4547422D02*
X-15814400Y-4118850D01*
X-15814400Y-4118850D02*
X-15914400Y-3947422D01*
X-15014400Y-3090279D02*
X-16414400Y-3090279D01*
X-16214400Y-3090279D02*
X-16314400Y-3004565D01*
X-16314400Y-3004565D02*
X-16414400Y-2833136D01*
X-16414400Y-2833136D02*
X-16414400Y-2575993D01*
X-16414400Y-2575993D02*
X-16314400Y-2404565D01*
X-16314400Y-2404565D02*
X-16114400Y-2318851D01*
X-16114400Y-2318851D02*
X-15014400Y-2318851D01*
X-16114400Y-2318851D02*
X-16314400Y-2233136D01*
X-16314400Y-2233136D02*
X-16414400Y-2061708D01*
X-16414400Y-2061708D02*
X-16414400Y-1804565D01*
X-16414400Y-1804565D02*
X-16314400Y-1633136D01*
X-16314400Y-1633136D02*
X-16114400Y-1547422D01*
X-16114400Y-1547422D02*
X-15014400Y-1547422D01*
X-15014400Y-690279D02*
X-17114400Y-690279D01*
X-16314400Y-690279D02*
X-16414400Y-518851D01*
X-16414400Y-518851D02*
X-16414400Y-175993D01*
X-16414400Y-175993D02*
X-16314400Y-4565D01*
X-16314400Y-4565D02*
X-16214400Y81149D01*
X-16214400Y81149D02*
X-16014400Y166864D01*
X-16014400Y166864D02*
X-15414400Y166864D01*
X-15414400Y166864D02*
X-15214400Y81149D01*
X-15214400Y81149D02*
X-15114400Y-4565D01*
X-15114400Y-4565D02*
X-15014400Y-175993D01*
X-15014400Y-175993D02*
X-15014400Y-518851D01*
X-15014400Y-518851D02*
X-15114400Y-690279D01*
X-16414400Y1709720D02*
X-15014400Y1709720D01*
X-16414400Y938292D02*
X-15314400Y938292D01*
X-15314400Y938292D02*
X-15114400Y1024006D01*
X-15114400Y1024006D02*
X-15014400Y1195435D01*
X-15014400Y1195435D02*
X-15014400Y1452578D01*
X-15014400Y1452578D02*
X-15114400Y1624006D01*
X-15114400Y1624006D02*
X-15214400Y1709720D01*
X-17114400Y2309720D02*
X-17114400Y3338291D01*
X-15014400Y2824006D02*
X-17114400Y2824006D01*
X-15014400Y4709720D02*
X-16114400Y4709720D01*
X-16114400Y4709720D02*
X-16314400Y4624006D01*
X-16314400Y4624006D02*
X-16414400Y4452578D01*
X-16414400Y4452578D02*
X-16414400Y4109720D01*
X-16414400Y4109720D02*
X-16314400Y3938292D01*
X-15114400Y4709720D02*
X-15014400Y4538292D01*
X-15014400Y4538292D02*
X-15014400Y4109720D01*
X-15014400Y4109720D02*
X-15114400Y3938292D01*
X-15114400Y3938292D02*
X-15314400Y3852578D01*
X-15314400Y3852578D02*
X-15514400Y3852578D01*
X-15514400Y3852578D02*
X-15714400Y3938292D01*
X-15714400Y3938292D02*
X-15814400Y4109720D01*
X-15814400Y4109720D02*
X-15814400Y4538292D01*
X-15814400Y4538292D02*
X-15914400Y4709720D01*
X-16414400Y6338291D02*
X-14714400Y6338291D01*
X-14714400Y6338291D02*
X-14514400Y6252577D01*
X-14514400Y6252577D02*
X-14414400Y6166863D01*
X-14414400Y6166863D02*
X-14314400Y5995434D01*
X-14314400Y5995434D02*
X-14314400Y5738291D01*
X-14314400Y5738291D02*
X-14414400Y5566863D01*
X-15114400Y6338291D02*
X-15014400Y6166863D01*
X-15014400Y6166863D02*
X-15014400Y5824006D01*
X-15014400Y5824006D02*
X-15114400Y5652577D01*
X-15114400Y5652577D02*
X-15214400Y5566863D01*
X-15214400Y5566863D02*
X-15414400Y5481149D01*
X-15414400Y5481149D02*
X-16014400Y5481149D01*
X-16014400Y5481149D02*
X-16214400Y5566863D01*
X-16214400Y5566863D02*
X-16314400Y5652577D01*
X-16314400Y5652577D02*
X-16414400Y5824006D01*
X-16414400Y5824006D02*
X-16414400Y6166863D01*
X-16414400Y6166863D02*
X-16314400Y6338291D01*
X-16414400Y7966862D02*
X-14714400Y7966862D01*
X-14714400Y7966862D02*
X-14514400Y7881148D01*
X-14514400Y7881148D02*
X-14414400Y7795434D01*
X-14414400Y7795434D02*
X-14314400Y7624005D01*
X-14314400Y7624005D02*
X-14314400Y7366862D01*
X-14314400Y7366862D02*
X-14414400Y7195434D01*
X-15114400Y7966862D02*
X-15014400Y7795434D01*
X-15014400Y7795434D02*
X-15014400Y7452577D01*
X-15014400Y7452577D02*
X-15114400Y7281148D01*
X-15114400Y7281148D02*
X-15214400Y7195434D01*
X-15214400Y7195434D02*
X-15414400Y7109720D01*
X-15414400Y7109720D02*
X-16014400Y7109720D01*
X-16014400Y7109720D02*
X-16214400Y7195434D01*
X-16214400Y7195434D02*
X-16314400Y7281148D01*
X-16314400Y7281148D02*
X-16414400Y7452577D01*
X-16414400Y7452577D02*
X-16414400Y7795434D01*
X-16414400Y7795434D02*
X-16314400Y7966862D01*
X-15114400Y9509719D02*
X-15014400Y9338291D01*
X-15014400Y9338291D02*
X-15014400Y8995433D01*
X-15014400Y8995433D02*
X-15114400Y8824005D01*
X-15114400Y8824005D02*
X-15314400Y8738291D01*
X-15314400Y8738291D02*
X-16114400Y8738291D01*
X-16114400Y8738291D02*
X-16314400Y8824005D01*
X-16314400Y8824005D02*
X-16414400Y8995433D01*
X-16414400Y8995433D02*
X-16414400Y9338291D01*
X-16414400Y9338291D02*
X-16314400Y9509719D01*
X-16314400Y9509719D02*
X-16114400Y9595433D01*
X-16114400Y9595433D02*
X-15914400Y9595433D01*
X-15914400Y9595433D02*
X-15714400Y8738291D01*
X-15014400Y10366862D02*
X-16414400Y10366862D01*
X-16014400Y10366862D02*
X-16214400Y10452576D01*
X-16214400Y10452576D02*
X-16314400Y10538290D01*
X-16314400Y10538290D02*
X-16414400Y10709719D01*
X-16414400Y10709719D02*
X-16414400Y10881148D01*
X-15814400Y11481148D02*
X-15814400Y12852576D01*
X-15614400Y13624005D02*
X-15614400Y14481147D01*
X-15014400Y13452576D02*
X-17114400Y14052576D01*
X-17114400Y14052576D02*
X-15014400Y14652576D01*
X-15014400Y15252576D02*
X-17114400Y15252576D01*
X-17114400Y15252576D02*
X-15614400Y15852576D01*
X-15614400Y15852576D02*
X-17114400Y16452576D01*
X-17114400Y16452576D02*
X-15014400Y16452576D01*
X-15114400Y17224005D02*
X-15014400Y17481147D01*
X-15014400Y17481147D02*
X-15014400Y17909719D01*
X-15014400Y17909719D02*
X-15114400Y18081147D01*
X-15114400Y18081147D02*
X-15214400Y18166862D01*
X-15214400Y18166862D02*
X-15414400Y18252576D01*
X-15414400Y18252576D02*
X-15614400Y18252576D01*
X-15614400Y18252576D02*
X-15814400Y18166862D01*
X-15814400Y18166862D02*
X-15914400Y18081147D01*
X-15914400Y18081147D02*
X-16014400Y17909719D01*
X-16014400Y17909719D02*
X-16114400Y17566862D01*
X-16114400Y17566862D02*
X-16214400Y17395433D01*
X-16214400Y17395433D02*
X-16314400Y17309719D01*
X-16314400Y17309719D02*
X-16514400Y17224005D01*
X-16514400Y17224005D02*
X-16714400Y17224005D01*
X-16714400Y17224005D02*
X-16914400Y17309719D01*
X-16914400Y17309719D02*
X-17014400Y17395433D01*
X-17014400Y17395433D02*
X-17114400Y17566862D01*
X-17114400Y17566862D02*
X-17114400Y17995433D01*
X-17114400Y17995433D02*
X-17014400Y18252576D01*
D14*
X-10086905Y34430181D02*
X-10086905Y33620658D01*
X-10086905Y33620658D02*
X-10039286Y33525420D01*
X-10039286Y33525420D02*
X-9991667Y33477800D01*
X-9991667Y33477800D02*
X-9896429Y33430181D01*
X-9896429Y33430181D02*
X-9705953Y33430181D01*
X-9705953Y33430181D02*
X-9610715Y33477800D01*
X-9610715Y33477800D02*
X-9563096Y33525420D01*
X-9563096Y33525420D02*
X-9515477Y33620658D01*
X-9515477Y33620658D02*
X-9515477Y34430181D01*
X-8515477Y33430181D02*
X-9086905Y33430181D01*
X-8801191Y33430181D02*
X-8801191Y34430181D01*
X-8801191Y34430181D02*
X-8896429Y34287324D01*
X-8896429Y34287324D02*
X-8991667Y34192086D01*
X-8991667Y34192086D02*
X-9086905Y34144467D01*
%TO.C,U1*%
D15*
X-12700000Y32870000D02*
X12700000Y32870000D01*
X-12700000Y-29870000D02*
X-12700000Y32870000D01*
X12700000Y32870000D02*
X12700000Y-29870000D01*
X12700000Y-29870000D02*
X-12700000Y-29870000D01*
%TD*%
M02*
