%TF.GenerationSoftware,KiCad,Pcbnew,10.0.1*%
%TF.CreationDate,2026-09-22T18:38:53+02:00*%
%TF.ProjectId,ProPrj_BambuTagger-AMS_2026-09-22(1),50726f50-726a-45f4-9261-6d6275546167,rev?*%
%TF.SameCoordinates,PX8d8dcb0PY678a590*%
%TF.FileFunction,Copper,L2,Bot*%
%TF.FilePolarity,Positive*%
%FSLAX46Y46*%
G04 Gerber Fmt 4.6, Leading zero omitted, Abs format (unit mm)*
G04 Created by KiCad (PCBNEW 10.0.1) date 2026-09-22 18:38:53*
%MOMM*%
%LPD*%
G01*
G04 APERTURE LIST*
G04 Aperture macros list*
%AMRoundRect*
0 Rectangle with rounded corners*
0 $1 Rounding radius*
0 $2 $3 $4 $5 $6 $7 $8 $9 X,Y pos of 4 corners*
0 Add a 4 corners polygon primitive as box body*
4,1,4,$2,$3,$4,$5,$6,$7,$8,$9,$2,$3,0*
0 Add four circle primitives for the rounded corners*
1,1,$1+$1,$2,$3*
1,1,$1+$1,$4,$5*
1,1,$1+$1,$6,$7*
1,1,$1+$1,$8,$9*
0 Add four rect primitives between the rounded corners*
20,1,$1+$1,$2,$3,$4,$5,0*
20,1,$1+$1,$4,$5,$6,$7,0*
20,1,$1+$1,$6,$7,$8,$9,0*
20,1,$1+$1,$8,$9,$2,$3,0*%
G04 Aperture macros list end*
%TA.AperFunction,ComponentPad*%
%ADD10C,1.530000*%
%TD*%
%TA.AperFunction,ComponentPad*%
%ADD11C,3.500000*%
%TD*%
%TA.AperFunction,ComponentPad*%
%ADD12R,1.700000X1.700000*%
%TD*%
%TA.AperFunction,ComponentPad*%
%ADD13C,1.700000*%
%TD*%
%TA.AperFunction,ComponentPad*%
%ADD14RoundRect,0.250000X-0.725000X0.600000X-0.725000X-0.600000X0.725000X-0.600000X0.725000X0.600000X0*%
%TD*%
%TA.AperFunction,ComponentPad*%
%ADD15O,1.950000X1.700000*%
%TD*%
%TA.AperFunction,ComponentPad*%
%ADD16C,1.524000*%
%TD*%
%TA.AperFunction,ComponentPad*%
%ADD17RoundRect,0.250000X0.725000X-0.600000X0.725000X0.600000X-0.725000X0.600000X-0.725000X-0.600000X0*%
%TD*%
%TA.AperFunction,ComponentPad*%
%ADD18R,1.800000X1.800000*%
%TD*%
%TA.AperFunction,ComponentPad*%
%ADD19C,1.800000*%
%TD*%
%TA.AperFunction,ComponentPad*%
%ADD20RoundRect,0.250000X0.600000X0.725000X-0.600000X0.725000X-0.600000X-0.725000X0.600000X-0.725000X0*%
%TD*%
%TA.AperFunction,ComponentPad*%
%ADD21O,1.700000X1.950000*%
%TD*%
%TA.AperFunction,ComponentPad*%
%ADD22RoundRect,0.250000X-0.550000X0.550000X-0.550000X-0.550000X0.550000X-0.550000X0.550000X0.550000X0*%
%TD*%
%TA.AperFunction,ComponentPad*%
%ADD23C,1.600000*%
%TD*%
%TA.AperFunction,ViaPad*%
%ADD24C,0.600000*%
%TD*%
%TA.AperFunction,Conductor*%
%ADD25C,0.200000*%
%TD*%
%TA.AperFunction,Conductor*%
%ADD26C,0.400000*%
%TD*%
G04 APERTURE END LIST*
D10*
%TO.P,U1,J1_1,3V3_J1_1*%
%TO.N,3_3V*%
X-11430000Y31470000D03*
%TO.P,U1,J1_2,3V3_J1_2*%
X-11430000Y28930000D03*
%TO.P,U1,J1_3,RST_J1_3*%
%TO.N,unconnected-(U1-RST-PadJ1_3)*%
X-11430000Y26390000D03*
%TO.P,U1,J1_4,GPIO4_J1_4*%
%TO.N,CS1*%
X-11430000Y23850000D03*
%TO.P,U1,J1_5,GPIO5_J1_5*%
%TO.N,CS2*%
X-11430000Y21310000D03*
%TO.P,U1,J1_6,GPIO6_J1_6*%
%TO.N,CS3*%
X-11430000Y18770000D03*
%TO.P,U1,J1_7,GPIO7_J1_7*%
%TO.N,CS4*%
X-11430000Y16230000D03*
%TO.P,U1,J1_8,GPIO15_J1_8*%
%TO.N,RST1*%
X-11430000Y13690000D03*
%TO.P,U1,J1_9,GPIO16_J1_9*%
%TO.N,RST2*%
X-11430000Y11150000D03*
%TO.P,U1,J1_10,GPIO17_J1_10*%
%TO.N,RST3*%
X-11430000Y8610000D03*
%TO.P,U1,J1_11,GPIO18_J1_11*%
%TO.N,RST4*%
X-11430000Y6070000D03*
%TO.P,U1,J1_12,GPIO8_J1_12*%
%TO.N,unconnected-(U1-GPIO8-PadJ1_12)*%
X-11430000Y3530000D03*
%TO.P,U1,J1_13,GPIO3_J1_13*%
%TO.N,unconnected-(U1-GPIO3-PadJ1_13)*%
X-11430000Y990000D03*
%TO.P,U1,J1_14,GPIO46_J1_14*%
%TO.N,unconnected-(U1-GPIO46-PadJ1_14)*%
X-11430000Y-1550000D03*
%TO.P,U1,J1_15,GPIO9_J1_15*%
%TO.N,unconnected-(U1-GPIO9-PadJ1_15)*%
X-11430000Y-4090000D03*
%TO.P,U1,J1_16,GPIO10_J1_16*%
%TO.N,unconnected-(U1-GPIO10-PadJ1_16)*%
X-11430000Y-6630000D03*
%TO.P,U1,J1_17,GPIO11_J1_17*%
%TO.N,MOSI*%
X-11430000Y-9170000D03*
%TO.P,U1,J1_18,GPIO12_J1_18*%
%TO.N,SCK*%
X-11430000Y-11710000D03*
%TO.P,U1,J1_19,GPIO13_J1_19*%
%TO.N,MISO*%
X-11430000Y-14250000D03*
%TO.P,U1,J1_20,GPIO14_J1_20*%
%TO.N,WSLED*%
X-11430000Y-16790000D03*
%TO.P,U1,J1_21,5V0_J1_21*%
%TO.N,VCC*%
X-11430000Y-19330000D03*
%TO.P,U1,J1_22,GND_J1_22*%
%TO.N,GND*%
X-11430000Y-21870000D03*
%TO.P,U1,J3_1,GND_J3_1*%
X11430000Y31470000D03*
%TO.P,U1,J3_2,U0TXD/GPIO43_J3_2*%
%TO.N,unconnected-(U1-U0TXD{slash}GPIO43-PadJ3_2)*%
X11430000Y28930000D03*
%TO.P,U1,J3_3,U0RXD/GPIO44_J3_3*%
%TO.N,unconnected-(U1-U0RXD{slash}GPIO44-PadJ3_3)*%
X11430000Y26390000D03*
%TO.P,U1,J3_4,GPIO1_J3_4*%
%TO.N,unconnected-(U1-GPIO1-PadJ3_4)*%
X11430000Y23850000D03*
%TO.P,U1,J3_5,GPIO2_J3_5*%
%TO.N,unconnected-(U1-GPIO2-PadJ3_5)*%
X11430000Y21310000D03*
%TO.P,U1,J3_6,MTMS/GPIO42_J3_6*%
%TO.N,unconnected-(U1-MTMS{slash}GPIO42-PadJ3_6)*%
X11430000Y18770000D03*
%TO.P,U1,J3_7,MTDI/GPIO41_J3_7*%
%TO.N,unconnected-(U1-MTDI{slash}GPIO41-PadJ3_7)*%
X11430000Y16230000D03*
%TO.P,U1,J3_8,MTDO/GPIO40_J3_8*%
%TO.N,unconnected-(U1-MTDO{slash}GPIO40-PadJ3_8)*%
X11430000Y13690000D03*
%TO.P,U1,J3_9,MTCK/GPIO39_J3_9*%
%TO.N,unconnected-(U1-MTCK{slash}GPIO39-PadJ3_9)*%
X11430000Y11150000D03*
%TO.P,U1,J3_10,GPIO38_J3_10*%
%TO.N,unconnected-(U1-GPIO38-PadJ3_10)*%
X11430000Y8610000D03*
%TO.P,U1,J3_11,GPIO37_J3_11*%
%TO.N,DC*%
X11430000Y6070000D03*
%TO.P,U1,J3_12,GPIO36_J3_12*%
%TO.N,SCLTFT*%
X11430000Y3530000D03*
%TO.P,U1,J3_13,GPIO35_J3_13*%
%TO.N,SDATFT*%
X11430000Y990000D03*
%TO.P,U1,J3_14,GPIO0_J3_14*%
%TO.N,RES*%
X11430000Y-1550000D03*
%TO.P,U1,J3_15,GPIO45_J3_15*%
%TO.N,BLK*%
X11430000Y-4090000D03*
%TO.P,U1,J3_16,GPIO48_J3_16*%
%TO.N,SDA*%
X11430000Y-6630000D03*
%TO.P,U1,J3_17,GPIO47_J3_17*%
%TO.N,SCL*%
X11430000Y-9170000D03*
%TO.P,U1,J3_18,GPIO21_J3_18*%
%TO.N,unconnected-(U1-GPIO21-PadJ3_18)*%
X11430000Y-11710000D03*
%TO.P,U1,J3_19,USB_D+/GPIO20_J3_19*%
%TO.N,unconnected-(U1-USB_D+{slash}GPIO20-PadJ3_19)*%
X11430000Y-14250000D03*
%TO.P,U1,J3_20,USB_D-/GPIO19_J3_20*%
%TO.N,unconnected-(U1-USB_D-{slash}GPIO19-PadJ3_20)*%
X11430000Y-16790000D03*
%TO.P,U1,J3_21,GND_J3_21*%
%TO.N,GND*%
X11430000Y-19330000D03*
%TO.P,U1,J3_22,GND_J3_22*%
X11430000Y-21870000D03*
%TD*%
D11*
%TO.P,,1*%
%TO.N,GND*%
X-17000000Y28000000D03*
%TD*%
%TO.P,,1*%
%TO.N,GND*%
X-17000000Y-22000000D03*
%TD*%
%TO.P,,1*%
%TO.N,GND*%
X17000000Y28000000D03*
%TD*%
%TO.P,,1*%
%TO.N,GND*%
X17000000Y-22000000D03*
%TD*%
D12*
%TO.P,SENSOR,1*%
%TO.N,GND*%
X-3780000Y21700000D03*
D13*
%TO.P,SENSOR,2*%
%TO.N,3_3V*%
X-1240000Y21700000D03*
%TO.P,SENSOR,3*%
%TO.N,SCL*%
X1300000Y21700000D03*
%TO.P,SENSOR,4*%
%TO.N,SDA*%
X3840000Y21700000D03*
%TD*%
D14*
%TO.P,SLOT2,1,1_1*%
%TO.N,CS2*%
X8750000Y21000000D03*
D15*
%TO.P,SLOT2,2,2_2*%
%TO.N,SCK*%
X8750000Y18500000D03*
%TO.P,SLOT2,3,3_3*%
%TO.N,MOSI*%
X8750000Y16000000D03*
%TO.P,SLOT2,4,4_4*%
%TO.N,MISO*%
X8750000Y13500000D03*
%TO.P,SLOT2,5,5_5*%
%TO.N,GND*%
X8750000Y11000000D03*
%TO.P,SLOT2,6,6_6*%
%TO.N,RST2*%
X8750000Y8500000D03*
%TO.P,SLOT2,7,7_7*%
%TO.N,3_3V*%
X8750000Y6000000D03*
%TD*%
D16*
%TO.P,TFT,1*%
%TO.N,BLK*%
X-7620000Y25900000D03*
%TO.P,TFT,2*%
%TO.N,DC*%
X-5080000Y25900000D03*
%TO.P,TFT,3*%
%TO.N,RES*%
X-2540000Y25900000D03*
%TO.P,TFT,4*%
%TO.N,SDATFT*%
X0Y25900000D03*
%TO.P,TFT,5*%
%TO.N,SCLTFT*%
X2540000Y25900000D03*
%TO.P,TFT,6*%
%TO.N,3_3V*%
X5080000Y25900000D03*
%TO.P,TFT,7*%
%TO.N,GND*%
X7620000Y25900000D03*
%TD*%
D17*
%TO.P,SLOT3,1,1_1*%
%TO.N,CS3*%
X-8750000Y-14977766D03*
D15*
%TO.P,SLOT3,2,2_2*%
%TO.N,SCK*%
X-8750000Y-12477766D03*
%TO.P,SLOT3,3,3_3*%
%TO.N,MOSI*%
X-8750000Y-9977766D03*
%TO.P,SLOT3,4,4_4*%
%TO.N,MISO*%
X-8750000Y-7477766D03*
%TO.P,SLOT3,5,5_5*%
%TO.N,GND*%
X-8750000Y-4977766D03*
%TO.P,SLOT3,6,6_6*%
%TO.N,RST3*%
X-8750000Y-2477766D03*
%TO.P,SLOT3,7,7_7*%
%TO.N,3_3V*%
X-8750000Y22234D03*
%TD*%
D18*
%TO.P,5V,1*%
%TO.N,VCC*%
X-8800000Y-19330000D03*
D19*
%TO.P,5V,2*%
%TO.N,GND*%
X-8800000Y-21870000D03*
%TD*%
D17*
%TO.P,SLOT4,1,1_1*%
%TO.N,CS4*%
X-8750000Y5991973D03*
D15*
%TO.P,SLOT4,2,2_2*%
%TO.N,SCK*%
X-8750000Y8491973D03*
%TO.P,SLOT4,3,3_3*%
%TO.N,MOSI*%
X-8750000Y10991973D03*
%TO.P,SLOT4,4,4_4*%
%TO.N,MISO*%
X-8750000Y13491973D03*
%TO.P,SLOT4,5,5_5*%
%TO.N,GND*%
X-8750000Y15991973D03*
%TO.P,SLOT4,6,6_6*%
%TO.N,RST4*%
X-8750000Y18491973D03*
%TO.P,SLOT4,7,7_7*%
%TO.N,3_3V*%
X-8750000Y20991973D03*
%TD*%
D14*
%TO.P,SLOT1,1,1_1*%
%TO.N,CS1*%
X8750000Y0D03*
D15*
%TO.P,SLOT1,2,2_2*%
%TO.N,SCK*%
X8750000Y-2500000D03*
%TO.P,SLOT1,3,3_3*%
%TO.N,MOSI*%
X8750000Y-5000000D03*
%TO.P,SLOT1,4,4_4*%
%TO.N,MISO*%
X8750000Y-7500000D03*
%TO.P,SLOT1,5,5_5*%
%TO.N,GND*%
X8750000Y-10000000D03*
%TO.P,SLOT1,6,6_6*%
%TO.N,RST1*%
X8750000Y-12500000D03*
%TO.P,SLOT1,7,7_7*%
%TO.N,3_3V*%
X8750000Y-15000000D03*
%TD*%
D20*
%TO.P,WSLED1,1,1_1*%
%TO.N,VCC*%
X2500000Y-15555000D03*
D21*
%TO.P,WSLED1,2,2_2*%
%TO.N,GND*%
X0Y-15555000D03*
%TO.P,WSLED1,3,3_3*%
%TO.N,WSLED*%
X-2500000Y-15555000D03*
%TD*%
D22*
%TO.P,C1,1,1_1*%
%TO.N,3_3V*%
X8017401Y-20144887D03*
D23*
%TO.P,C1,2,2_2*%
%TO.N,GND*%
X8017401Y-22144887D03*
%TD*%
D24*
%TO.N,SCK*%
X-3800000Y-2500000D03*
X-3800000Y18500000D03*
X-3800000Y8500000D03*
X-3800000Y-12500000D03*
%TO.N,MISO*%
X600000Y-7500000D03*
X600000Y13500000D03*
%TO.N,MOSI*%
X-1200000Y16000000D03*
X-1200000Y11000000D03*
X-1200000Y-9977766D03*
X-1200000Y-5000000D03*
%TO.N,CS1*%
X-15000000Y2200000D03*
%TD*%
%TO.N,SCK*%
D25*
X-3822234Y-12477766D02*
X-8750000Y-12477766D01*
X-11430000Y-11710000D02*
X-9517766Y-11710000D01*
X-3808027Y8491973D02*
X-3800000Y8500000D01*
X-9517766Y-11710000D02*
X-8750000Y-12477766D01*
X8750000Y-2500000D02*
X-3800000Y-2500000D01*
X-3800000Y-12500000D02*
X-3822234Y-12477766D01*
X-8750000Y8491973D02*
X-3808027Y8491973D01*
X8750000Y18500000D02*
X-3800000Y18500000D01*
%TO.N,MISO*%
X577766Y-7477766D02*
X-8750000Y-7477766D01*
X-13000000Y-12680000D02*
X-13000000Y-8800000D01*
X600000Y13500000D02*
X591973Y13491973D01*
X591973Y13491973D02*
X-8750000Y13491973D01*
X-12100000Y-7900000D02*
X-9172234Y-7900000D01*
X8750000Y13500000D02*
X600000Y13500000D01*
X-11430000Y-14250000D02*
X-13000000Y-12680000D01*
X600000Y-7500000D02*
X577766Y-7477766D01*
X-9172234Y-7900000D02*
X-8750000Y-7477766D01*
X8727766Y-7477766D02*
X8750000Y-7500000D01*
X-13000000Y-8800000D02*
X-12100000Y-7900000D01*
X600000Y-7500000D02*
X8750000Y-7500000D01*
%TO.N,MOSI*%
X8750000Y-5000000D02*
X-1200000Y-5000000D01*
X-1208027Y10991973D02*
X-1200000Y11000000D01*
X-9557766Y-9170000D02*
X-8750000Y-9977766D01*
X-1200000Y-9977766D02*
X-8750000Y-9977766D01*
X-11430000Y-9170000D02*
X-9557766Y-9170000D01*
X8750000Y16000000D02*
X-1200000Y16000000D01*
X-8750000Y10991973D02*
X-1208027Y10991973D01*
%TO.N,GND*%
D26*
X11430000Y31470000D02*
X7620000Y27660000D01*
X7620000Y27660000D02*
X7620000Y25900000D01*
%TO.N,CS1*%
D25*
X6550000Y2200000D02*
X8750000Y0D01*
X-15000000Y2200000D02*
X6550000Y2200000D01*
%TO.N,CS2*%
X-9340000Y23400000D02*
X6350000Y23400000D01*
X6350000Y23400000D02*
X8750000Y21000000D01*
X-11430000Y21310000D02*
X-9340000Y23400000D01*
%TO.N,RST1*%
X9500000Y9800000D02*
X10200000Y9100000D01*
X5698654Y9800000D02*
X9500000Y9800000D01*
X3156681Y12341973D02*
X5698654Y9800000D01*
X10200000Y-11050000D02*
X8750000Y-12500000D01*
X-10081973Y12341973D02*
X3156681Y12341973D01*
X10200000Y9100000D02*
X10200000Y-11050000D01*
X-11430000Y13690000D02*
X-10081973Y12341973D01*
%TO.N,RST2*%
X-10121973Y9841973D02*
X-11430000Y11150000D01*
X3200000Y8500000D02*
X1858027Y9841973D01*
X8750000Y8500000D02*
X3200000Y8500000D01*
X1858027Y9841973D02*
X-10121973Y9841973D01*
%TO.N,RST4*%
X-11461138Y17705000D02*
X-9536973Y17705000D01*
X-12495000Y7135000D02*
X-12495000Y16671138D01*
X-9536973Y17705000D02*
X-8750000Y18491973D01*
X-11430000Y6070000D02*
X-12495000Y7135000D01*
X-12495000Y16671138D02*
X-11461138Y17705000D01*
%TD*%
%TA.AperFunction,Conductor*%
%TO.N,3_3V*%
G36*
X-12087640Y32481194D02*
G01*
X-11567575Y31961129D01*
X-11626853Y31945245D01*
X-11743147Y31878102D01*
X-11838102Y31783147D01*
X-11905245Y31666853D01*
X-11921129Y31607575D01*
X-12484420Y32170866D01*
X-12484420Y32170865D01*
X-12511921Y32133012D01*
X-12511924Y32133007D01*
X-12602321Y31955596D01*
X-12602322Y31955594D01*
X-12663851Y31766228D01*
X-12695000Y31569560D01*
X-12695000Y31370441D01*
X-12663851Y31173773D01*
X-12602322Y30984407D01*
X-12602321Y30984405D01*
X-12511923Y30806992D01*
X-12484420Y30769137D01*
X-11921129Y31332428D01*
X-11905245Y31273147D01*
X-11838102Y31156853D01*
X-11743147Y31061898D01*
X-11626853Y30994755D01*
X-11567575Y30978872D01*
X-12130866Y30415582D01*
X-12093007Y30388076D01*
X-11915596Y30297680D01*
X-11915594Y30297679D01*
X-11797911Y30259441D01*
X-11761537Y30228374D01*
X-11757784Y30180686D01*
X-11788851Y30144312D01*
X-11797911Y30140559D01*
X-11915594Y30102322D01*
X-11915596Y30102321D01*
X-12093007Y30011924D01*
X-12093012Y30011921D01*
X-12130865Y29984420D01*
X-12130866Y29984420D01*
X-11567575Y29421129D01*
X-11626853Y29405245D01*
X-11743147Y29338102D01*
X-11838102Y29243147D01*
X-11905245Y29126853D01*
X-11921129Y29067575D01*
X-12484420Y29630866D01*
X-12484420Y29630865D01*
X-12511921Y29593012D01*
X-12511924Y29593007D01*
X-12602321Y29415596D01*
X-12602322Y29415594D01*
X-12663851Y29226228D01*
X-12695000Y29029560D01*
X-12695000Y28830441D01*
X-12663851Y28633773D01*
X-12602322Y28444407D01*
X-12602321Y28444405D01*
X-12511923Y28266992D01*
X-12484420Y28229137D01*
X-11921129Y28792428D01*
X-11905245Y28733147D01*
X-11838102Y28616853D01*
X-11743147Y28521898D01*
X-11626853Y28454755D01*
X-11567575Y28438872D01*
X-12130866Y27875582D01*
X-12093007Y27848076D01*
X-11915596Y27757680D01*
X-11915594Y27757679D01*
X-11726228Y27696150D01*
X-11529560Y27665001D01*
X-11529556Y27665000D01*
X-11330444Y27665000D01*
X-11330441Y27665001D01*
X-11133773Y27696150D01*
X-10944407Y27757679D01*
X-10944405Y27757680D01*
X-10766993Y27848077D01*
X-10729136Y27875583D01*
X-11292426Y28438872D01*
X-11233147Y28454755D01*
X-11116853Y28521898D01*
X-11021898Y28616853D01*
X-10954755Y28733147D01*
X-10938872Y28792426D01*
X-10375583Y28229136D01*
X-10348077Y28266993D01*
X-10257680Y28444405D01*
X-10257679Y28444407D01*
X-10196150Y28633773D01*
X-10165001Y28830441D01*
X-10165000Y28830445D01*
X-10165000Y29029556D01*
X-10165001Y29029560D01*
X-10196150Y29226228D01*
X-10257679Y29415594D01*
X-10257680Y29415596D01*
X-10348076Y29593007D01*
X-10375583Y29630866D01*
X-10938872Y29067576D01*
X-10954755Y29126853D01*
X-11021898Y29243147D01*
X-11116853Y29338102D01*
X-11233147Y29405245D01*
X-11292428Y29421129D01*
X-10729136Y29984420D01*
X-10766992Y30011923D01*
X-10944405Y30102321D01*
X-10944407Y30102322D01*
X-11062090Y30140559D01*
X-11098464Y30171626D01*
X-11102217Y30219314D01*
X-11071150Y30255688D01*
X-11062090Y30259441D01*
X-10944407Y30297679D01*
X-10944405Y30297680D01*
X-10766993Y30388077D01*
X-10729136Y30415583D01*
X-11292426Y30978872D01*
X-11233147Y30994755D01*
X-11116853Y31061898D01*
X-11021898Y31156853D01*
X-10954755Y31273147D01*
X-10938872Y31332426D01*
X-10375583Y30769136D01*
X-10348077Y30806993D01*
X-10257680Y30984405D01*
X-10257679Y30984407D01*
X-10196150Y31173773D01*
X-10165001Y31370441D01*
X-10165000Y31370445D01*
X-10165000Y31569556D01*
X-10165001Y31569560D01*
X-10196150Y31766228D01*
X-10257679Y31955594D01*
X-10257680Y31955596D01*
X-10348076Y32133007D01*
X-10375583Y32170866D01*
X-10938872Y31607576D01*
X-10954755Y31666853D01*
X-11021898Y31783147D01*
X-11116853Y31878102D01*
X-11233147Y31945245D01*
X-11292426Y31961129D01*
X-10772360Y32481194D01*
X-10728166Y32499500D01*
X11078251Y32499500D01*
X11122445Y32481194D01*
X11140751Y32437000D01*
X11122445Y32392806D01*
X11102169Y32379258D01*
X10972666Y32325617D01*
X10972661Y32325614D01*
X10814529Y32219954D01*
X10680046Y32085471D01*
X10574386Y31927339D01*
X10574383Y31927334D01*
X10501603Y31751628D01*
X10501602Y31751625D01*
X10464500Y31565094D01*
X10464500Y31374907D01*
X10501603Y31188374D01*
X10501605Y31188367D01*
X10509163Y31170121D01*
X10509164Y31122286D01*
X10495615Y31102009D01*
X7299524Y27905919D01*
X7299517Y27905910D01*
X7246794Y27814592D01*
X7244664Y27806641D01*
X7244663Y27806642D01*
X7244663Y27806638D01*
X7219501Y27712734D01*
X7219500Y27712726D01*
X7219500Y26817671D01*
X7201194Y26773477D01*
X7180919Y26759929D01*
X7164084Y26752956D01*
X7164083Y26752955D01*
X7006442Y26647623D01*
X6872377Y26513558D01*
X6767045Y26355917D01*
X6767042Y26355913D01*
X6694487Y26180750D01*
X6657500Y25994799D01*
X6657500Y25805202D01*
X6694487Y25619251D01*
X6767042Y25444088D01*
X6767043Y25444086D01*
X6767044Y25444085D01*
X6872378Y25286442D01*
X7006442Y25152378D01*
X7164085Y25047044D01*
X7339249Y24974488D01*
X7525202Y24937500D01*
X7714798Y24937500D01*
X7900751Y24974488D01*
X8075915Y25047044D01*
X8233558Y25152378D01*
X8367622Y25286442D01*
X8472956Y25444085D01*
X8545512Y25619249D01*
X8582500Y25805202D01*
X8582500Y25994798D01*
X8545512Y26180751D01*
X8472956Y26355915D01*
X8386641Y26485094D01*
X10464500Y26485094D01*
X10464500Y26294907D01*
X10501602Y26108376D01*
X10501603Y26108373D01*
X10574383Y25932667D01*
X10574385Y25932664D01*
X10680047Y25774529D01*
X10814529Y25640047D01*
X10972664Y25534385D01*
X11148374Y25461603D01*
X11334907Y25424500D01*
X11525093Y25424500D01*
X11711626Y25461603D01*
X11887336Y25534385D01*
X12045471Y25640047D01*
X12179953Y25774529D01*
X12285615Y25932664D01*
X12358397Y26108374D01*
X12395500Y26294907D01*
X12395500Y26485093D01*
X12358397Y26671626D01*
X12294655Y26825512D01*
X12285616Y26847334D01*
X12285613Y26847339D01*
X12179953Y27005471D01*
X12045470Y27139954D01*
X11887338Y27245614D01*
X11887333Y27245617D01*
X11711627Y27318397D01*
X11711624Y27318398D01*
X11525093Y27355500D01*
X11334907Y27355500D01*
X11148375Y27318398D01*
X11148372Y27318397D01*
X10972666Y27245617D01*
X10972661Y27245614D01*
X10814529Y27139954D01*
X10680046Y27005471D01*
X10574386Y26847339D01*
X10574383Y26847334D01*
X10501603Y26671628D01*
X10501602Y26671625D01*
X10464500Y26485094D01*
X8386641Y26485094D01*
X8367622Y26513558D01*
X8233558Y26647622D01*
X8075915Y26752956D01*
X8059081Y26759929D01*
X8025257Y26793754D01*
X8020500Y26817671D01*
X8020500Y27468221D01*
X8038805Y27512414D01*
X9551484Y29025094D01*
X10464500Y29025094D01*
X10464500Y28834907D01*
X10501602Y28648376D01*
X10501603Y28648373D01*
X10574383Y28472667D01*
X10574386Y28472662D01*
X10635402Y28381345D01*
X10680047Y28314529D01*
X10814529Y28180047D01*
X10972664Y28074385D01*
X11148374Y28001603D01*
X11334907Y27964500D01*
X11525093Y27964500D01*
X11711626Y28001603D01*
X11887336Y28074385D01*
X11967349Y28127848D01*
X15049500Y28127848D01*
X15049500Y27872153D01*
X15082874Y27618658D01*
X15082874Y27618656D01*
X15149047Y27371697D01*
X15149050Y27371687D01*
X15201270Y27245617D01*
X15246894Y27135469D01*
X15246895Y27135466D01*
X15284957Y27069541D01*
X15374739Y26914035D01*
X15530390Y26711187D01*
X15711187Y26530390D01*
X15914035Y26374739D01*
X16135465Y26246896D01*
X16371687Y26149050D01*
X16618660Y26082874D01*
X16872157Y26049500D01*
X16872163Y26049500D01*
X17127837Y26049500D01*
X17127843Y26049500D01*
X17381340Y26082874D01*
X17628313Y26149050D01*
X17864535Y26246896D01*
X18085965Y26374739D01*
X18288813Y26530390D01*
X18469610Y26711187D01*
X18625261Y26914035D01*
X18753104Y27135465D01*
X18850950Y27371687D01*
X18917126Y27618660D01*
X18950500Y27872157D01*
X18950500Y28127843D01*
X18917126Y28381340D01*
X18850950Y28628313D01*
X18753104Y28864535D01*
X18625261Y29085965D01*
X18469610Y29288813D01*
X18288813Y29469610D01*
X18085965Y29625261D01*
X17991234Y29679954D01*
X17864534Y29753105D01*
X17864531Y29753106D01*
X17809953Y29775713D01*
X17628313Y29850950D01*
X17628305Y29850953D01*
X17628303Y29850953D01*
X17381343Y29917126D01*
X17127847Y29950500D01*
X17127843Y29950500D01*
X16872157Y29950500D01*
X16872152Y29950500D01*
X16618657Y29917126D01*
X16618655Y29917126D01*
X16371696Y29850953D01*
X16371691Y29850952D01*
X16371687Y29850950D01*
X16255924Y29803000D01*
X16135468Y29753106D01*
X16135465Y29753105D01*
X15914041Y29625265D01*
X15914038Y29625263D01*
X15914035Y29625261D01*
X15872001Y29593007D01*
X15711185Y29469609D01*
X15530391Y29288815D01*
X15526355Y29283555D01*
X15374739Y29085965D01*
X15374737Y29085962D01*
X15374735Y29085959D01*
X15246895Y28864535D01*
X15246894Y28864532D01*
X15197000Y28744076D01*
X15149050Y28628313D01*
X15149048Y28628309D01*
X15149047Y28628304D01*
X15082874Y28381345D01*
X15082874Y28381343D01*
X15049500Y28127848D01*
X11967349Y28127848D01*
X12045471Y28180047D01*
X12179953Y28314529D01*
X12285615Y28472664D01*
X12358397Y28648374D01*
X12395500Y28834907D01*
X12395500Y29025093D01*
X12358397Y29211626D01*
X12285615Y29387336D01*
X12179953Y29545471D01*
X12045471Y29679953D01*
X12045470Y29679954D01*
X11887338Y29785614D01*
X11887333Y29785617D01*
X11711627Y29858397D01*
X11711624Y29858398D01*
X11525093Y29895500D01*
X11334907Y29895500D01*
X11148375Y29858398D01*
X11148372Y29858397D01*
X10972666Y29785617D01*
X10972661Y29785614D01*
X10814529Y29679954D01*
X10680046Y29545471D01*
X10574386Y29387339D01*
X10574383Y29387334D01*
X10501603Y29211628D01*
X10501602Y29211625D01*
X10464500Y29025094D01*
X9551484Y29025094D01*
X11062008Y30535618D01*
X11106201Y30553923D01*
X11130116Y30549166D01*
X11148374Y30541603D01*
X11334907Y30504500D01*
X11525093Y30504500D01*
X11711626Y30541603D01*
X11887336Y30614385D01*
X12045471Y30720047D01*
X12179953Y30854529D01*
X12285615Y31012664D01*
X12358397Y31188374D01*
X12395500Y31374907D01*
X12395500Y31565093D01*
X12358397Y31751626D01*
X12285615Y31927336D01*
X12179953Y32085471D01*
X12045471Y32219953D01*
X11987358Y32258783D01*
X11887338Y32325614D01*
X11887333Y32325617D01*
X11757831Y32379258D01*
X11724007Y32413082D01*
X11724007Y32460918D01*
X11757831Y32494742D01*
X11781749Y32499500D01*
X17934108Y32499500D01*
X17997764Y32499500D01*
X18002223Y32499341D01*
X18208943Y32484556D01*
X18217768Y32483287D01*
X18418106Y32439707D01*
X18426636Y32437202D01*
X18618728Y32365556D01*
X18626834Y32361854D01*
X18806774Y32263599D01*
X18814261Y32258788D01*
X18931711Y32170866D01*
X18978388Y32135924D01*
X18985127Y32130084D01*
X19130083Y31985128D01*
X19135923Y31978389D01*
X19258782Y31814269D01*
X19263603Y31806767D01*
X19361853Y31626835D01*
X19365557Y31618724D01*
X19374833Y31593855D01*
X19437198Y31426645D01*
X19439709Y31418096D01*
X19483286Y31217769D01*
X19484555Y31208943D01*
X19499341Y31002224D01*
X19499500Y30997765D01*
X19499500Y-22997764D01*
X19499341Y-23002223D01*
X19484555Y-23208942D01*
X19483286Y-23217768D01*
X19439709Y-23418095D01*
X19437196Y-23426652D01*
X19365557Y-23618723D01*
X19361853Y-23626834D01*
X19263603Y-23806766D01*
X19258782Y-23814268D01*
X19135923Y-23978388D01*
X19130083Y-23985127D01*
X18985127Y-24130083D01*
X18978388Y-24135923D01*
X18814268Y-24258782D01*
X18806766Y-24263603D01*
X18626834Y-24361853D01*
X18618723Y-24365557D01*
X18491858Y-24412875D01*
X18426648Y-24437196D01*
X18418095Y-24439709D01*
X18217768Y-24483286D01*
X18208942Y-24484555D01*
X18002223Y-24499341D01*
X17997764Y-24499500D01*
X-17997764Y-24499500D01*
X-18002223Y-24499341D01*
X-18208943Y-24484555D01*
X-18217769Y-24483286D01*
X-18392893Y-24445191D01*
X-18418098Y-24439708D01*
X-18426645Y-24437198D01*
X-18618724Y-24365557D01*
X-18626835Y-24361853D01*
X-18747495Y-24295968D01*
X-18806771Y-24263600D01*
X-18814265Y-24258784D01*
X-18978389Y-24135923D01*
X-18985128Y-24130083D01*
X-19130084Y-23985127D01*
X-19135924Y-23978388D01*
X-19181785Y-23917125D01*
X-19258788Y-23814261D01*
X-19263599Y-23806774D01*
X-19361854Y-23626834D01*
X-19365558Y-23618723D01*
X-19437202Y-23426636D01*
X-19439707Y-23418106D01*
X-19483287Y-23217768D01*
X-19484556Y-23208942D01*
X-19499341Y-23002223D01*
X-19499500Y-22997764D01*
X-19499500Y-21872152D01*
X-18950500Y-21872152D01*
X-18950500Y-22127847D01*
X-18917126Y-22381342D01*
X-18917126Y-22381344D01*
X-18853190Y-22619953D01*
X-18850950Y-22628313D01*
X-18780499Y-22798397D01*
X-18753106Y-22864531D01*
X-18753105Y-22864534D01*
X-18636686Y-23066176D01*
X-18625261Y-23085965D01*
X-18469610Y-23288813D01*
X-18288813Y-23469610D01*
X-18085965Y-23625261D01*
X-17864535Y-23753104D01*
X-17628313Y-23850950D01*
X-17381340Y-23917126D01*
X-17127843Y-23950500D01*
X-17127837Y-23950500D01*
X-16872163Y-23950500D01*
X-16872157Y-23950500D01*
X-16618660Y-23917126D01*
X-16371687Y-23850950D01*
X-16135465Y-23753104D01*
X-15914035Y-23625261D01*
X-15711187Y-23469610D01*
X-15530390Y-23288813D01*
X-15374739Y-23085965D01*
X-15246896Y-22864535D01*
X-15149050Y-22628313D01*
X-15082874Y-22381340D01*
X-15049500Y-22127843D01*
X-15049500Y-21872157D01*
X-15062304Y-21774906D01*
X-12395500Y-21774906D01*
X-12395500Y-21965093D01*
X-12358398Y-22151624D01*
X-12358397Y-22151627D01*
X-12285617Y-22327333D01*
X-12285614Y-22327338D01*
X-12212526Y-22436722D01*
X-12179953Y-22485471D01*
X-12045471Y-22619953D01*
X-11887336Y-22725615D01*
X-11711626Y-22798397D01*
X-11525093Y-22835500D01*
X-11334907Y-22835500D01*
X-11148374Y-22798397D01*
X-10972664Y-22725615D01*
X-10814529Y-22619953D01*
X-10680047Y-22485471D01*
X-10574385Y-22327336D01*
X-10501603Y-22151626D01*
X-10464500Y-21965093D01*
X-10464500Y-21783391D01*
X-9900500Y-21783391D01*
X-9900500Y-21956608D01*
X-9900499Y-21956624D01*
X-9873403Y-22127698D01*
X-9873403Y-22127699D01*
X-9819874Y-22292443D01*
X-9819870Y-22292451D01*
X-9741231Y-22446790D01*
X-9639415Y-22586927D01*
X-9639408Y-22586935D01*
X-9516936Y-22709407D01*
X-9516928Y-22709414D01*
X-9416102Y-22782669D01*
X-9376788Y-22811232D01*
X-9222445Y-22889873D01*
X-9057701Y-22943402D01*
X-8985593Y-22954822D01*
X-8886625Y-22970498D01*
X-8886619Y-22970498D01*
X-8886611Y-22970500D01*
X-8886609Y-22970500D01*
X-8713391Y-22970500D01*
X-8713389Y-22970500D01*
X-8542299Y-22943402D01*
X-8377555Y-22889873D01*
X-8223212Y-22811232D01*
X-8083072Y-22709414D01*
X-7960586Y-22586928D01*
X-7858768Y-22446788D01*
X-7780127Y-22292445D01*
X-7726598Y-22127701D01*
X-7699500Y-21956611D01*
X-7699500Y-21783389D01*
X-7700038Y-21779995D01*
X-7725591Y-21618656D01*
X-7726598Y-21612299D01*
X-7780127Y-21447555D01*
X-7858768Y-21293212D01*
X-7960586Y-21153072D01*
X-7960593Y-21153064D01*
X-8083065Y-21030592D01*
X-8083073Y-21030585D01*
X-8223210Y-20928769D01*
X-8377549Y-20850130D01*
X-8377557Y-20850126D01*
X-8542301Y-20796597D01*
X-8713376Y-20769501D01*
X-8713388Y-20769500D01*
X-8713389Y-20769500D01*
X-8886611Y-20769500D01*
X-8886613Y-20769500D01*
X-8886625Y-20769501D01*
X-9057699Y-20796597D01*
X-9057700Y-20796597D01*
X-9222444Y-20850126D01*
X-9222452Y-20850130D01*
X-9376791Y-20928769D01*
X-9516928Y-21030585D01*
X-9516936Y-21030592D01*
X-9639408Y-21153064D01*
X-9639415Y-21153072D01*
X-9741231Y-21293209D01*
X-9819870Y-21447548D01*
X-9819874Y-21447556D01*
X-9873403Y-21612300D01*
X-9873403Y-21612301D01*
X-9900499Y-21783375D01*
X-9900500Y-21783391D01*
X-10464500Y-21783391D01*
X-10464500Y-21774907D01*
X-10501603Y-21588374D01*
X-10559932Y-21447556D01*
X-10574384Y-21412666D01*
X-10574387Y-21412661D01*
X-10680047Y-21254529D01*
X-10814530Y-21120046D01*
X-10972662Y-21014386D01*
X-10972667Y-21014383D01*
X-11148373Y-20941603D01*
X-11148376Y-20941602D01*
X-11334907Y-20904500D01*
X-11525093Y-20904500D01*
X-11711625Y-20941602D01*
X-11711628Y-20941603D01*
X-11887334Y-21014383D01*
X-11887339Y-21014386D01*
X-12045471Y-21120046D01*
X-12179954Y-21254529D01*
X-12285614Y-21412661D01*
X-12285617Y-21412666D01*
X-12358397Y-21588372D01*
X-12358398Y-21588375D01*
X-12395500Y-21774906D01*
X-15062304Y-21774906D01*
X-15082874Y-21618660D01*
X-15090990Y-21588372D01*
X-15138070Y-21412666D01*
X-15149050Y-21371687D01*
X-15246896Y-21135465D01*
X-15374739Y-20914035D01*
X-15530390Y-20711187D01*
X-15711187Y-20530390D01*
X-15914035Y-20374739D01*
X-15984119Y-20334276D01*
X-16135466Y-20246895D01*
X-16135469Y-20246894D01*
X-16190047Y-20224287D01*
X-16371687Y-20149050D01*
X-16371695Y-20149047D01*
X-16371697Y-20149047D01*
X-16618657Y-20082874D01*
X-16872153Y-20049500D01*
X-16872157Y-20049500D01*
X-17127843Y-20049500D01*
X-17127848Y-20049500D01*
X-17381343Y-20082874D01*
X-17381345Y-20082874D01*
X-17628304Y-20149047D01*
X-17628309Y-20149048D01*
X-17628313Y-20149050D01*
X-17716584Y-20185613D01*
X-17864532Y-20246894D01*
X-17864535Y-20246895D01*
X-18085959Y-20374735D01*
X-18085962Y-20374737D01*
X-18085965Y-20374739D01*
X-18158634Y-20430500D01*
X-18288815Y-20530391D01*
X-18469609Y-20711185D01*
X-18495459Y-20744874D01*
X-18625261Y-20914035D01*
X-18625263Y-20914038D01*
X-18625265Y-20914041D01*
X-18753105Y-21135465D01*
X-18753106Y-21135468D01*
X-18764605Y-21163230D01*
X-18850950Y-21371687D01*
X-18850952Y-21371691D01*
X-18850953Y-21371696D01*
X-18917126Y-21618655D01*
X-18917126Y-21618657D01*
X-18950500Y-21872152D01*
X-19499500Y-21872152D01*
X-19499500Y-19234906D01*
X-12395500Y-19234906D01*
X-12395500Y-19425093D01*
X-12358398Y-19611624D01*
X-12358397Y-19611627D01*
X-12285617Y-19787333D01*
X-12285614Y-19787338D01*
X-12179954Y-19945470D01*
X-12045471Y-20079953D01*
X-11887339Y-20185613D01*
X-11887334Y-20185616D01*
X-11799481Y-20222006D01*
X-11711626Y-20258397D01*
X-11525093Y-20295500D01*
X-11334907Y-20295500D01*
X-11148374Y-20258397D01*
X-10972664Y-20185615D01*
X-10814529Y-20079953D01*
X-10680047Y-19945471D01*
X-10574385Y-19787336D01*
X-10501603Y-19611626D01*
X-10464500Y-19425093D01*
X-10464500Y-19234907D01*
X-10501603Y-19048374D01*
X-10574385Y-18872664D01*
X-10680047Y-18714529D01*
X-10814529Y-18580047D01*
X-10814530Y-18580046D01*
X-10972662Y-18474386D01*
X-10972667Y-18474383D01*
X-10995504Y-18464924D01*
X-11127495Y-18410251D01*
X-9900500Y-18410251D01*
X-9900500Y-20249748D01*
X-9888868Y-20308230D01*
X-9888867Y-20308232D01*
X-9844553Y-20374552D01*
X-9778233Y-20418866D01*
X-9778231Y-20418867D01*
X-9719748Y-20430500D01*
X-7880252Y-20430500D01*
X-7821769Y-20418867D01*
X-7755448Y-20374552D01*
X-7711133Y-20308231D01*
X-7699500Y-20249748D01*
X-7699500Y-19544900D01*
X6717401Y-19544900D01*
X6717401Y-19894887D01*
X7701715Y-19894887D01*
X7697321Y-19899281D01*
X7644660Y-19990493D01*
X7617401Y-20092226D01*
X7617401Y-20197548D01*
X7644660Y-20299281D01*
X7697321Y-20390493D01*
X7701715Y-20394887D01*
X6717402Y-20394887D01*
X6717402Y-20744874D01*
X6727893Y-20847574D01*
X6727894Y-20847581D01*
X6783042Y-21014008D01*
X6875083Y-21163230D01*
X6999057Y-21287204D01*
X7148279Y-21379245D01*
X7217219Y-21402089D01*
X7253412Y-21433367D01*
X7256888Y-21481076D01*
X7241760Y-21505605D01*
X7240263Y-21507102D01*
X7130770Y-21670971D01*
X7055349Y-21853053D01*
X7016901Y-22046345D01*
X7016901Y-22243428D01*
X7055349Y-22436720D01*
X7055350Y-22436722D01*
X7130769Y-22618801D01*
X7240262Y-22782669D01*
X7379619Y-22922026D01*
X7543487Y-23031519D01*
X7725566Y-23106938D01*
X7918860Y-23145387D01*
X8115942Y-23145387D01*
X8309236Y-23106938D01*
X8491315Y-23031519D01*
X8655183Y-22922026D01*
X8794540Y-22782669D01*
X8904033Y-22618801D01*
X8979452Y-22436722D01*
X9017901Y-22243428D01*
X9017901Y-22046346D01*
X8979452Y-21853052D01*
X8955719Y-21795754D01*
X8955719Y-21795752D01*
X8947084Y-21774906D01*
X10464500Y-21774906D01*
X10464500Y-21965093D01*
X10501602Y-22151624D01*
X10501603Y-22151627D01*
X10574383Y-22327333D01*
X10574386Y-22327338D01*
X10647474Y-22436722D01*
X10680047Y-22485471D01*
X10814529Y-22619953D01*
X10972664Y-22725615D01*
X11148374Y-22798397D01*
X11334907Y-22835500D01*
X11525093Y-22835500D01*
X11711626Y-22798397D01*
X11887336Y-22725615D01*
X12045471Y-22619953D01*
X12179953Y-22485471D01*
X12285615Y-22327336D01*
X12358397Y-22151626D01*
X12395500Y-21965093D01*
X12395500Y-21872152D01*
X15049500Y-21872152D01*
X15049500Y-22127847D01*
X15082874Y-22381342D01*
X15082874Y-22381344D01*
X15146810Y-22619953D01*
X15149050Y-22628313D01*
X15219501Y-22798397D01*
X15246894Y-22864531D01*
X15246895Y-22864534D01*
X15363314Y-23066176D01*
X15374739Y-23085965D01*
X15530390Y-23288813D01*
X15711187Y-23469610D01*
X15914035Y-23625261D01*
X16135465Y-23753104D01*
X16371687Y-23850950D01*
X16618660Y-23917126D01*
X16872157Y-23950500D01*
X16872163Y-23950500D01*
X17127837Y-23950500D01*
X17127843Y-23950500D01*
X17381340Y-23917126D01*
X17628313Y-23850950D01*
X17864535Y-23753104D01*
X18085965Y-23625261D01*
X18288813Y-23469610D01*
X18469610Y-23288813D01*
X18625261Y-23085965D01*
X18753104Y-22864535D01*
X18850950Y-22628313D01*
X18917126Y-22381340D01*
X18950500Y-22127843D01*
X18950500Y-21872157D01*
X18917126Y-21618660D01*
X18909010Y-21588372D01*
X18861930Y-21412666D01*
X18850950Y-21371687D01*
X18753104Y-21135465D01*
X18625261Y-20914035D01*
X18469610Y-20711187D01*
X18288813Y-20530390D01*
X18085965Y-20374739D01*
X18015881Y-20334276D01*
X17864534Y-20246895D01*
X17864531Y-20246894D01*
X17809953Y-20224287D01*
X17628313Y-20149050D01*
X17628305Y-20149047D01*
X17628303Y-20149047D01*
X17381343Y-20082874D01*
X17127847Y-20049500D01*
X17127843Y-20049500D01*
X16872157Y-20049500D01*
X16872152Y-20049500D01*
X16618657Y-20082874D01*
X16618655Y-20082874D01*
X16371696Y-20149047D01*
X16371691Y-20149048D01*
X16371687Y-20149050D01*
X16283416Y-20185613D01*
X16135468Y-20246894D01*
X16135465Y-20246895D01*
X15914041Y-20374735D01*
X15914038Y-20374737D01*
X15914035Y-20374739D01*
X15841366Y-20430500D01*
X15711185Y-20530391D01*
X15530391Y-20711185D01*
X15504541Y-20744874D01*
X15374739Y-20914035D01*
X15374737Y-20914038D01*
X15374735Y-20914041D01*
X15246895Y-21135465D01*
X15246894Y-21135468D01*
X15235395Y-21163230D01*
X15149050Y-21371687D01*
X15149048Y-21371691D01*
X15149047Y-21371696D01*
X15082874Y-21618655D01*
X15082874Y-21618657D01*
X15049500Y-21872152D01*
X12395500Y-21872152D01*
X12395500Y-21774907D01*
X12358397Y-21588374D01*
X12300068Y-21447556D01*
X12285616Y-21412666D01*
X12285613Y-21412661D01*
X12179953Y-21254529D01*
X12045470Y-21120046D01*
X11887338Y-21014386D01*
X11887333Y-21014383D01*
X11711627Y-20941603D01*
X11711624Y-20941602D01*
X11525093Y-20904500D01*
X11334907Y-20904500D01*
X11148375Y-20941602D01*
X11148372Y-20941603D01*
X10972666Y-21014383D01*
X10972661Y-21014386D01*
X10814529Y-21120046D01*
X10680046Y-21254529D01*
X10574386Y-21412661D01*
X10574383Y-21412666D01*
X10501603Y-21588372D01*
X10501602Y-21588375D01*
X10464500Y-21774906D01*
X8947084Y-21774906D01*
X8904036Y-21670979D01*
X8904032Y-21670971D01*
X8794540Y-21507105D01*
X8793046Y-21505611D01*
X8792773Y-21504952D01*
X8792593Y-21504733D01*
X8792659Y-21504678D01*
X8774740Y-21461417D01*
X8793046Y-21417223D01*
X8817582Y-21402089D01*
X8886521Y-21379245D01*
X9035744Y-21287204D01*
X9159718Y-21163230D01*
X9251759Y-21014008D01*
X9306908Y-20847578D01*
X9317400Y-20744873D01*
X9317401Y-20744864D01*
X9317401Y-20394887D01*
X8333087Y-20394887D01*
X8337481Y-20390493D01*
X8390142Y-20299281D01*
X8417401Y-20197548D01*
X8417401Y-20092226D01*
X8390142Y-19990493D01*
X8337481Y-19899281D01*
X8333087Y-19894887D01*
X9317400Y-19894887D01*
X9317400Y-19544911D01*
X9317399Y-19544899D01*
X9306908Y-19442199D01*
X9306907Y-19442192D01*
X9251759Y-19275765D01*
X9244902Y-19264648D01*
X9226557Y-19234906D01*
X10464500Y-19234906D01*
X10464500Y-19425093D01*
X10501602Y-19611624D01*
X10501603Y-19611627D01*
X10574383Y-19787333D01*
X10574386Y-19787338D01*
X10680046Y-19945470D01*
X10814529Y-20079953D01*
X10972661Y-20185613D01*
X10972666Y-20185616D01*
X11060519Y-20222006D01*
X11148374Y-20258397D01*
X11334907Y-20295500D01*
X11525093Y-20295500D01*
X11711626Y-20258397D01*
X11887336Y-20185615D01*
X12045471Y-20079953D01*
X12179953Y-19945471D01*
X12285615Y-19787336D01*
X12358397Y-19611626D01*
X12395500Y-19425093D01*
X12395500Y-19234907D01*
X12358397Y-19048374D01*
X12285615Y-18872664D01*
X12179953Y-18714529D01*
X12045471Y-18580047D01*
X12045470Y-18580046D01*
X11887338Y-18474386D01*
X11887333Y-18474383D01*
X11711627Y-18401603D01*
X11711624Y-18401602D01*
X11525093Y-18364500D01*
X11334907Y-18364500D01*
X11148375Y-18401602D01*
X11148372Y-18401603D01*
X10972666Y-18474383D01*
X10972661Y-18474386D01*
X10814529Y-18580046D01*
X10680046Y-18714529D01*
X10574386Y-18872661D01*
X10574383Y-18872666D01*
X10501603Y-19048372D01*
X10501602Y-19048375D01*
X10464500Y-19234906D01*
X9226557Y-19234906D01*
X9159718Y-19126543D01*
X9035744Y-19002569D01*
X8886522Y-18910528D01*
X8720092Y-18855379D01*
X8617387Y-18844887D01*
X8267401Y-18844887D01*
X8267401Y-19829201D01*
X8263007Y-19824807D01*
X8171795Y-19772146D01*
X8070062Y-19744887D01*
X7964740Y-19744887D01*
X7863007Y-19772146D01*
X7771795Y-19824807D01*
X7767401Y-19829201D01*
X7767401Y-18844887D01*
X7417425Y-18844887D01*
X7417413Y-18844888D01*
X7314713Y-18855379D01*
X7314706Y-18855380D01*
X7148279Y-18910528D01*
X6999057Y-19002569D01*
X6875083Y-19126543D01*
X6783042Y-19275765D01*
X6727893Y-19442195D01*
X6717401Y-19544900D01*
X-7699500Y-19544900D01*
X-7699500Y-18410252D01*
X-7711133Y-18351769D01*
X-7711134Y-18351767D01*
X-7755448Y-18285447D01*
X-7821768Y-18241133D01*
X-7821770Y-18241132D01*
X-7880252Y-18229500D01*
X-9719748Y-18229500D01*
X-9778231Y-18241132D01*
X-9778233Y-18241133D01*
X-9844553Y-18285447D01*
X-9888867Y-18351767D01*
X-9888868Y-18351769D01*
X-9900500Y-18410251D01*
X-11127495Y-18410251D01*
X-11148373Y-18401603D01*
X-11148376Y-18401602D01*
X-11334907Y-18364500D01*
X-11525093Y-18364500D01*
X-11711625Y-18401602D01*
X-11711628Y-18401603D01*
X-11887334Y-18474383D01*
X-11887339Y-18474386D01*
X-12045471Y-18580046D01*
X-12179954Y-18714529D01*
X-12285614Y-18872661D01*
X-12285617Y-18872666D01*
X-12358397Y-19048372D01*
X-12358398Y-19048375D01*
X-12395500Y-19234906D01*
X-19499500Y-19234906D01*
X-19499500Y-16694906D01*
X-12395500Y-16694906D01*
X-12395500Y-16885093D01*
X-12358398Y-17071624D01*
X-12358397Y-17071627D01*
X-12285617Y-17247333D01*
X-12285615Y-17247336D01*
X-12179953Y-17405471D01*
X-12045471Y-17539953D01*
X-11887336Y-17645615D01*
X-11711626Y-17718397D01*
X-11525093Y-17755500D01*
X-11334907Y-17755500D01*
X-11148374Y-17718397D01*
X-10972664Y-17645615D01*
X-10814529Y-17539953D01*
X-10680047Y-17405471D01*
X-10574385Y-17247336D01*
X-10501603Y-17071626D01*
X-10464500Y-16885093D01*
X-10464500Y-16694907D01*
X-10501603Y-16508374D01*
X-10561115Y-16364701D01*
X-10574384Y-16332666D01*
X-10574387Y-16332661D01*
X-10680047Y-16174529D01*
X-10814530Y-16040046D01*
X-10972662Y-15934386D01*
X-10972667Y-15934383D01*
X-11148373Y-15861603D01*
X-11148376Y-15861602D01*
X-11334907Y-15824500D01*
X-11525093Y-15824500D01*
X-11711625Y-15861602D01*
X-11711628Y-15861603D01*
X-11887334Y-15934383D01*
X-11887339Y-15934386D01*
X-12045471Y-16040046D01*
X-12179954Y-16174529D01*
X-12285614Y-16332661D01*
X-12285617Y-16332666D01*
X-12358397Y-16508372D01*
X-12358398Y-16508375D01*
X-12395500Y-16694906D01*
X-19499500Y-16694906D01*
X-19499500Y-3994906D01*
X-12395500Y-3994906D01*
X-12395500Y-4185093D01*
X-12358398Y-4371624D01*
X-12358397Y-4371627D01*
X-12285617Y-4547333D01*
X-12285614Y-4547338D01*
X-12183943Y-4699500D01*
X-12179953Y-4705471D01*
X-12045471Y-4839953D01*
X-11887336Y-4945615D01*
X-11711626Y-5018397D01*
X-11525093Y-5055500D01*
X-11334907Y-5055500D01*
X-11148374Y-5018397D01*
X-10972664Y-4945615D01*
X-10865933Y-4874300D01*
X-9925500Y-4874300D01*
X-9925500Y-5081231D01*
X-9885131Y-5284184D01*
X-9805941Y-5475364D01*
X-9805940Y-5475367D01*
X-9690978Y-5647420D01*
X-9544655Y-5793743D01*
X-9372602Y-5908705D01*
X-9372600Y-5908705D01*
X-9372598Y-5908707D01*
X-9181420Y-5987896D01*
X-8978465Y-6028266D01*
X-8521535Y-6028266D01*
X-8318580Y-5987896D01*
X-8127402Y-5908707D01*
X-7955345Y-5793743D01*
X-7809023Y-5647421D01*
X-7694059Y-5475364D01*
X-7614870Y-5284186D01*
X-7574500Y-5081231D01*
X-7574500Y-4874301D01*
X-7614870Y-4671346D01*
X-7694059Y-4480168D01*
X-7694061Y-4480166D01*
X-7694061Y-4480164D01*
X-7809023Y-4308111D01*
X-7955346Y-4161788D01*
X-8127399Y-4046826D01*
X-8127402Y-4046825D01*
X-8318582Y-3967635D01*
X-8521535Y-3927266D01*
X-8978465Y-3927266D01*
X-9181419Y-3967635D01*
X-9372599Y-4046825D01*
X-9372602Y-4046826D01*
X-9544655Y-4161788D01*
X-9690978Y-4308111D01*
X-9805940Y-4480164D01*
X-9805941Y-4480167D01*
X-9885131Y-4671347D01*
X-9925500Y-4874300D01*
X-10865933Y-4874300D01*
X-10814529Y-4839953D01*
X-10680047Y-4705471D01*
X-10574385Y-4547336D01*
X-10501603Y-4371626D01*
X-10464500Y-4185093D01*
X-10464500Y-3994907D01*
X-10501603Y-3808374D01*
X-10574385Y-3632664D01*
X-10680047Y-3474529D01*
X-10814529Y-3340047D01*
X-10883828Y-3293743D01*
X-10972662Y-3234386D01*
X-10972667Y-3234383D01*
X-11148373Y-3161603D01*
X-11148376Y-3161602D01*
X-11334907Y-3124500D01*
X-11525093Y-3124500D01*
X-11711625Y-3161602D01*
X-11711628Y-3161603D01*
X-11887334Y-3234383D01*
X-11887339Y-3234386D01*
X-12045471Y-3340046D01*
X-12179954Y-3474529D01*
X-12285614Y-3632661D01*
X-12285617Y-3632666D01*
X-12358397Y-3808372D01*
X-12358398Y-3808375D01*
X-12395500Y-3994906D01*
X-19499500Y-3994906D01*
X-19499500Y-1454906D01*
X-12395500Y-1454906D01*
X-12395500Y-1645093D01*
X-12358398Y-1831624D01*
X-12358397Y-1831627D01*
X-12285617Y-2007333D01*
X-12285614Y-2007338D01*
X-12179954Y-2165470D01*
X-12179953Y-2165471D01*
X-12045471Y-2299953D01*
X-11887336Y-2405615D01*
X-11711626Y-2478397D01*
X-11525093Y-2515500D01*
X-11334907Y-2515500D01*
X-11148374Y-2478397D01*
X-10972664Y-2405615D01*
X-10814529Y-2299953D01*
X-10680047Y-2165471D01*
X-10574385Y-2007336D01*
X-10501603Y-1831626D01*
X-10464500Y-1645093D01*
X-10464500Y-1454907D01*
X-10501603Y-1268374D01*
X-10574385Y-1092664D01*
X-10680047Y-934529D01*
X-10814529Y-800047D01*
X-10814530Y-800046D01*
X-10972662Y-694386D01*
X-10972667Y-694383D01*
X-11148373Y-621603D01*
X-11148376Y-621602D01*
X-11334907Y-584500D01*
X-11525093Y-584500D01*
X-11711625Y-621602D01*
X-11711628Y-621603D01*
X-11887334Y-694383D01*
X-11887339Y-694386D01*
X-12045471Y-800046D01*
X-12179954Y-934529D01*
X-12285614Y-1092661D01*
X-12285617Y-1092666D01*
X-12358397Y-1268372D01*
X-12358398Y-1268375D01*
X-12395500Y-1454906D01*
X-19499500Y-1454906D01*
X-19499500Y2265891D01*
X-15500500Y2265891D01*
X-15500500Y2134110D01*
X-15500499Y2134102D01*
X-15466394Y2006818D01*
X-15466393Y2006815D01*
X-15466392Y2006814D01*
X-15403741Y1898299D01*
X-15400499Y1892685D01*
X-15400496Y1892681D01*
X-15307320Y1799505D01*
X-15307316Y1799502D01*
X-15307314Y1799500D01*
X-15204176Y1739953D01*
X-15193186Y1733608D01*
X-15193183Y1733607D01*
X-15115288Y1712736D01*
X-15065892Y1699500D01*
X-15065891Y1699500D01*
X-14934109Y1699500D01*
X-14934108Y1699500D01*
X-14806814Y1733608D01*
X-14692686Y1799500D01*
X-14610992Y1881194D01*
X-14566798Y1899500D01*
X-12012727Y1899500D01*
X-11968533Y1881194D01*
X-11950227Y1837000D01*
X-11968533Y1792806D01*
X-11978004Y1785033D01*
X-12045471Y1739954D01*
X-12179954Y1605471D01*
X-12285614Y1447339D01*
X-12285617Y1447334D01*
X-12358397Y1271628D01*
X-12358398Y1271625D01*
X-12395500Y1085094D01*
X-12395500Y894907D01*
X-12358398Y708376D01*
X-12358397Y708373D01*
X-12285617Y532667D01*
X-12285614Y532662D01*
X-12179954Y374530D01*
X-12179953Y374529D01*
X-12045471Y240047D01*
X-11887336Y134385D01*
X-11711626Y61603D01*
X-11525093Y24500D01*
X-11334907Y24500D01*
X-11148374Y61603D01*
X-10972664Y134385D01*
X-10814529Y240047D01*
X-10782341Y272235D01*
X-10202232Y272235D01*
X-10202231Y272234D01*
X-9154146Y272234D01*
X-9192630Y205577D01*
X-9225000Y84769D01*
X-9225000Y-40301D01*
X-9192630Y-161109D01*
X-9154146Y-227766D01*
X-10202232Y-227766D01*
X-10191759Y-293886D01*
X-10191757Y-293895D01*
X-10126095Y-495984D01*
X-10126094Y-495987D01*
X-10029623Y-685320D01*
X-9904716Y-857239D01*
X-9754474Y-1007481D01*
X-9582555Y-1132388D01*
X-9393222Y-1228859D01*
X-9393219Y-1228860D01*
X-9191125Y-1294524D01*
X-9046899Y-1317368D01*
X-9006112Y-1342362D01*
X-8994946Y-1388875D01*
X-9019940Y-1429662D01*
X-9044483Y-1440397D01*
X-9181419Y-1467635D01*
X-9372599Y-1546825D01*
X-9372602Y-1546826D01*
X-9544655Y-1661788D01*
X-9690978Y-1808111D01*
X-9805940Y-1980164D01*
X-9805941Y-1980167D01*
X-9885131Y-2171347D01*
X-9925500Y-2374300D01*
X-9925500Y-2581231D01*
X-9885131Y-2784184D01*
X-9805941Y-2975364D01*
X-9805940Y-2975367D01*
X-9690978Y-3147420D01*
X-9544655Y-3293743D01*
X-9372602Y-3408705D01*
X-9372600Y-3408705D01*
X-9372598Y-3408707D01*
X-9181420Y-3487896D01*
X-8978465Y-3528266D01*
X-8521535Y-3528266D01*
X-8318580Y-3487896D01*
X-8127402Y-3408707D01*
X-7955345Y-3293743D01*
X-7809023Y-3147421D01*
X-7694059Y-2975364D01*
X-7614870Y-2784186D01*
X-7574500Y-2581231D01*
X-7574500Y-2374301D01*
X-7614870Y-2171346D01*
X-7694059Y-1980168D01*
X-7694061Y-1980166D01*
X-7694061Y-1980164D01*
X-7809023Y-1808111D01*
X-7955346Y-1661788D01*
X-8127399Y-1546826D01*
X-8127402Y-1546825D01*
X-8318582Y-1467635D01*
X-8455518Y-1440397D01*
X-8495292Y-1413821D01*
X-8504624Y-1366905D01*
X-8478048Y-1327131D01*
X-8453102Y-1317367D01*
X-8308870Y-1294522D01*
X-8106782Y-1228860D01*
X-8106779Y-1228859D01*
X-7917446Y-1132388D01*
X-7745527Y-1007481D01*
X-7595285Y-857239D01*
X-7470378Y-685320D01*
X-7373907Y-495987D01*
X-7373906Y-495984D01*
X-7308244Y-293895D01*
X-7308242Y-293886D01*
X-7297769Y-227766D01*
X-8345854Y-227766D01*
X-8307370Y-161109D01*
X-8275000Y-40301D01*
X-8275000Y84769D01*
X-8307370Y205577D01*
X-8345854Y272234D01*
X-7297769Y272234D01*
X-7297769Y272235D01*
X-7308242Y338355D01*
X-7308244Y338364D01*
X-7373906Y540453D01*
X-7373907Y540456D01*
X-7470378Y729789D01*
X-7595285Y901708D01*
X-7745527Y1051950D01*
X-7917446Y1176857D01*
X-8106779Y1273328D01*
X-8106782Y1273329D01*
X-8308876Y1338993D01*
X-8500000Y1369265D01*
X-8500000Y426380D01*
X-8566657Y464864D01*
X-8687465Y497234D01*
X-8812535Y497234D01*
X-8933343Y464864D01*
X-9000000Y426380D01*
X-9000000Y1369265D01*
X-9000001Y1369265D01*
X-9191124Y1338993D01*
X-9191125Y1338993D01*
X-9393219Y1273329D01*
X-9393222Y1273328D01*
X-9582555Y1176857D01*
X-9754474Y1051950D01*
X-9904716Y901708D01*
X-10029623Y729789D01*
X-10126094Y540456D01*
X-10126095Y540453D01*
X-10191757Y338364D01*
X-10191759Y338355D01*
X-10202232Y272235D01*
X-10782341Y272235D01*
X-10680047Y374529D01*
X-10574385Y532664D01*
X-10501603Y708374D01*
X-10464500Y894907D01*
X-10464500Y1085093D01*
X-10501603Y1271626D01*
X-10574385Y1447336D01*
X-10680047Y1605471D01*
X-10814529Y1739953D01*
X-10881996Y1785033D01*
X-10908572Y1824807D01*
X-10899240Y1871723D01*
X-10859466Y1898299D01*
X-10847273Y1899500D01*
X6399641Y1899500D01*
X6443835Y1881194D01*
X7565908Y759121D01*
X7584214Y714927D01*
X7580708Y694289D01*
X7577355Y684707D01*
X7577353Y684697D01*
X7574500Y654263D01*
X7574500Y-654262D01*
X7577353Y-684696D01*
X7577354Y-684701D01*
X7622207Y-812882D01*
X7622207Y-812883D01*
X7654944Y-857239D01*
X7702850Y-922150D01*
X7812118Y-1002793D01*
X7940301Y-1047646D01*
X7970734Y-1050500D01*
X7970738Y-1050500D01*
X9529262Y-1050500D01*
X9529266Y-1050500D01*
X9559699Y-1047646D01*
X9687882Y-1002793D01*
X9797150Y-922150D01*
X9797151Y-922148D01*
X9799886Y-920130D01*
X9846315Y-908615D01*
X9887287Y-933303D01*
X9899500Y-970417D01*
X9899500Y-1936387D01*
X9881194Y-1980581D01*
X9837000Y-1998887D01*
X9792806Y-1980581D01*
X9785033Y-1971110D01*
X9690977Y-1830345D01*
X9544654Y-1684022D01*
X9372601Y-1569060D01*
X9372598Y-1569059D01*
X9181418Y-1489869D01*
X8978465Y-1449500D01*
X8521535Y-1449500D01*
X8318581Y-1489869D01*
X8127401Y-1569059D01*
X8127398Y-1569060D01*
X7955345Y-1684022D01*
X7809022Y-1830345D01*
X7694060Y-2002398D01*
X7694059Y-2002401D01*
X7628399Y-2160918D01*
X7594574Y-2194743D01*
X7570657Y-2199500D01*
X-3366798Y-2199500D01*
X-3410992Y-2181194D01*
X-3492681Y-2099504D01*
X-3492685Y-2099501D01*
X-3492686Y-2099500D01*
X-3563527Y-2058600D01*
X-3606815Y-2033607D01*
X-3606818Y-2033606D01*
X-3734102Y-1999501D01*
X-3734107Y-1999500D01*
X-3734108Y-1999500D01*
X-3865892Y-1999500D01*
X-3865893Y-1999500D01*
X-3865899Y-1999501D01*
X-3993183Y-2033606D01*
X-3993186Y-2033607D01*
X-4107316Y-2099501D01*
X-4107320Y-2099504D01*
X-4200496Y-2192680D01*
X-4200499Y-2192684D01*
X-4266393Y-2306814D01*
X-4266394Y-2306817D01*
X-4300499Y-2434101D01*
X-4300500Y-2434109D01*
X-4300500Y-2565890D01*
X-4300499Y-2565898D01*
X-4266394Y-2693182D01*
X-4266393Y-2693185D01*
X-4200499Y-2807315D01*
X-4200496Y-2807319D01*
X-4107320Y-2900495D01*
X-4107316Y-2900498D01*
X-4107314Y-2900500D01*
X-3993186Y-2966392D01*
X-3993183Y-2966393D01*
X-3959702Y-2975364D01*
X-3865892Y-3000500D01*
X-3865891Y-3000500D01*
X-3734109Y-3000500D01*
X-3734108Y-3000500D01*
X-3606814Y-2966392D01*
X-3492686Y-2900500D01*
X-3410992Y-2818806D01*
X-3366798Y-2800500D01*
X7570657Y-2800500D01*
X7614851Y-2818806D01*
X7628399Y-2839082D01*
X7694059Y-2997598D01*
X7694060Y-2997601D01*
X7809022Y-3169654D01*
X7955345Y-3315977D01*
X8127398Y-3430939D01*
X8127400Y-3430939D01*
X8127402Y-3430941D01*
X8318580Y-3510130D01*
X8521535Y-3550500D01*
X8978465Y-3550500D01*
X9181420Y-3510130D01*
X9372598Y-3430941D01*
X9544655Y-3315977D01*
X9690977Y-3169655D01*
X9785033Y-3028888D01*
X9824807Y-3002313D01*
X9871723Y-3011645D01*
X9898299Y-3051419D01*
X9899500Y-3063612D01*
X9899500Y-4436387D01*
X9881194Y-4480581D01*
X9837000Y-4498887D01*
X9792806Y-4480581D01*
X9785033Y-4471110D01*
X9690977Y-4330345D01*
X9544654Y-4184022D01*
X9372601Y-4069060D01*
X9372598Y-4069059D01*
X9181418Y-3989869D01*
X8978465Y-3949500D01*
X8521535Y-3949500D01*
X8318581Y-3989869D01*
X8127401Y-4069059D01*
X8127398Y-4069060D01*
X7955345Y-4184022D01*
X7809022Y-4330345D01*
X7694060Y-4502398D01*
X7694059Y-4502401D01*
X7628399Y-4660918D01*
X7594574Y-4694743D01*
X7570657Y-4699500D01*
X-766798Y-4699500D01*
X-810992Y-4681194D01*
X-892681Y-4599504D01*
X-892685Y-4599501D01*
X-892686Y-4599500D01*
X-983036Y-4547336D01*
X-1006815Y-4533607D01*
X-1006818Y-4533606D01*
X-1134102Y-4499501D01*
X-1134107Y-4499500D01*
X-1134108Y-4499500D01*
X-1265892Y-4499500D01*
X-1265893Y-4499500D01*
X-1265899Y-4499501D01*
X-1393183Y-4533606D01*
X-1393186Y-4533607D01*
X-1507316Y-4599501D01*
X-1507320Y-4599504D01*
X-1600496Y-4692680D01*
X-1600499Y-4692684D01*
X-1666393Y-4806814D01*
X-1666394Y-4806817D01*
X-1700499Y-4934101D01*
X-1700500Y-4934109D01*
X-1700500Y-5065890D01*
X-1700499Y-5065898D01*
X-1666394Y-5193182D01*
X-1666393Y-5193185D01*
X-1600499Y-5307315D01*
X-1600496Y-5307319D01*
X-1507320Y-5400495D01*
X-1507316Y-5400498D01*
X-1507314Y-5400500D01*
X-1393186Y-5466392D01*
X-1393183Y-5466393D01*
X-1359702Y-5475364D01*
X-1265892Y-5500500D01*
X-1265891Y-5500500D01*
X-1134109Y-5500500D01*
X-1134108Y-5500500D01*
X-1006814Y-5466392D01*
X-892686Y-5400500D01*
X-810992Y-5318806D01*
X-766798Y-5300500D01*
X7570657Y-5300500D01*
X7614851Y-5318806D01*
X7628399Y-5339082D01*
X7694059Y-5497598D01*
X7694060Y-5497601D01*
X7809022Y-5669654D01*
X7955345Y-5815977D01*
X8127398Y-5930939D01*
X8127400Y-5930939D01*
X8127402Y-5930941D01*
X8318580Y-6010130D01*
X8521535Y-6050500D01*
X8978465Y-6050500D01*
X9181420Y-6010130D01*
X9372598Y-5930941D01*
X9544655Y-5815977D01*
X9690977Y-5669655D01*
X9785033Y-5528888D01*
X9824807Y-5502313D01*
X9871723Y-5511645D01*
X9898299Y-5551419D01*
X9899500Y-5563612D01*
X9899500Y-6936387D01*
X9881194Y-6980581D01*
X9837000Y-6998887D01*
X9792806Y-6980581D01*
X9785033Y-6971110D01*
X9690977Y-6830345D01*
X9544654Y-6684022D01*
X9372601Y-6569060D01*
X9372598Y-6569059D01*
X9181418Y-6489869D01*
X8978465Y-6449500D01*
X8521535Y-6449500D01*
X8318581Y-6489869D01*
X8127401Y-6569059D01*
X8127398Y-6569060D01*
X7955345Y-6684022D01*
X7809022Y-6830345D01*
X7694060Y-7002398D01*
X7694059Y-7002401D01*
X7628399Y-7160918D01*
X7594574Y-7194743D01*
X7570657Y-7199500D01*
X1033202Y-7199500D01*
X989008Y-7181194D01*
X907319Y-7099504D01*
X907315Y-7099501D01*
X907314Y-7099500D01*
X850250Y-7066554D01*
X793185Y-7033607D01*
X793182Y-7033606D01*
X665898Y-6999501D01*
X665893Y-6999500D01*
X665892Y-6999500D01*
X534108Y-6999500D01*
X534107Y-6999500D01*
X534101Y-6999501D01*
X406817Y-7033606D01*
X406814Y-7033607D01*
X292684Y-7099501D01*
X271892Y-7120294D01*
X233225Y-7158960D01*
X189033Y-7177266D01*
X-7570657Y-7177266D01*
X-7614851Y-7158960D01*
X-7628399Y-7138684D01*
X-7644630Y-7099500D01*
X-7694059Y-6980168D01*
X-7694061Y-6980166D01*
X-7694061Y-6980164D01*
X-7809023Y-6808111D01*
X-7955346Y-6661788D01*
X-8127399Y-6546826D01*
X-8127402Y-6546825D01*
X-8318582Y-6467635D01*
X-8521535Y-6427266D01*
X-8978465Y-6427266D01*
X-9181419Y-6467635D01*
X-9372599Y-6546825D01*
X-9372602Y-6546826D01*
X-9544655Y-6661788D01*
X-9690978Y-6808111D01*
X-9805940Y-6980164D01*
X-9805941Y-6980167D01*
X-9885131Y-7171347D01*
X-9925500Y-7374300D01*
X-9925500Y-7537000D01*
X-9943806Y-7581194D01*
X-9988000Y-7599500D01*
X-10937070Y-7599500D01*
X-10981264Y-7581194D01*
X-10999570Y-7537000D01*
X-10981264Y-7492806D01*
X-10971793Y-7485033D01*
X-10814529Y-7379953D01*
X-10680047Y-7245471D01*
X-10574385Y-7087336D01*
X-10501603Y-6911626D01*
X-10464500Y-6725093D01*
X-10464500Y-6534907D01*
X-10501603Y-6348374D01*
X-10574385Y-6172664D01*
X-10680047Y-6014529D01*
X-10814529Y-5880047D01*
X-10814530Y-5880046D01*
X-10972662Y-5774386D01*
X-10972667Y-5774383D01*
X-11148373Y-5701603D01*
X-11148376Y-5701602D01*
X-11334907Y-5664500D01*
X-11525093Y-5664500D01*
X-11711625Y-5701602D01*
X-11711628Y-5701603D01*
X-11887334Y-5774383D01*
X-11887339Y-5774386D01*
X-12045471Y-5880046D01*
X-12179954Y-6014529D01*
X-12285614Y-6172661D01*
X-12285617Y-6172666D01*
X-12358397Y-6348372D01*
X-12358398Y-6348375D01*
X-12395500Y-6534906D01*
X-12395500Y-6725093D01*
X-12358398Y-6911624D01*
X-12358397Y-6911627D01*
X-12285617Y-7087333D01*
X-12285614Y-7087338D01*
X-12179954Y-7245470D01*
X-12045471Y-7379953D01*
X-11888207Y-7485033D01*
X-11861631Y-7524807D01*
X-11870963Y-7571723D01*
X-11910737Y-7598299D01*
X-11922930Y-7599500D01*
X-12139568Y-7599500D01*
X-12215987Y-7619978D01*
X-12215989Y-7619979D01*
X-12275932Y-7654587D01*
X-12275933Y-7654586D01*
X-12284509Y-7659537D01*
X-12284509Y-7659538D01*
X-12284511Y-7659540D01*
X-13184511Y-8559540D01*
X-13212485Y-8587514D01*
X-13240459Y-8615487D01*
X-13280022Y-8684011D01*
X-13280022Y-8684013D01*
X-13300500Y-8760432D01*
X-13300500Y-12719567D01*
X-13280021Y-12795989D01*
X-13280021Y-12795990D01*
X-13273482Y-12807315D01*
X-13265881Y-12820480D01*
X-13240460Y-12864511D01*
X-13240456Y-12864515D01*
X-12322963Y-13782008D01*
X-12304657Y-13826202D01*
X-12309414Y-13850119D01*
X-12358398Y-13968376D01*
X-12395500Y-14154906D01*
X-12395500Y-14345093D01*
X-12358398Y-14531624D01*
X-12358397Y-14531627D01*
X-12285617Y-14707333D01*
X-12285614Y-14707338D01*
X-12179954Y-14865470D01*
X-12179953Y-14865471D01*
X-12045471Y-14999953D01*
X-11887336Y-15105615D01*
X-11711626Y-15178397D01*
X-11525093Y-15215500D01*
X-11334907Y-15215500D01*
X-11148374Y-15178397D01*
X-10972664Y-15105615D01*
X-10814529Y-14999953D01*
X-10680047Y-14865471D01*
X-10574385Y-14707336D01*
X-10501603Y-14531626D01*
X-10464500Y-14345093D01*
X-10464500Y-14323503D01*
X-9925500Y-14323503D01*
X-9925500Y-15632028D01*
X-9922647Y-15662462D01*
X-9922646Y-15662467D01*
X-9877793Y-15790648D01*
X-9877793Y-15790649D01*
X-9837472Y-15845282D01*
X-9797150Y-15899916D01*
X-9687882Y-15980559D01*
X-9559699Y-16025412D01*
X-9529266Y-16028266D01*
X-9529262Y-16028266D01*
X-7970738Y-16028266D01*
X-7970734Y-16028266D01*
X-7940301Y-16025412D01*
X-7812118Y-15980559D01*
X-7702850Y-15899916D01*
X-7622207Y-15790648D01*
X-7577354Y-15662465D01*
X-7574500Y-15632032D01*
X-7574500Y-15326534D01*
X-3550500Y-15326534D01*
X-3550500Y-15783465D01*
X-3510131Y-15986418D01*
X-3430941Y-16177598D01*
X-3430940Y-16177601D01*
X-3315978Y-16349654D01*
X-3169655Y-16495977D01*
X-2997602Y-16610939D01*
X-2997600Y-16610939D01*
X-2997598Y-16610941D01*
X-2806420Y-16690130D01*
X-2603465Y-16730500D01*
X-2396535Y-16730500D01*
X-2193580Y-16690130D01*
X-2002402Y-16610941D01*
X-1830345Y-16495977D01*
X-1684023Y-16349655D01*
X-1569059Y-16177598D01*
X-1489870Y-15986420D01*
X-1449500Y-15783465D01*
X-1449500Y-15326535D01*
X-1449500Y-15326534D01*
X-1050500Y-15326534D01*
X-1050500Y-15783465D01*
X-1010131Y-15986418D01*
X-930941Y-16177598D01*
X-930940Y-16177601D01*
X-815978Y-16349654D01*
X-669655Y-16495977D01*
X-497602Y-16610939D01*
X-497600Y-16610939D01*
X-497598Y-16610941D01*
X-306420Y-16690130D01*
X-103465Y-16730500D01*
X103465Y-16730500D01*
X306420Y-16690130D01*
X497598Y-16610941D01*
X669655Y-16495977D01*
X815977Y-16349655D01*
X930941Y-16177598D01*
X1010130Y-15986420D01*
X1050500Y-15783465D01*
X1050500Y-15326535D01*
X1010130Y-15123580D01*
X930941Y-14932402D01*
X930939Y-14932400D01*
X930939Y-14932398D01*
X848484Y-14808996D01*
X826261Y-14775737D01*
X1449500Y-14775737D01*
X1449500Y-16334262D01*
X1452353Y-16364696D01*
X1452354Y-16364701D01*
X1497207Y-16492882D01*
X1497207Y-16492883D01*
X1508641Y-16508375D01*
X1577850Y-16602150D01*
X1687118Y-16682793D01*
X1815301Y-16727646D01*
X1845734Y-16730500D01*
X1845738Y-16730500D01*
X3154262Y-16730500D01*
X3154266Y-16730500D01*
X3184699Y-16727646D01*
X3278265Y-16694906D01*
X10464500Y-16694906D01*
X10464500Y-16885093D01*
X10501602Y-17071624D01*
X10501603Y-17071627D01*
X10574383Y-17247333D01*
X10574385Y-17247336D01*
X10680047Y-17405471D01*
X10814529Y-17539953D01*
X10972664Y-17645615D01*
X11148374Y-17718397D01*
X11334907Y-17755500D01*
X11525093Y-17755500D01*
X11711626Y-17718397D01*
X11887336Y-17645615D01*
X12045471Y-17539953D01*
X12179953Y-17405471D01*
X12285615Y-17247336D01*
X12358397Y-17071626D01*
X12395500Y-16885093D01*
X12395500Y-16694907D01*
X12358397Y-16508374D01*
X12298885Y-16364701D01*
X12285616Y-16332666D01*
X12285613Y-16332661D01*
X12179953Y-16174529D01*
X12045470Y-16040046D01*
X11887338Y-15934386D01*
X11887333Y-15934383D01*
X11711627Y-15861603D01*
X11711624Y-15861602D01*
X11525093Y-15824500D01*
X11334907Y-15824500D01*
X11148375Y-15861602D01*
X11148372Y-15861603D01*
X10972666Y-15934383D01*
X10972661Y-15934386D01*
X10814529Y-16040046D01*
X10680046Y-16174529D01*
X10574386Y-16332661D01*
X10574383Y-16332666D01*
X10501603Y-16508372D01*
X10501602Y-16508375D01*
X10464500Y-16694906D01*
X3278265Y-16694906D01*
X3312882Y-16682793D01*
X3422150Y-16602150D01*
X3502793Y-16492882D01*
X3547646Y-16364699D01*
X3550500Y-16334266D01*
X3550500Y-14775734D01*
X3547646Y-14745301D01*
X3502793Y-14617118D01*
X3422150Y-14507850D01*
X3312882Y-14427207D01*
X3291911Y-14419869D01*
X3184701Y-14382354D01*
X3184696Y-14382353D01*
X3164699Y-14380478D01*
X3154266Y-14379500D01*
X1845734Y-14379500D01*
X1836124Y-14380401D01*
X1815303Y-14382353D01*
X1815298Y-14382354D01*
X1687117Y-14427207D01*
X1687116Y-14427207D01*
X1577850Y-14507850D01*
X1497207Y-14617116D01*
X1497207Y-14617117D01*
X1452354Y-14745298D01*
X1452353Y-14745303D01*
X1449500Y-14775737D01*
X826261Y-14775737D01*
X815977Y-14760345D01*
X669655Y-14614023D01*
X669654Y-14614022D01*
X497601Y-14499060D01*
X497598Y-14499059D01*
X306418Y-14419869D01*
X103465Y-14379500D01*
X-103465Y-14379500D01*
X-306419Y-14419869D01*
X-497599Y-14499059D01*
X-497602Y-14499060D01*
X-669655Y-14614022D01*
X-815978Y-14760345D01*
X-930940Y-14932398D01*
X-930941Y-14932401D01*
X-1010131Y-15123581D01*
X-1050500Y-15326534D01*
X-1449500Y-15326534D01*
X-1489870Y-15123580D01*
X-1569059Y-14932402D01*
X-1569061Y-14932400D01*
X-1569061Y-14932398D01*
X-1684023Y-14760345D01*
X-1830346Y-14614022D01*
X-2002399Y-14499060D01*
X-2002402Y-14499059D01*
X-2193582Y-14419869D01*
X-2396535Y-14379500D01*
X-2603465Y-14379500D01*
X-2806419Y-14419869D01*
X-2997599Y-14499059D01*
X-2997602Y-14499060D01*
X-3169655Y-14614022D01*
X-3315978Y-14760345D01*
X-3430940Y-14932398D01*
X-3430941Y-14932401D01*
X-3510131Y-15123581D01*
X-3550500Y-15326534D01*
X-7574500Y-15326534D01*
X-7574500Y-14323500D01*
X-7577354Y-14293067D01*
X-7622207Y-14164884D01*
X-7702850Y-14055616D01*
X-7812118Y-13974973D01*
X-7830977Y-13968374D01*
X-7940299Y-13930120D01*
X-7940304Y-13930119D01*
X-7960301Y-13928244D01*
X-7970734Y-13927266D01*
X-9529266Y-13927266D01*
X-9538876Y-13928167D01*
X-9559697Y-13930119D01*
X-9559702Y-13930120D01*
X-9687883Y-13974973D01*
X-9687884Y-13974973D01*
X-9797150Y-14055616D01*
X-9877793Y-14164882D01*
X-9877793Y-14164883D01*
X-9922646Y-14293064D01*
X-9922647Y-14293069D01*
X-9925500Y-14323503D01*
X-10464500Y-14323503D01*
X-10464500Y-14154907D01*
X-10501603Y-13968374D01*
X-10574385Y-13792664D01*
X-10680047Y-13634529D01*
X-10814529Y-13500047D01*
X-10832714Y-13487896D01*
X-10972662Y-13394386D01*
X-10972667Y-13394383D01*
X-11148373Y-13321603D01*
X-11148376Y-13321602D01*
X-11334907Y-13284500D01*
X-11525093Y-13284500D01*
X-11711624Y-13321602D01*
X-11829881Y-13370586D01*
X-11877716Y-13370585D01*
X-11897992Y-13357037D01*
X-12681194Y-12573835D01*
X-12699500Y-12529641D01*
X-12699500Y-11614906D01*
X-12395500Y-11614906D01*
X-12395500Y-11805093D01*
X-12358398Y-11991624D01*
X-12358397Y-11991627D01*
X-12285617Y-12167333D01*
X-12285614Y-12167338D01*
X-12179954Y-12325470D01*
X-12045471Y-12459953D01*
X-11887339Y-12565613D01*
X-11887334Y-12565616D01*
X-11849636Y-12581231D01*
X-11711626Y-12638397D01*
X-11525093Y-12675500D01*
X-11334907Y-12675500D01*
X-11148374Y-12638397D01*
X-10972664Y-12565615D01*
X-10814529Y-12459953D01*
X-10680047Y-12325471D01*
X-10574385Y-12167336D01*
X-10536311Y-12075416D01*
X-10525402Y-12049082D01*
X-10491577Y-12015257D01*
X-10467660Y-12010500D01*
X-9912043Y-12010500D01*
X-9867849Y-12028806D01*
X-9849543Y-12073000D01*
X-9854300Y-12096914D01*
X-9883468Y-12167333D01*
X-9885132Y-12171351D01*
X-9925500Y-12374300D01*
X-9925500Y-12581231D01*
X-9885131Y-12784184D01*
X-9805941Y-12975364D01*
X-9805940Y-12975367D01*
X-9690978Y-13147420D01*
X-9544655Y-13293743D01*
X-9372602Y-13408705D01*
X-9372600Y-13408705D01*
X-9372598Y-13408707D01*
X-9181420Y-13487896D01*
X-8978465Y-13528266D01*
X-8521535Y-13528266D01*
X-8318580Y-13487896D01*
X-8127402Y-13408707D01*
X-7955345Y-13293743D01*
X-7809023Y-13147421D01*
X-7694059Y-12975364D01*
X-7635711Y-12834499D01*
X-7628399Y-12816848D01*
X-7594574Y-12783023D01*
X-7570657Y-12778266D01*
X-4253355Y-12778266D01*
X-4209161Y-12796572D01*
X-4203255Y-12804269D01*
X-4202991Y-12804067D01*
X-4200496Y-12807319D01*
X-4107320Y-12900495D01*
X-4107316Y-12900498D01*
X-4107314Y-12900500D01*
X-3993186Y-12966392D01*
X-3993183Y-12966393D01*
X-3959702Y-12975364D01*
X-3865892Y-13000500D01*
X-3865891Y-13000500D01*
X-3734109Y-13000500D01*
X-3734108Y-13000500D01*
X-3606814Y-12966392D01*
X-3492686Y-12900500D01*
X-3399500Y-12807314D01*
X-3333608Y-12693186D01*
X-3299500Y-12565892D01*
X-3299500Y-12434108D01*
X-3333608Y-12306814D01*
X-3399500Y-12192686D01*
X-3399502Y-12192684D01*
X-3399505Y-12192680D01*
X-3492681Y-12099504D01*
X-3492685Y-12099501D01*
X-3492686Y-12099500D01*
X-3580012Y-12049082D01*
X-3606815Y-12033607D01*
X-3606818Y-12033606D01*
X-3734102Y-11999501D01*
X-3734107Y-11999500D01*
X-3734108Y-11999500D01*
X-3865892Y-11999500D01*
X-3865893Y-11999500D01*
X-3865899Y-11999501D01*
X-3993183Y-12033606D01*
X-3993186Y-12033607D01*
X-4107316Y-12099501D01*
X-4137045Y-12129230D01*
X-4166775Y-12158960D01*
X-4210967Y-12177266D01*
X-7570657Y-12177266D01*
X-7614851Y-12158960D01*
X-7628399Y-12138684D01*
X-7645699Y-12096918D01*
X-7694059Y-11980168D01*
X-7694061Y-11980166D01*
X-7694061Y-11980164D01*
X-7809023Y-11808111D01*
X-7955346Y-11661788D01*
X-8127399Y-11546826D01*
X-8127402Y-11546825D01*
X-8318582Y-11467635D01*
X-8521535Y-11427266D01*
X-8978465Y-11427266D01*
X-9181417Y-11467635D01*
X-9181419Y-11467635D01*
X-9181420Y-11467636D01*
X-9213850Y-11481068D01*
X-9251549Y-11496684D01*
X-9261574Y-11496683D01*
X-9270499Y-11501243D01*
X-9282878Y-11496683D01*
X-9299384Y-11496683D01*
X-9316008Y-11486507D01*
X-9317905Y-11484890D01*
X-9333255Y-11469540D01*
X-9336553Y-11467636D01*
X-9401777Y-11429979D01*
X-9401778Y-11429978D01*
X-9401779Y-11429978D01*
X-9478199Y-11409500D01*
X-9478204Y-11409500D01*
X-10467660Y-11409500D01*
X-10511854Y-11391194D01*
X-10525402Y-11370918D01*
X-10541491Y-11332078D01*
X-10574385Y-11252664D01*
X-10574387Y-11252661D01*
X-10574387Y-11252660D01*
X-10680047Y-11094529D01*
X-10814530Y-10960046D01*
X-10972662Y-10854386D01*
X-10972667Y-10854383D01*
X-11148373Y-10781603D01*
X-11148376Y-10781602D01*
X-11334907Y-10744500D01*
X-11525093Y-10744500D01*
X-11711625Y-10781602D01*
X-11711628Y-10781603D01*
X-11887334Y-10854383D01*
X-11887339Y-10854386D01*
X-12045471Y-10960046D01*
X-12179954Y-11094529D01*
X-12285614Y-11252661D01*
X-12285617Y-11252666D01*
X-12358397Y-11428372D01*
X-12358398Y-11428375D01*
X-12395500Y-11614906D01*
X-12699500Y-11614906D01*
X-12699500Y-8950359D01*
X-12681194Y-8906165D01*
X-12535461Y-8760432D01*
X-12327407Y-8552377D01*
X-12283214Y-8534072D01*
X-12239020Y-8552378D01*
X-12220714Y-8596572D01*
X-12231247Y-8631295D01*
X-12285614Y-8712661D01*
X-12285617Y-8712666D01*
X-12358397Y-8888372D01*
X-12358398Y-8888375D01*
X-12395500Y-9074906D01*
X-12395500Y-9265093D01*
X-12358398Y-9451624D01*
X-12358397Y-9451627D01*
X-12285617Y-9627333D01*
X-12285614Y-9627338D01*
X-12179954Y-9785470D01*
X-12045471Y-9919953D01*
X-11887339Y-10025613D01*
X-11887334Y-10025616D01*
X-11843777Y-10043658D01*
X-11711626Y-10098397D01*
X-11525093Y-10135500D01*
X-11334907Y-10135500D01*
X-11148374Y-10098397D01*
X-10972664Y-10025615D01*
X-10814529Y-9919953D01*
X-10680047Y-9785471D01*
X-10574385Y-9627336D01*
X-10536311Y-9535416D01*
X-10525402Y-9509082D01*
X-10491577Y-9475257D01*
X-10467660Y-9470500D01*
X-9895474Y-9470500D01*
X-9851280Y-9488806D01*
X-9832974Y-9533000D01*
X-9837732Y-9556918D01*
X-9885131Y-9671347D01*
X-9925500Y-9874300D01*
X-9925500Y-10081231D01*
X-9885131Y-10284184D01*
X-9805941Y-10475364D01*
X-9805940Y-10475367D01*
X-9690978Y-10647420D01*
X-9544655Y-10793743D01*
X-9372602Y-10908705D01*
X-9372600Y-10908705D01*
X-9372598Y-10908707D01*
X-9181420Y-10987896D01*
X-8978465Y-11028266D01*
X-8521535Y-11028266D01*
X-8318580Y-10987896D01*
X-8127402Y-10908707D01*
X-7955345Y-10793743D01*
X-7809023Y-10647421D01*
X-7694059Y-10475364D01*
X-7628399Y-10316848D01*
X-7594574Y-10283023D01*
X-7570657Y-10278266D01*
X-1633202Y-10278266D01*
X-1589008Y-10296572D01*
X-1507320Y-10378261D01*
X-1507316Y-10378264D01*
X-1507314Y-10378266D01*
X-1393186Y-10444158D01*
X-1393183Y-10444159D01*
X-1315288Y-10465030D01*
X-1265892Y-10478266D01*
X-1265891Y-10478266D01*
X-1134109Y-10478266D01*
X-1134108Y-10478266D01*
X-1006814Y-10444158D01*
X-892686Y-10378266D01*
X-799500Y-10285080D01*
X-733608Y-10170952D01*
X-699500Y-10043658D01*
X-699500Y-9911874D01*
X-733369Y-9785471D01*
X-733607Y-9784583D01*
X-733608Y-9784580D01*
X-799500Y-9670452D01*
X-799502Y-9670450D01*
X-799505Y-9670446D01*
X-892681Y-9577270D01*
X-892685Y-9577267D01*
X-892686Y-9577266D01*
X-969357Y-9533000D01*
X-1006815Y-9511373D01*
X-1006818Y-9511372D01*
X-1134102Y-9477267D01*
X-1134107Y-9477266D01*
X-1134108Y-9477266D01*
X-1265892Y-9477266D01*
X-1265893Y-9477266D01*
X-1265899Y-9477267D01*
X-1393183Y-9511372D01*
X-1393186Y-9511373D01*
X-1507316Y-9577267D01*
X-1507320Y-9577270D01*
X-1589008Y-9658960D01*
X-1633202Y-9677266D01*
X-7570657Y-9677266D01*
X-7614851Y-9658960D01*
X-7628399Y-9638684D01*
X-7653839Y-9577267D01*
X-7694059Y-9480168D01*
X-7694061Y-9480166D01*
X-7694061Y-9480164D01*
X-7809023Y-9308111D01*
X-7955346Y-9161788D01*
X-8127399Y-9046826D01*
X-8127402Y-9046825D01*
X-8318582Y-8967635D01*
X-8521535Y-8927266D01*
X-8978465Y-8927266D01*
X-9181417Y-8967635D01*
X-9181419Y-8967635D01*
X-9181420Y-8967636D01*
X-9213850Y-8981068D01*
X-9251549Y-8996684D01*
X-9299384Y-8996683D01*
X-9319660Y-8983135D01*
X-9373251Y-8929544D01*
X-9373255Y-8929540D01*
X-9383178Y-8923811D01*
X-9396728Y-8915987D01*
X-9396728Y-8915988D01*
X-9441777Y-8889979D01*
X-9441780Y-8889978D01*
X-9518199Y-8869500D01*
X-9518204Y-8869500D01*
X-10467660Y-8869500D01*
X-10511854Y-8851194D01*
X-10525402Y-8830918D01*
X-10554599Y-8760432D01*
X-10574385Y-8712664D01*
X-10574387Y-8712661D01*
X-10574387Y-8712660D01*
X-10680047Y-8554529D01*
X-10814530Y-8420046D01*
X-10971793Y-8314967D01*
X-10998369Y-8275193D01*
X-10989037Y-8228277D01*
X-10949263Y-8201701D01*
X-10937070Y-8200500D01*
X-9663786Y-8200500D01*
X-9619592Y-8218806D01*
X-9544655Y-8293743D01*
X-9372602Y-8408705D01*
X-9372600Y-8408705D01*
X-9372598Y-8408707D01*
X-9181420Y-8487896D01*
X-8978465Y-8528266D01*
X-8521535Y-8528266D01*
X-8318580Y-8487896D01*
X-8127402Y-8408707D01*
X-7955345Y-8293743D01*
X-7809023Y-8147421D01*
X-7694059Y-7975364D01*
X-7628399Y-7816848D01*
X-7594574Y-7783023D01*
X-7570657Y-7778266D01*
X146645Y-7778266D01*
X190839Y-7796572D01*
X196745Y-7804269D01*
X197009Y-7804067D01*
X199504Y-7807319D01*
X292680Y-7900495D01*
X292684Y-7900498D01*
X292686Y-7900500D01*
X406814Y-7966392D01*
X406817Y-7966393D01*
X440298Y-7975364D01*
X534108Y-8000500D01*
X534109Y-8000500D01*
X665891Y-8000500D01*
X665892Y-8000500D01*
X793186Y-7966392D01*
X907314Y-7900500D01*
X989008Y-7818806D01*
X1033202Y-7800500D01*
X7570657Y-7800500D01*
X7614851Y-7818806D01*
X7628399Y-7839082D01*
X7694059Y-7997598D01*
X7694060Y-7997601D01*
X7809022Y-8169654D01*
X7955345Y-8315977D01*
X8127398Y-8430939D01*
X8127400Y-8430939D01*
X8127402Y-8430941D01*
X8318580Y-8510130D01*
X8521535Y-8550500D01*
X8978465Y-8550500D01*
X9181420Y-8510130D01*
X9372598Y-8430941D01*
X9544655Y-8315977D01*
X9690977Y-8169655D01*
X9785033Y-8028888D01*
X9824807Y-8002313D01*
X9871723Y-8011645D01*
X9898299Y-8051419D01*
X9899500Y-8063612D01*
X9899500Y-9436387D01*
X9881194Y-9480581D01*
X9837000Y-9498887D01*
X9792806Y-9480581D01*
X9785033Y-9471110D01*
X9690977Y-9330345D01*
X9544654Y-9184022D01*
X9372601Y-9069060D01*
X9372598Y-9069059D01*
X9181418Y-8989869D01*
X8978465Y-8949500D01*
X8521535Y-8949500D01*
X8318581Y-8989869D01*
X8127401Y-9069059D01*
X8127398Y-9069060D01*
X7955345Y-9184022D01*
X7809022Y-9330345D01*
X7694060Y-9502398D01*
X7694059Y-9502401D01*
X7614869Y-9693581D01*
X7574500Y-9896534D01*
X7574500Y-10103465D01*
X7614869Y-10306418D01*
X7694059Y-10497598D01*
X7694060Y-10497601D01*
X7809022Y-10669654D01*
X7955345Y-10815977D01*
X8127398Y-10930939D01*
X8127400Y-10930939D01*
X8127402Y-10930941D01*
X8318580Y-11010130D01*
X8521535Y-11050500D01*
X8978465Y-11050500D01*
X9181420Y-11010130D01*
X9372598Y-10930941D01*
X9544655Y-10815977D01*
X9690977Y-10669655D01*
X9785033Y-10528888D01*
X9824807Y-10502313D01*
X9871723Y-10511645D01*
X9898299Y-10551419D01*
X9899500Y-10563612D01*
X9899500Y-10899640D01*
X9881194Y-10943834D01*
X9319658Y-11505369D01*
X9275464Y-11523675D01*
X9251549Y-11518918D01*
X9181420Y-11489870D01*
X9181417Y-11489869D01*
X9181414Y-11489868D01*
X8978465Y-11449500D01*
X8521535Y-11449500D01*
X8318581Y-11489869D01*
X8127401Y-11569059D01*
X8127398Y-11569060D01*
X7955345Y-11684022D01*
X7809022Y-11830345D01*
X7694060Y-12002398D01*
X7694059Y-12002401D01*
X7614869Y-12193581D01*
X7574500Y-12396534D01*
X7574500Y-12603465D01*
X7614869Y-12806418D01*
X7694059Y-12997598D01*
X7694060Y-12997601D01*
X7809022Y-13169654D01*
X7955345Y-13315977D01*
X8127398Y-13430939D01*
X8127400Y-13430939D01*
X8127402Y-13430941D01*
X8318580Y-13510130D01*
X8455517Y-13537368D01*
X8495291Y-13563944D01*
X8504623Y-13610860D01*
X8478047Y-13650634D01*
X8453102Y-13660397D01*
X8308874Y-13683241D01*
X8106781Y-13748905D01*
X8106778Y-13748906D01*
X7917445Y-13845377D01*
X7745526Y-13970284D01*
X7595284Y-14120526D01*
X7470377Y-14292445D01*
X7373906Y-14481778D01*
X7373905Y-14481781D01*
X7308243Y-14683870D01*
X7308241Y-14683879D01*
X7297768Y-14749999D01*
X7297769Y-14750000D01*
X8345854Y-14750000D01*
X8307370Y-14816657D01*
X8275000Y-14937465D01*
X8275000Y-15062535D01*
X8307370Y-15183343D01*
X8345854Y-15250000D01*
X7297768Y-15250000D01*
X7308241Y-15316120D01*
X7308243Y-15316129D01*
X7373905Y-15518218D01*
X7373906Y-15518221D01*
X7470377Y-15707554D01*
X7595284Y-15879473D01*
X7745526Y-16029715D01*
X7917445Y-16154622D01*
X8106778Y-16251093D01*
X8106781Y-16251094D01*
X8308868Y-16316756D01*
X8500000Y-16347028D01*
X8500000Y-15404145D01*
X8566657Y-15442630D01*
X8687465Y-15475000D01*
X8812535Y-15475000D01*
X8933343Y-15442630D01*
X9000000Y-15404145D01*
X9000000Y-16347028D01*
X9191131Y-16316756D01*
X9393218Y-16251094D01*
X9393221Y-16251093D01*
X9582554Y-16154622D01*
X9754473Y-16029715D01*
X9904715Y-15879473D01*
X10029622Y-15707554D01*
X10126093Y-15518221D01*
X10126094Y-15518218D01*
X10191756Y-15316129D01*
X10191758Y-15316120D01*
X10202231Y-15250000D01*
X9154146Y-15250000D01*
X9192630Y-15183343D01*
X9225000Y-15062535D01*
X9225000Y-14937465D01*
X9192630Y-14816657D01*
X9154146Y-14750000D01*
X10202231Y-14750000D01*
X10202231Y-14749999D01*
X10191758Y-14683879D01*
X10191756Y-14683870D01*
X10126094Y-14481781D01*
X10126093Y-14481778D01*
X10029622Y-14292445D01*
X9954155Y-14188574D01*
X9929694Y-14154906D01*
X10464500Y-14154906D01*
X10464500Y-14345093D01*
X10501602Y-14531624D01*
X10501603Y-14531627D01*
X10574383Y-14707333D01*
X10574386Y-14707338D01*
X10680046Y-14865470D01*
X10680047Y-14865471D01*
X10814529Y-14999953D01*
X10972664Y-15105615D01*
X11148374Y-15178397D01*
X11334907Y-15215500D01*
X11525093Y-15215500D01*
X11711626Y-15178397D01*
X11887336Y-15105615D01*
X12045471Y-14999953D01*
X12179953Y-14865471D01*
X12285615Y-14707336D01*
X12358397Y-14531626D01*
X12395500Y-14345093D01*
X12395500Y-14154907D01*
X12358397Y-13968374D01*
X12285615Y-13792664D01*
X12179953Y-13634529D01*
X12045471Y-13500047D01*
X12027286Y-13487896D01*
X11887338Y-13394386D01*
X11887333Y-13394383D01*
X11711627Y-13321603D01*
X11711624Y-13321602D01*
X11525093Y-13284500D01*
X11334907Y-13284500D01*
X11148375Y-13321602D01*
X11148372Y-13321603D01*
X10972666Y-13394383D01*
X10972661Y-13394386D01*
X10814529Y-13500046D01*
X10680046Y-13634529D01*
X10574386Y-13792661D01*
X10574383Y-13792666D01*
X10501603Y-13968372D01*
X10501602Y-13968375D01*
X10464500Y-14154906D01*
X9929694Y-14154906D01*
X9904715Y-14120526D01*
X9754473Y-13970284D01*
X9582554Y-13845377D01*
X9393221Y-13748906D01*
X9393218Y-13748905D01*
X9191124Y-13683241D01*
X9191125Y-13683241D01*
X9046897Y-13660397D01*
X9006111Y-13635403D01*
X8994945Y-13588889D01*
X9019939Y-13548103D01*
X9044479Y-13537368D01*
X9181420Y-13510130D01*
X9372598Y-13430941D01*
X9544655Y-13315977D01*
X9690977Y-13169655D01*
X9805941Y-12997598D01*
X9885130Y-12806420D01*
X9925500Y-12603465D01*
X9925500Y-12396535D01*
X9885130Y-12193580D01*
X9805941Y-12002402D01*
X9781014Y-11965097D01*
X9771683Y-11918182D01*
X9788786Y-11886183D01*
X10060064Y-11614906D01*
X10464500Y-11614906D01*
X10464500Y-11805093D01*
X10501602Y-11991624D01*
X10501603Y-11991627D01*
X10574383Y-12167333D01*
X10574386Y-12167338D01*
X10680046Y-12325470D01*
X10814529Y-12459953D01*
X10972661Y-12565613D01*
X10972666Y-12565616D01*
X11010364Y-12581231D01*
X11148374Y-12638397D01*
X11334907Y-12675500D01*
X11525093Y-12675500D01*
X11711626Y-12638397D01*
X11887336Y-12565615D01*
X12045471Y-12459953D01*
X12179953Y-12325471D01*
X12285615Y-12167336D01*
X12358397Y-11991626D01*
X12395500Y-11805093D01*
X12395500Y-11614907D01*
X12358397Y-11428374D01*
X12285615Y-11252664D01*
X12179953Y-11094529D01*
X12045471Y-10960047D01*
X12045470Y-10960046D01*
X11887338Y-10854386D01*
X11887333Y-10854383D01*
X11711627Y-10781603D01*
X11711624Y-10781602D01*
X11525093Y-10744500D01*
X11334907Y-10744500D01*
X11148375Y-10781602D01*
X11148372Y-10781603D01*
X10972666Y-10854383D01*
X10972661Y-10854386D01*
X10814529Y-10960046D01*
X10680046Y-11094529D01*
X10574386Y-11252660D01*
X10501603Y-11428372D01*
X10501602Y-11428375D01*
X10464500Y-11614906D01*
X10060064Y-11614906D01*
X10440460Y-11234511D01*
X10480022Y-11165988D01*
X10500500Y-11089562D01*
X10500500Y-11010438D01*
X10500500Y-9722794D01*
X10518806Y-9678600D01*
X10563000Y-9660294D01*
X10607194Y-9678600D01*
X10614965Y-9688068D01*
X10638168Y-9722794D01*
X10680046Y-9785470D01*
X10814529Y-9919953D01*
X10972661Y-10025613D01*
X10972666Y-10025616D01*
X11016223Y-10043658D01*
X11148374Y-10098397D01*
X11334907Y-10135500D01*
X11525093Y-10135500D01*
X11711626Y-10098397D01*
X11887336Y-10025615D01*
X12045471Y-9919953D01*
X12179953Y-9785471D01*
X12285615Y-9627336D01*
X12358397Y-9451626D01*
X12395500Y-9265093D01*
X12395500Y-9074907D01*
X12358397Y-8888374D01*
X12285615Y-8712664D01*
X12179953Y-8554529D01*
X12045471Y-8420047D01*
X12045470Y-8420046D01*
X11887338Y-8314386D01*
X11887333Y-8314383D01*
X11711627Y-8241603D01*
X11711624Y-8241602D01*
X11525093Y-8204500D01*
X11334907Y-8204500D01*
X11148375Y-8241602D01*
X11148372Y-8241603D01*
X10972666Y-8314383D01*
X10972661Y-8314386D01*
X10814529Y-8420046D01*
X10680046Y-8554529D01*
X10614967Y-8651928D01*
X10575193Y-8678504D01*
X10528277Y-8669172D01*
X10501701Y-8629398D01*
X10500500Y-8617205D01*
X10500500Y-7182794D01*
X10518806Y-7138600D01*
X10563000Y-7120294D01*
X10607194Y-7138600D01*
X10614965Y-7148068D01*
X10680047Y-7245471D01*
X10814529Y-7379953D01*
X10972664Y-7485615D01*
X11148374Y-7558397D01*
X11334907Y-7595500D01*
X11525093Y-7595500D01*
X11711626Y-7558397D01*
X11887336Y-7485615D01*
X12045471Y-7379953D01*
X12179953Y-7245471D01*
X12285615Y-7087336D01*
X12358397Y-6911626D01*
X12395500Y-6725093D01*
X12395500Y-6534907D01*
X12358397Y-6348374D01*
X12285615Y-6172664D01*
X12179953Y-6014529D01*
X12045471Y-5880047D01*
X12045470Y-5880046D01*
X11887338Y-5774386D01*
X11887333Y-5774383D01*
X11711627Y-5701603D01*
X11711624Y-5701602D01*
X11525093Y-5664500D01*
X11334907Y-5664500D01*
X11148375Y-5701602D01*
X11148372Y-5701603D01*
X10972666Y-5774383D01*
X10972661Y-5774386D01*
X10814529Y-5880046D01*
X10680046Y-6014529D01*
X10614967Y-6111928D01*
X10575193Y-6138504D01*
X10528277Y-6129172D01*
X10501701Y-6089398D01*
X10500500Y-6077205D01*
X10500500Y-4642794D01*
X10518806Y-4598600D01*
X10563000Y-4580294D01*
X10607194Y-4598600D01*
X10614967Y-4608071D01*
X10672101Y-4693580D01*
X10680047Y-4705471D01*
X10814529Y-4839953D01*
X10972664Y-4945615D01*
X11148374Y-5018397D01*
X11334907Y-5055500D01*
X11525093Y-5055500D01*
X11711626Y-5018397D01*
X11887336Y-4945615D01*
X12045471Y-4839953D01*
X12179953Y-4705471D01*
X12285615Y-4547336D01*
X12358397Y-4371626D01*
X12395500Y-4185093D01*
X12395500Y-3994907D01*
X12358397Y-3808374D01*
X12285615Y-3632664D01*
X12179953Y-3474529D01*
X12045471Y-3340047D01*
X11976172Y-3293743D01*
X11887338Y-3234386D01*
X11887333Y-3234383D01*
X11711627Y-3161603D01*
X11711624Y-3161602D01*
X11525093Y-3124500D01*
X11334907Y-3124500D01*
X11148375Y-3161602D01*
X11148372Y-3161603D01*
X10972666Y-3234383D01*
X10972661Y-3234386D01*
X10814529Y-3340046D01*
X10680046Y-3474529D01*
X10614967Y-3571928D01*
X10575193Y-3598504D01*
X10528277Y-3589172D01*
X10501701Y-3549398D01*
X10500500Y-3537205D01*
X10500500Y-2102794D01*
X10518806Y-2058600D01*
X10563000Y-2040294D01*
X10607194Y-2058600D01*
X10614965Y-2068068D01*
X10638168Y-2102794D01*
X10677004Y-2160918D01*
X10680047Y-2165471D01*
X10814529Y-2299953D01*
X10972664Y-2405615D01*
X11148374Y-2478397D01*
X11334907Y-2515500D01*
X11525093Y-2515500D01*
X11711626Y-2478397D01*
X11887336Y-2405615D01*
X12045471Y-2299953D01*
X12179953Y-2165471D01*
X12285615Y-2007336D01*
X12358397Y-1831626D01*
X12395500Y-1645093D01*
X12395500Y-1454907D01*
X12358397Y-1268374D01*
X12285615Y-1092664D01*
X12179953Y-934529D01*
X12045471Y-800047D01*
X12045470Y-800046D01*
X11887338Y-694386D01*
X11887333Y-694383D01*
X11711627Y-621603D01*
X11711624Y-621602D01*
X11525093Y-584500D01*
X11334907Y-584500D01*
X11148375Y-621602D01*
X11148372Y-621603D01*
X10972666Y-694383D01*
X10972661Y-694386D01*
X10814529Y-800046D01*
X10680046Y-934529D01*
X10614967Y-1031928D01*
X10575193Y-1058504D01*
X10528277Y-1049172D01*
X10501701Y-1009398D01*
X10500500Y-997205D01*
X10500500Y437206D01*
X10518806Y481400D01*
X10563000Y499706D01*
X10607194Y481400D01*
X10614965Y471932D01*
X10680047Y374529D01*
X10814529Y240047D01*
X10972664Y134385D01*
X11148374Y61603D01*
X11334907Y24500D01*
X11525093Y24500D01*
X11711626Y61603D01*
X11887336Y134385D01*
X12045471Y240047D01*
X12179953Y374529D01*
X12285615Y532664D01*
X12358397Y708374D01*
X12395500Y894907D01*
X12395500Y1085093D01*
X12358397Y1271626D01*
X12285615Y1447336D01*
X12179953Y1605471D01*
X12045471Y1739953D01*
X11966371Y1792806D01*
X11887338Y1845614D01*
X11887333Y1845617D01*
X11711627Y1918397D01*
X11711624Y1918398D01*
X11525093Y1955500D01*
X11334907Y1955500D01*
X11148375Y1918398D01*
X11148372Y1918397D01*
X10972666Y1845617D01*
X10972661Y1845614D01*
X10814529Y1739954D01*
X10680046Y1605471D01*
X10614967Y1508072D01*
X10575193Y1481496D01*
X10528277Y1490828D01*
X10501701Y1530602D01*
X10500500Y1542795D01*
X10500500Y2977206D01*
X10518806Y3021400D01*
X10563000Y3039706D01*
X10607194Y3021400D01*
X10614967Y3011929D01*
X10680046Y2914530D01*
X10814529Y2780047D01*
X10972661Y2674387D01*
X10972666Y2674384D01*
X11060519Y2637994D01*
X11148374Y2601603D01*
X11334907Y2564500D01*
X11525093Y2564500D01*
X11711626Y2601603D01*
X11887336Y2674385D01*
X12045471Y2780047D01*
X12179953Y2914529D01*
X12285615Y3072664D01*
X12358397Y3248374D01*
X12395500Y3434907D01*
X12395500Y3625093D01*
X12358397Y3811626D01*
X12285615Y3987336D01*
X12179953Y4145471D01*
X12045471Y4279953D01*
X12045470Y4279954D01*
X11887338Y4385614D01*
X11887333Y4385617D01*
X11711627Y4458397D01*
X11711624Y4458398D01*
X11525093Y4495500D01*
X11334907Y4495500D01*
X11148375Y4458398D01*
X11148372Y4458397D01*
X10972666Y4385617D01*
X10972661Y4385614D01*
X10814529Y4279954D01*
X10680046Y4145471D01*
X10614967Y4048072D01*
X10575193Y4021496D01*
X10528277Y4030828D01*
X10501701Y4070602D01*
X10500500Y4082795D01*
X10500500Y5517206D01*
X10518806Y5561400D01*
X10563000Y5579706D01*
X10607194Y5561400D01*
X10614965Y5551932D01*
X10680047Y5454529D01*
X10814529Y5320047D01*
X10972664Y5214385D01*
X11148374Y5141603D01*
X11334907Y5104500D01*
X11525093Y5104500D01*
X11711626Y5141603D01*
X11887336Y5214385D01*
X12045471Y5320047D01*
X12179953Y5454529D01*
X12285615Y5612664D01*
X12358397Y5788374D01*
X12395500Y5974907D01*
X12395500Y6165093D01*
X12358397Y6351626D01*
X12309414Y6469881D01*
X12285616Y6527334D01*
X12285613Y6527339D01*
X12179953Y6685471D01*
X12045470Y6819954D01*
X11887338Y6925614D01*
X11887333Y6925617D01*
X11711627Y6998397D01*
X11711624Y6998398D01*
X11525093Y7035500D01*
X11334907Y7035500D01*
X11148375Y6998398D01*
X11148372Y6998397D01*
X10972666Y6925617D01*
X10972661Y6925614D01*
X10814529Y6819954D01*
X10680046Y6685471D01*
X10614967Y6588072D01*
X10575193Y6561496D01*
X10528277Y6570828D01*
X10501701Y6610602D01*
X10500500Y6622795D01*
X10500500Y8057206D01*
X10518806Y8101400D01*
X10563000Y8119706D01*
X10607194Y8101400D01*
X10614965Y8091932D01*
X10680047Y7994529D01*
X10814529Y7860047D01*
X10972664Y7754385D01*
X11148374Y7681603D01*
X11334907Y7644500D01*
X11525093Y7644500D01*
X11711626Y7681603D01*
X11887336Y7754385D01*
X12045471Y7860047D01*
X12179953Y7994529D01*
X12285615Y8152664D01*
X12358397Y8328374D01*
X12395500Y8514907D01*
X12395500Y8705093D01*
X12358397Y8891626D01*
X12285615Y9067336D01*
X12179953Y9225471D01*
X12045471Y9359953D01*
X11996303Y9392806D01*
X11887338Y9465614D01*
X11887333Y9465617D01*
X11711627Y9538397D01*
X11711624Y9538398D01*
X11525093Y9575500D01*
X11334907Y9575500D01*
X11148375Y9538398D01*
X11148372Y9538397D01*
X10972666Y9465617D01*
X10972661Y9465614D01*
X10814529Y9359954D01*
X10680049Y9225474D01*
X10612097Y9123777D01*
X10572323Y9097202D01*
X10525406Y9106534D01*
X10499760Y9142324D01*
X10492436Y9169655D01*
X10480021Y9215989D01*
X10440460Y9284511D01*
X10384511Y9340460D01*
X10123453Y9601518D01*
X9684516Y10040456D01*
X9684507Y10040463D01*
X9648880Y10061033D01*
X9648880Y10061032D01*
X9615991Y10080020D01*
X9615986Y10080022D01*
X9582269Y10089057D01*
X9544319Y10118178D01*
X9538076Y10165604D01*
X9554250Y10193619D01*
X9690977Y10330345D01*
X9805941Y10502402D01*
X9885130Y10693580D01*
X9925500Y10896535D01*
X9925500Y11103465D01*
X9897328Y11245094D01*
X10464500Y11245094D01*
X10464500Y11054907D01*
X10501602Y10868376D01*
X10501603Y10868373D01*
X10574383Y10692667D01*
X10574386Y10692662D01*
X10680046Y10534530D01*
X10814529Y10400047D01*
X10972661Y10294387D01*
X10972666Y10294384D01*
X11030117Y10270587D01*
X11148374Y10221603D01*
X11334907Y10184500D01*
X11525093Y10184500D01*
X11711626Y10221603D01*
X11887336Y10294385D01*
X12045471Y10400047D01*
X12179953Y10534529D01*
X12285615Y10692664D01*
X12358397Y10868374D01*
X12395500Y11054907D01*
X12395500Y11245093D01*
X12358397Y11431626D01*
X12285615Y11607336D01*
X12179953Y11765471D01*
X12045471Y11899953D01*
X12011109Y11922913D01*
X11887338Y12005614D01*
X11887333Y12005617D01*
X11711627Y12078397D01*
X11711624Y12078398D01*
X11525093Y12115500D01*
X11334907Y12115500D01*
X11148375Y12078398D01*
X11148372Y12078397D01*
X10972666Y12005617D01*
X10972661Y12005614D01*
X10814529Y11899954D01*
X10680046Y11765471D01*
X10574386Y11607339D01*
X10574383Y11607334D01*
X10501603Y11431628D01*
X10501602Y11431625D01*
X10464500Y11245094D01*
X9897328Y11245094D01*
X9885130Y11306420D01*
X9805941Y11497598D01*
X9805939Y11497600D01*
X9805939Y11497602D01*
X9690977Y11669655D01*
X9544654Y11815978D01*
X9372601Y11930940D01*
X9372598Y11930941D01*
X9181418Y12010131D01*
X8978465Y12050500D01*
X8521535Y12050500D01*
X8318581Y12010131D01*
X8127401Y11930941D01*
X8127398Y11930940D01*
X7955345Y11815978D01*
X7809022Y11669655D01*
X7694060Y11497602D01*
X7694059Y11497599D01*
X7614869Y11306419D01*
X7574500Y11103466D01*
X7574500Y10896535D01*
X7614869Y10693582D01*
X7694059Y10502402D01*
X7694060Y10502399D01*
X7809022Y10330346D01*
X7932174Y10207194D01*
X7950480Y10163000D01*
X7932174Y10118806D01*
X7887980Y10100500D01*
X5849013Y10100500D01*
X5804819Y10118806D01*
X3341197Y12582429D01*
X3341193Y12582432D01*
X3341192Y12582433D01*
X3272670Y12621994D01*
X3272669Y12621995D01*
X3272668Y12621995D01*
X3196248Y12642473D01*
X3196243Y12642473D01*
X-7837980Y12642473D01*
X-7882174Y12660779D01*
X-7900480Y12704973D01*
X-7882174Y12749167D01*
X-7869737Y12761604D01*
X-7809023Y12822318D01*
X-7694059Y12994375D01*
X-7628399Y13152891D01*
X-7594574Y13186716D01*
X-7570657Y13191473D01*
X174825Y13191473D01*
X219019Y13173167D01*
X292686Y13099500D01*
X406814Y13033608D01*
X406817Y13033607D01*
X484712Y13012736D01*
X534108Y12999500D01*
X534109Y12999500D01*
X665891Y12999500D01*
X665892Y12999500D01*
X793186Y13033608D01*
X907314Y13099500D01*
X989008Y13181194D01*
X1033202Y13199500D01*
X7570657Y13199500D01*
X7614851Y13181194D01*
X7628399Y13160918D01*
X7694059Y13002402D01*
X7694060Y13002399D01*
X7809022Y12830346D01*
X7955345Y12684023D01*
X8127398Y12569061D01*
X8127400Y12569061D01*
X8127402Y12569059D01*
X8318580Y12489870D01*
X8521535Y12449500D01*
X8978465Y12449500D01*
X9181420Y12489870D01*
X9372598Y12569059D01*
X9544655Y12684023D01*
X9690977Y12830345D01*
X9805941Y13002402D01*
X9885130Y13193580D01*
X9925500Y13396535D01*
X9925500Y13603465D01*
X9889372Y13785094D01*
X10464500Y13785094D01*
X10464500Y13594907D01*
X10501602Y13408376D01*
X10501603Y13408373D01*
X10574383Y13232667D01*
X10574386Y13232662D01*
X10680046Y13074530D01*
X10814529Y12940047D01*
X10972661Y12834387D01*
X10972666Y12834384D01*
X11030117Y12810587D01*
X11148374Y12761603D01*
X11334907Y12724500D01*
X11525093Y12724500D01*
X11711626Y12761603D01*
X11887336Y12834385D01*
X12045471Y12940047D01*
X12179953Y13074529D01*
X12285615Y13232664D01*
X12358397Y13408374D01*
X12395500Y13594907D01*
X12395500Y13785093D01*
X12358397Y13971626D01*
X12285615Y14147336D01*
X12179953Y14305471D01*
X12045471Y14439953D01*
X11952457Y14502103D01*
X11887338Y14545614D01*
X11887333Y14545617D01*
X11711627Y14618397D01*
X11711624Y14618398D01*
X11525093Y14655500D01*
X11334907Y14655500D01*
X11148375Y14618398D01*
X11148372Y14618397D01*
X10972666Y14545617D01*
X10972661Y14545614D01*
X10814529Y14439954D01*
X10680046Y14305471D01*
X10574386Y14147339D01*
X10574383Y14147334D01*
X10501603Y13971628D01*
X10501602Y13971625D01*
X10464500Y13785094D01*
X9889372Y13785094D01*
X9885130Y13806420D01*
X9805941Y13997598D01*
X9805939Y13997600D01*
X9805939Y13997602D01*
X9690977Y14169655D01*
X9544654Y14315978D01*
X9372601Y14430940D01*
X9372598Y14430941D01*
X9181418Y14510131D01*
X8978465Y14550500D01*
X8521535Y14550500D01*
X8318581Y14510131D01*
X8127401Y14430941D01*
X8127398Y14430940D01*
X7955345Y14315978D01*
X7809022Y14169655D01*
X7694060Y13997602D01*
X7694059Y13997599D01*
X7628399Y13839082D01*
X7594574Y13805257D01*
X7570657Y13800500D01*
X1033202Y13800500D01*
X989008Y13818806D01*
X907319Y13900496D01*
X907315Y13900499D01*
X907314Y13900500D01*
X850250Y13933446D01*
X793185Y13966393D01*
X793182Y13966394D01*
X665898Y14000499D01*
X665893Y14000500D01*
X665892Y14000500D01*
X534108Y14000500D01*
X534107Y14000500D01*
X534101Y14000499D01*
X406817Y13966394D01*
X406814Y13966393D01*
X292684Y13900499D01*
X292680Y13900496D01*
X202965Y13810779D01*
X158771Y13792473D01*
X-7570657Y13792473D01*
X-7614851Y13810779D01*
X-7628399Y13831055D01*
X-7657164Y13900499D01*
X-7694059Y13989571D01*
X-7694061Y13989573D01*
X-7694061Y13989575D01*
X-7809023Y14161628D01*
X-7955346Y14307951D01*
X-8127399Y14422913D01*
X-8127402Y14422914D01*
X-8318582Y14502104D01*
X-8521535Y14542473D01*
X-8978465Y14542473D01*
X-9181419Y14502104D01*
X-9372599Y14422914D01*
X-9372602Y14422913D01*
X-9544655Y14307951D01*
X-9690978Y14161628D01*
X-9805940Y13989575D01*
X-9805941Y13989572D01*
X-9885131Y13798392D01*
X-9925500Y13595439D01*
X-9925500Y13388508D01*
X-9885131Y13185555D01*
X-9805941Y12994375D01*
X-9805940Y12994372D01*
X-9690978Y12822319D01*
X-9617826Y12749167D01*
X-9599520Y12704973D01*
X-9617826Y12660779D01*
X-9662020Y12642473D01*
X-9931614Y12642473D01*
X-9975808Y12660779D01*
X-10537039Y13222010D01*
X-10555345Y13266204D01*
X-10550589Y13290117D01*
X-10501603Y13408374D01*
X-10464500Y13594907D01*
X-10464500Y13785093D01*
X-10501603Y13971626D01*
X-10574385Y14147336D01*
X-10680047Y14305471D01*
X-10814529Y14439953D01*
X-10907543Y14502103D01*
X-10972662Y14545614D01*
X-10972667Y14545617D01*
X-11148373Y14618397D01*
X-11148376Y14618398D01*
X-11334907Y14655500D01*
X-11525093Y14655500D01*
X-11711625Y14618398D01*
X-11711628Y14618397D01*
X-11887334Y14545617D01*
X-11887339Y14545614D01*
X-12045471Y14439954D01*
X-12045473Y14439952D01*
X-12087806Y14397618D01*
X-12132000Y14379312D01*
X-12176194Y14397618D01*
X-12194500Y14441812D01*
X-12194500Y15478188D01*
X-12176194Y15522382D01*
X-12132000Y15540688D01*
X-12087806Y15522382D01*
X-12045471Y15480047D01*
X-11887336Y15374385D01*
X-11711626Y15301603D01*
X-11525093Y15264500D01*
X-11334907Y15264500D01*
X-11148374Y15301603D01*
X-10972664Y15374385D01*
X-10814529Y15480047D01*
X-10680047Y15614529D01*
X-10574385Y15772664D01*
X-10501603Y15948374D01*
X-10472351Y16095439D01*
X-9925500Y16095439D01*
X-9925500Y15888508D01*
X-9885131Y15685555D01*
X-9805941Y15494375D01*
X-9805940Y15494372D01*
X-9690978Y15322319D01*
X-9544655Y15175996D01*
X-9372602Y15061034D01*
X-9372600Y15061034D01*
X-9372598Y15061032D01*
X-9181420Y14981843D01*
X-8978465Y14941473D01*
X-8521535Y14941473D01*
X-8318580Y14981843D01*
X-8127402Y15061032D01*
X-7955345Y15175996D01*
X-7809023Y15322318D01*
X-7694059Y15494375D01*
X-7614870Y15685553D01*
X-7574500Y15888508D01*
X-7574500Y16065891D01*
X-1700500Y16065891D01*
X-1700500Y15934110D01*
X-1700499Y15934102D01*
X-1666394Y15806818D01*
X-1666393Y15806815D01*
X-1600499Y15692685D01*
X-1600496Y15692681D01*
X-1507320Y15599505D01*
X-1507316Y15599502D01*
X-1507314Y15599500D01*
X-1405449Y15540688D01*
X-1393186Y15533608D01*
X-1393183Y15533607D01*
X-1351290Y15522382D01*
X-1265892Y15499500D01*
X-1265891Y15499500D01*
X-1134109Y15499500D01*
X-1134108Y15499500D01*
X-1006814Y15533608D01*
X-892686Y15599500D01*
X-810992Y15681194D01*
X-766798Y15699500D01*
X7570657Y15699500D01*
X7614851Y15681194D01*
X7628399Y15660918D01*
X7694059Y15502402D01*
X7694060Y15502399D01*
X7809022Y15330346D01*
X7955345Y15184023D01*
X8127398Y15069061D01*
X8127400Y15069061D01*
X8127402Y15069059D01*
X8318580Y14989870D01*
X8521535Y14949500D01*
X8978465Y14949500D01*
X9181420Y14989870D01*
X9372598Y15069059D01*
X9544655Y15184023D01*
X9690977Y15330345D01*
X9805941Y15502402D01*
X9885130Y15693580D01*
X9925500Y15896535D01*
X9925500Y16103465D01*
X9885130Y16306420D01*
X9877395Y16325094D01*
X10464500Y16325094D01*
X10464500Y16134907D01*
X10501602Y15948376D01*
X10501603Y15948373D01*
X10574383Y15772667D01*
X10574386Y15772662D01*
X10632589Y15685555D01*
X10680047Y15614529D01*
X10814529Y15480047D01*
X10972664Y15374385D01*
X11148374Y15301603D01*
X11334907Y15264500D01*
X11525093Y15264500D01*
X11711626Y15301603D01*
X11887336Y15374385D01*
X12045471Y15480047D01*
X12179953Y15614529D01*
X12285615Y15772664D01*
X12358397Y15948374D01*
X12395500Y16134907D01*
X12395500Y16325093D01*
X12358397Y16511626D01*
X12285615Y16687336D01*
X12179953Y16845471D01*
X12045471Y16979953D01*
X12045470Y16979954D01*
X11887338Y17085614D01*
X11887333Y17085617D01*
X11711627Y17158397D01*
X11711624Y17158398D01*
X11525093Y17195500D01*
X11334907Y17195500D01*
X11148375Y17158398D01*
X11148372Y17158397D01*
X10972666Y17085617D01*
X10972661Y17085614D01*
X10814529Y16979954D01*
X10680046Y16845471D01*
X10574386Y16687339D01*
X10574383Y16687334D01*
X10501603Y16511628D01*
X10501602Y16511625D01*
X10464500Y16325094D01*
X9877395Y16325094D01*
X9805941Y16497598D01*
X9805939Y16497600D01*
X9805939Y16497602D01*
X9690977Y16669655D01*
X9544654Y16815978D01*
X9372601Y16930940D01*
X9372598Y16930941D01*
X9181418Y17010131D01*
X8978465Y17050500D01*
X8521535Y17050500D01*
X8318581Y17010131D01*
X8127401Y16930941D01*
X8127398Y16930940D01*
X7955345Y16815978D01*
X7809022Y16669655D01*
X7694060Y16497602D01*
X7694059Y16497599D01*
X7628399Y16339082D01*
X7594574Y16305257D01*
X7570657Y16300500D01*
X-766798Y16300500D01*
X-810992Y16318806D01*
X-892681Y16400496D01*
X-892685Y16400499D01*
X-892686Y16400500D01*
X-949750Y16433446D01*
X-1006815Y16466393D01*
X-1006818Y16466394D01*
X-1134102Y16500499D01*
X-1134107Y16500500D01*
X-1134108Y16500500D01*
X-1265892Y16500500D01*
X-1265893Y16500500D01*
X-1265899Y16500499D01*
X-1393183Y16466394D01*
X-1393186Y16466393D01*
X-1507316Y16400499D01*
X-1507320Y16400496D01*
X-1600496Y16307320D01*
X-1600499Y16307316D01*
X-1666393Y16193186D01*
X-1666394Y16193183D01*
X-1700499Y16065899D01*
X-1700500Y16065891D01*
X-7574500Y16065891D01*
X-7574500Y16095438D01*
X-7614870Y16298393D01*
X-7694059Y16489571D01*
X-7694061Y16489573D01*
X-7694061Y16489575D01*
X-7809023Y16661628D01*
X-7955346Y16807951D01*
X-8127399Y16922913D01*
X-8127402Y16922914D01*
X-8318582Y17002104D01*
X-8521535Y17042473D01*
X-8978465Y17042473D01*
X-9181419Y17002104D01*
X-9372599Y16922914D01*
X-9372602Y16922913D01*
X-9544655Y16807951D01*
X-9690978Y16661628D01*
X-9805940Y16489575D01*
X-9805941Y16489572D01*
X-9885131Y16298392D01*
X-9925500Y16095439D01*
X-10472351Y16095439D01*
X-10464500Y16134907D01*
X-10464500Y16325093D01*
X-10501603Y16511626D01*
X-10574385Y16687336D01*
X-10680047Y16845471D01*
X-10814529Y16979953D01*
X-10814530Y16979954D01*
X-10972662Y17085614D01*
X-10972667Y17085617D01*
X-11148373Y17158397D01*
X-11148376Y17158398D01*
X-11334907Y17195500D01*
X-11394779Y17195500D01*
X-11438973Y17213806D01*
X-11457279Y17258000D01*
X-11438973Y17302194D01*
X-11354973Y17386194D01*
X-11310779Y17404500D01*
X-9497411Y17404500D01*
X-9497406Y17404501D01*
X-9474702Y17410586D01*
X-9420984Y17424979D01*
X-9352462Y17464540D01*
X-9319659Y17497344D01*
X-9275466Y17515649D01*
X-9251547Y17510891D01*
X-9181420Y17481843D01*
X-8978465Y17441473D01*
X-8521535Y17441473D01*
X-8318580Y17481843D01*
X-8127402Y17561032D01*
X-7955345Y17675996D01*
X-7809023Y17822318D01*
X-7694059Y17994375D01*
X-7614870Y18185553D01*
X-7574500Y18388508D01*
X-7574500Y18565891D01*
X-4300500Y18565891D01*
X-4300500Y18434110D01*
X-4300499Y18434102D01*
X-4266394Y18306818D01*
X-4266393Y18306815D01*
X-4200499Y18192685D01*
X-4200496Y18192681D01*
X-4107320Y18099505D01*
X-4107316Y18099502D01*
X-4107314Y18099500D01*
X-4011327Y18044082D01*
X-3993186Y18033608D01*
X-3993183Y18033607D01*
X-3956604Y18023806D01*
X-3865892Y17999500D01*
X-3865891Y17999500D01*
X-3734109Y17999500D01*
X-3734108Y17999500D01*
X-3606814Y18033608D01*
X-3492686Y18099500D01*
X-3410992Y18181194D01*
X-3366798Y18199500D01*
X7570657Y18199500D01*
X7614851Y18181194D01*
X7628399Y18160918D01*
X7694059Y18002402D01*
X7694060Y18002399D01*
X7809022Y17830346D01*
X7955345Y17684023D01*
X8127398Y17569061D01*
X8127400Y17569061D01*
X8127402Y17569059D01*
X8318580Y17489870D01*
X8521535Y17449500D01*
X8978465Y17449500D01*
X9181420Y17489870D01*
X9372598Y17569059D01*
X9544655Y17684023D01*
X9690977Y17830345D01*
X9805941Y18002402D01*
X9885130Y18193580D01*
X9925500Y18396535D01*
X9925500Y18603465D01*
X9885130Y18806420D01*
X9860826Y18865094D01*
X10464500Y18865094D01*
X10464500Y18674907D01*
X10501602Y18488376D01*
X10501603Y18488373D01*
X10574383Y18312667D01*
X10574386Y18312662D01*
X10680046Y18154530D01*
X10814529Y18020047D01*
X10972661Y17914387D01*
X10972666Y17914384D01*
X11060519Y17877994D01*
X11148374Y17841603D01*
X11334907Y17804500D01*
X11525093Y17804500D01*
X11711626Y17841603D01*
X11887336Y17914385D01*
X12045471Y18020047D01*
X12179953Y18154529D01*
X12285615Y18312664D01*
X12358397Y18488374D01*
X12395500Y18674907D01*
X12395500Y18865093D01*
X12358397Y19051626D01*
X12285615Y19227336D01*
X12179953Y19385471D01*
X12045471Y19519953D01*
X12045470Y19519954D01*
X11887338Y19625614D01*
X11887333Y19625617D01*
X11711627Y19698397D01*
X11711624Y19698398D01*
X11525093Y19735500D01*
X11334907Y19735500D01*
X11148375Y19698398D01*
X11148372Y19698397D01*
X10972666Y19625617D01*
X10972661Y19625614D01*
X10814529Y19519954D01*
X10680046Y19385471D01*
X10574386Y19227339D01*
X10574383Y19227334D01*
X10501603Y19051628D01*
X10501602Y19051625D01*
X10464500Y18865094D01*
X9860826Y18865094D01*
X9805941Y18997598D01*
X9805939Y18997600D01*
X9805939Y18997602D01*
X9690977Y19169655D01*
X9544654Y19315978D01*
X9372601Y19430940D01*
X9372598Y19430941D01*
X9181418Y19510131D01*
X8978465Y19550500D01*
X8521535Y19550500D01*
X8318581Y19510131D01*
X8127401Y19430941D01*
X8127398Y19430940D01*
X7955345Y19315978D01*
X7809022Y19169655D01*
X7694060Y18997602D01*
X7694059Y18997599D01*
X7628399Y18839082D01*
X7594574Y18805257D01*
X7570657Y18800500D01*
X-3366798Y18800500D01*
X-3410992Y18818806D01*
X-3492681Y18900496D01*
X-3492685Y18900499D01*
X-3492686Y18900500D01*
X-3549750Y18933446D01*
X-3606815Y18966393D01*
X-3606818Y18966394D01*
X-3734102Y19000499D01*
X-3734107Y19000500D01*
X-3734108Y19000500D01*
X-3865892Y19000500D01*
X-3865893Y19000500D01*
X-3865899Y19000499D01*
X-3993183Y18966394D01*
X-3993186Y18966393D01*
X-4107316Y18900499D01*
X-4107320Y18900496D01*
X-4200496Y18807320D01*
X-4200499Y18807316D01*
X-4266393Y18693186D01*
X-4266394Y18693183D01*
X-4300499Y18565899D01*
X-4300500Y18565891D01*
X-7574500Y18565891D01*
X-7574500Y18595438D01*
X-7614870Y18798393D01*
X-7694059Y18989571D01*
X-7694061Y18989573D01*
X-7694061Y18989575D01*
X-7809023Y19161628D01*
X-7955346Y19307951D01*
X-8127399Y19422913D01*
X-8127402Y19422914D01*
X-8318582Y19502104D01*
X-8455518Y19529342D01*
X-8495292Y19555918D01*
X-8504624Y19602834D01*
X-8478048Y19642608D01*
X-8453102Y19652372D01*
X-8308870Y19675217D01*
X-8106782Y19740879D01*
X-8106779Y19740880D01*
X-7917446Y19837351D01*
X-7745527Y19962258D01*
X-7595285Y20112500D01*
X-7470378Y20284419D01*
X-7373907Y20473752D01*
X-7373906Y20473755D01*
X-7308244Y20675844D01*
X-7308242Y20675853D01*
X-7297769Y20741973D01*
X-8345854Y20741973D01*
X-8307370Y20808630D01*
X-8275000Y20929438D01*
X-8275000Y21054508D01*
X-8307370Y21175316D01*
X-8345854Y21241973D01*
X-7297769Y21241973D01*
X-7297769Y21241974D01*
X-7308242Y21308094D01*
X-7308244Y21308103D01*
X-7373906Y21510192D01*
X-7373907Y21510195D01*
X-7470378Y21699528D01*
X-7595285Y21871447D01*
X-7745527Y22021689D01*
X-7917446Y22146596D01*
X-8106779Y22243067D01*
X-8106782Y22243068D01*
X-8308876Y22308732D01*
X-8500000Y22339004D01*
X-8500000Y21396119D01*
X-8566657Y21434603D01*
X-8687465Y21466973D01*
X-8812535Y21466973D01*
X-8933343Y21434603D01*
X-9000000Y21396119D01*
X-9000000Y22339004D01*
X-9000001Y22339004D01*
X-9191124Y22308732D01*
X-9191125Y22308732D01*
X-9393219Y22243068D01*
X-9393222Y22243067D01*
X-9582555Y22146596D01*
X-9754474Y22021689D01*
X-9904716Y21871447D01*
X-10029623Y21699528D01*
X-10126094Y21510195D01*
X-10126095Y21510192D01*
X-10191757Y21308103D01*
X-10191759Y21308094D01*
X-10202232Y21241974D01*
X-10202231Y21241973D01*
X-9154146Y21241973D01*
X-9192630Y21175316D01*
X-9225000Y21054508D01*
X-9225000Y20929438D01*
X-9192630Y20808630D01*
X-9154146Y20741973D01*
X-10202232Y20741973D01*
X-10191759Y20675853D01*
X-10191757Y20675844D01*
X-10126095Y20473755D01*
X-10126094Y20473752D01*
X-10029623Y20284419D01*
X-9904716Y20112500D01*
X-9754474Y19962258D01*
X-9582555Y19837351D01*
X-9393222Y19740880D01*
X-9393219Y19740879D01*
X-9191125Y19675215D01*
X-9046899Y19652371D01*
X-9006112Y19627377D01*
X-8994946Y19580864D01*
X-9019940Y19540077D01*
X-9044483Y19529342D01*
X-9181419Y19502104D01*
X-9372599Y19422914D01*
X-9372602Y19422913D01*
X-9544655Y19307951D01*
X-9690978Y19161628D01*
X-9805940Y18989575D01*
X-9805941Y18989572D01*
X-9885131Y18798392D01*
X-9925500Y18595439D01*
X-9925500Y18388508D01*
X-9885131Y18185555D01*
X-9885131Y18185554D01*
X-9846345Y18091918D01*
X-9846345Y18044082D01*
X-9880169Y18010258D01*
X-9904087Y18005500D01*
X-10678188Y18005500D01*
X-10722382Y18023806D01*
X-10740688Y18068000D01*
X-10722382Y18112194D01*
X-10680047Y18154529D01*
X-10574385Y18312664D01*
X-10501603Y18488374D01*
X-10464500Y18674907D01*
X-10464500Y18865093D01*
X-10501603Y19051626D01*
X-10574385Y19227336D01*
X-10680047Y19385471D01*
X-10814529Y19519953D01*
X-10814530Y19519954D01*
X-10972662Y19625614D01*
X-10972667Y19625617D01*
X-11148373Y19698397D01*
X-11148376Y19698398D01*
X-11334907Y19735500D01*
X-11525093Y19735500D01*
X-11711625Y19698398D01*
X-11711628Y19698397D01*
X-11887334Y19625617D01*
X-11887339Y19625614D01*
X-12045471Y19519954D01*
X-12179954Y19385471D01*
X-12285614Y19227339D01*
X-12285617Y19227334D01*
X-12358397Y19051628D01*
X-12358398Y19051625D01*
X-12395500Y18865094D01*
X-12395500Y18674907D01*
X-12358398Y18488376D01*
X-12358397Y18488373D01*
X-12285617Y18312667D01*
X-12285614Y18312662D01*
X-12197770Y18181194D01*
X-12179953Y18154529D01*
X-12045471Y18020047D01*
X-11887336Y17914385D01*
X-11824829Y17888494D01*
X-11791005Y17854670D01*
X-11791004Y17806835D01*
X-11804553Y17786558D01*
X-12505492Y17085617D01*
X-12679511Y16911598D01*
X-12707485Y16883624D01*
X-12735459Y16855651D01*
X-12775022Y16787127D01*
X-12775022Y16787125D01*
X-12795500Y16710706D01*
X-12795500Y7095433D01*
X-12775021Y7019011D01*
X-12775021Y7019010D01*
X-12761024Y6994768D01*
X-12761023Y6994766D01*
X-12735460Y6950489D01*
X-12322963Y6537992D01*
X-12304657Y6493798D01*
X-12309414Y6469881D01*
X-12358398Y6351624D01*
X-12395500Y6165094D01*
X-12395500Y5974907D01*
X-12358398Y5788376D01*
X-12358397Y5788373D01*
X-12285617Y5612667D01*
X-12285614Y5612662D01*
X-12198163Y5481782D01*
X-12179953Y5454529D01*
X-12045471Y5320047D01*
X-11887336Y5214385D01*
X-11711626Y5141603D01*
X-11525093Y5104500D01*
X-11334907Y5104500D01*
X-11148374Y5141603D01*
X-10972664Y5214385D01*
X-10814529Y5320047D01*
X-10680047Y5454529D01*
X-10574385Y5612664D01*
X-10501603Y5788374D01*
X-10464500Y5974907D01*
X-10464500Y6165093D01*
X-10501603Y6351626D01*
X-10550586Y6469881D01*
X-10574384Y6527334D01*
X-10574387Y6527339D01*
X-10631608Y6612977D01*
X-10653831Y6646236D01*
X-9925500Y6646236D01*
X-9925500Y5337711D01*
X-9922647Y5307277D01*
X-9922646Y5307272D01*
X-9877793Y5179091D01*
X-9877793Y5179090D01*
X-9850126Y5141603D01*
X-9797150Y5069823D01*
X-9687882Y4989180D01*
X-9559699Y4944327D01*
X-9529266Y4941473D01*
X-9529262Y4941473D01*
X-7970738Y4941473D01*
X-7970734Y4941473D01*
X-7940301Y4944327D01*
X-7812118Y4989180D01*
X-7702850Y5069823D01*
X-7622207Y5179091D01*
X-7577354Y5307274D01*
X-7574500Y5337707D01*
X-7574500Y6646239D01*
X-7577354Y6676672D01*
X-7622207Y6804855D01*
X-7633350Y6819953D01*
X-7648217Y6840098D01*
X-7702850Y6914123D01*
X-7812118Y6994766D01*
X-7822498Y6998398D01*
X-7940299Y7039619D01*
X-7940304Y7039620D01*
X-7960301Y7041495D01*
X-7970734Y7042473D01*
X-9529266Y7042473D01*
X-9538876Y7041572D01*
X-9559697Y7039620D01*
X-9559702Y7039619D01*
X-9687883Y6994766D01*
X-9687884Y6994766D01*
X-9797150Y6914123D01*
X-9877793Y6804857D01*
X-9877793Y6804856D01*
X-9922646Y6676675D01*
X-9922647Y6676670D01*
X-9925500Y6646236D01*
X-10653831Y6646236D01*
X-10680047Y6685471D01*
X-10814530Y6819954D01*
X-10972662Y6925614D01*
X-10972667Y6925617D01*
X-11148373Y6998397D01*
X-11148376Y6998398D01*
X-11334907Y7035500D01*
X-11525093Y7035500D01*
X-11711624Y6998398D01*
X-11829881Y6949414D01*
X-11877716Y6949415D01*
X-11897992Y6962963D01*
X-12176194Y7241165D01*
X-12194500Y7285359D01*
X-12194500Y7858188D01*
X-12176194Y7902382D01*
X-12132000Y7920688D01*
X-12087806Y7902382D01*
X-12045471Y7860047D01*
X-11887336Y7754385D01*
X-11711626Y7681603D01*
X-11525093Y7644500D01*
X-11334907Y7644500D01*
X-11148374Y7681603D01*
X-10972664Y7754385D01*
X-10814529Y7860047D01*
X-10680047Y7994529D01*
X-10574385Y8152664D01*
X-10501603Y8328374D01*
X-10464500Y8514907D01*
X-10464500Y8705093D01*
X-10501603Y8891626D01*
X-10574385Y9067336D01*
X-10680047Y9225471D01*
X-10814529Y9359953D01*
X-10863697Y9392806D01*
X-10972662Y9465614D01*
X-10972667Y9465617D01*
X-11148373Y9538397D01*
X-11148376Y9538398D01*
X-11334907Y9575500D01*
X-11525093Y9575500D01*
X-11711625Y9538398D01*
X-11711628Y9538397D01*
X-11887334Y9465617D01*
X-11887339Y9465614D01*
X-12045471Y9359954D01*
X-12045473Y9359952D01*
X-12087806Y9317618D01*
X-12132000Y9299312D01*
X-12176194Y9317618D01*
X-12194500Y9361812D01*
X-12194500Y10398188D01*
X-12176194Y10442382D01*
X-12132000Y10460688D01*
X-12087806Y10442382D01*
X-12045471Y10400047D01*
X-11887339Y10294387D01*
X-11887334Y10294384D01*
X-11829883Y10270587D01*
X-11711626Y10221603D01*
X-11525093Y10184500D01*
X-11334907Y10184500D01*
X-11148374Y10221603D01*
X-11030120Y10270588D01*
X-10982287Y10270588D01*
X-10962010Y10257039D01*
X-10306490Y9601518D01*
X-10306481Y9601511D01*
X-10237967Y9561954D01*
X-10237964Y9561953D01*
X-10237961Y9561951D01*
X-10237960Y9561951D01*
X-10237958Y9561950D01*
X-10191194Y9549420D01*
X-10161535Y9541473D01*
X-9400303Y9541473D01*
X-9356109Y9523167D01*
X-9337803Y9478973D01*
X-9356109Y9434779D01*
X-9370846Y9423850D01*
X-9372601Y9422913D01*
X-9544655Y9307951D01*
X-9690978Y9161628D01*
X-9805940Y8989575D01*
X-9805941Y8989572D01*
X-9885131Y8798392D01*
X-9925500Y8595439D01*
X-9925500Y8388508D01*
X-9885131Y8185555D01*
X-9805941Y7994375D01*
X-9805940Y7994372D01*
X-9690978Y7822319D01*
X-9544655Y7675996D01*
X-9372602Y7561034D01*
X-9372600Y7561034D01*
X-9372598Y7561032D01*
X-9181420Y7481843D01*
X-8978465Y7441473D01*
X-8521535Y7441473D01*
X-8318580Y7481843D01*
X-8127402Y7561032D01*
X-7955345Y7675996D01*
X-7809023Y7822318D01*
X-7694059Y7994375D01*
X-7628399Y8152891D01*
X-7594574Y8186716D01*
X-7570657Y8191473D01*
X-4225175Y8191473D01*
X-4180981Y8173167D01*
X-4107314Y8099500D01*
X-3993186Y8033608D01*
X-3993183Y8033607D01*
X-3928595Y8016301D01*
X-3865892Y7999500D01*
X-3865891Y7999500D01*
X-3734109Y7999500D01*
X-3734108Y7999500D01*
X-3606814Y8033608D01*
X-3492686Y8099500D01*
X-3399500Y8192686D01*
X-3333608Y8306814D01*
X-3299500Y8434108D01*
X-3299500Y8565892D01*
X-3333608Y8693186D01*
X-3399500Y8807314D01*
X-3399502Y8807316D01*
X-3399505Y8807320D01*
X-3492681Y8900496D01*
X-3492685Y8900499D01*
X-3492686Y8900500D01*
X-3549750Y8933446D01*
X-3606815Y8966393D01*
X-3606818Y8966394D01*
X-3734102Y9000499D01*
X-3734107Y9000500D01*
X-3734108Y9000500D01*
X-3865892Y9000500D01*
X-3865893Y9000500D01*
X-3865899Y9000499D01*
X-3993183Y8966394D01*
X-3993186Y8966393D01*
X-4107316Y8900499D01*
X-4107320Y8900496D01*
X-4197035Y8810779D01*
X-4241229Y8792473D01*
X-7570657Y8792473D01*
X-7614851Y8810779D01*
X-7628399Y8831055D01*
X-7653489Y8891626D01*
X-7694059Y8989571D01*
X-7694061Y8989573D01*
X-7694061Y8989575D01*
X-7809023Y9161628D01*
X-7955346Y9307951D01*
X-8127400Y9422913D01*
X-8129154Y9423850D01*
X-8129581Y9424370D01*
X-8129955Y9424620D01*
X-8129880Y9424734D01*
X-8159504Y9460824D01*
X-8154820Y9508430D01*
X-8117846Y9538780D01*
X-8099697Y9541473D01*
X1707668Y9541473D01*
X1751862Y9523167D01*
X2959540Y8315489D01*
X3015489Y8259540D01*
X3084011Y8219979D01*
X3107396Y8213713D01*
X3160432Y8199501D01*
X3160438Y8199500D01*
X7570657Y8199500D01*
X7614851Y8181194D01*
X7628399Y8160918D01*
X7694059Y8002402D01*
X7694060Y8002399D01*
X7809022Y7830346D01*
X7955345Y7684023D01*
X8127398Y7569061D01*
X8127400Y7569061D01*
X8127402Y7569059D01*
X8318580Y7489870D01*
X8455517Y7462632D01*
X8495291Y7436056D01*
X8504623Y7389140D01*
X8478047Y7349366D01*
X8453102Y7339603D01*
X8308874Y7316759D01*
X8106781Y7251095D01*
X8106778Y7251094D01*
X7917445Y7154623D01*
X7745526Y7029716D01*
X7595284Y6879474D01*
X7470377Y6707555D01*
X7373906Y6518222D01*
X7373905Y6518219D01*
X7308243Y6316130D01*
X7308241Y6316121D01*
X7297768Y6250001D01*
X7297769Y6250000D01*
X8345854Y6250000D01*
X8307370Y6183343D01*
X8275000Y6062535D01*
X8275000Y5937465D01*
X8307370Y5816657D01*
X8345854Y5750000D01*
X7297768Y5750000D01*
X7308241Y5683880D01*
X7308243Y5683871D01*
X7373905Y5481782D01*
X7373906Y5481779D01*
X7470377Y5292446D01*
X7595284Y5120527D01*
X7745526Y4970285D01*
X7917445Y4845378D01*
X8106778Y4748907D01*
X8106781Y4748906D01*
X8308868Y4683244D01*
X8500000Y4652972D01*
X8500000Y5595855D01*
X8566657Y5557370D01*
X8687465Y5525000D01*
X8812535Y5525000D01*
X8933343Y5557370D01*
X9000000Y5595855D01*
X9000000Y4652972D01*
X9191131Y4683244D01*
X9393218Y4748906D01*
X9393221Y4748907D01*
X9582554Y4845378D01*
X9754469Y4970282D01*
X9792805Y5008618D01*
X9836999Y5026924D01*
X9881194Y5008619D01*
X9899500Y4964425D01*
X9899500Y970418D01*
X9881194Y926224D01*
X9837000Y907918D01*
X9799886Y920131D01*
X9687883Y1002793D01*
X9559701Y1047646D01*
X9559696Y1047647D01*
X9539699Y1049522D01*
X9529266Y1050500D01*
X9529262Y1050500D01*
X8150359Y1050500D01*
X8106165Y1068806D01*
X6734508Y2440463D01*
X6725066Y2445914D01*
X6725066Y2445913D01*
X6665989Y2480021D01*
X6665986Y2480022D01*
X6589567Y2500500D01*
X6589562Y2500500D01*
X-11078251Y2500500D01*
X-11122445Y2518806D01*
X-11140751Y2563000D01*
X-11122445Y2607194D01*
X-11102169Y2620742D01*
X-10991961Y2666392D01*
X-10972664Y2674385D01*
X-10814529Y2780047D01*
X-10680047Y2914529D01*
X-10574385Y3072664D01*
X-10501603Y3248374D01*
X-10464500Y3434907D01*
X-10464500Y3625093D01*
X-10501603Y3811626D01*
X-10574385Y3987336D01*
X-10680047Y4145471D01*
X-10814529Y4279953D01*
X-10814530Y4279954D01*
X-10972662Y4385614D01*
X-10972667Y4385617D01*
X-11148373Y4458397D01*
X-11148376Y4458398D01*
X-11334907Y4495500D01*
X-11525093Y4495500D01*
X-11711625Y4458398D01*
X-11711628Y4458397D01*
X-11887334Y4385617D01*
X-11887339Y4385614D01*
X-12045471Y4279954D01*
X-12179954Y4145471D01*
X-12285614Y3987339D01*
X-12285617Y3987334D01*
X-12358397Y3811628D01*
X-12358398Y3811625D01*
X-12395500Y3625094D01*
X-12395500Y3434907D01*
X-12358398Y3248376D01*
X-12358397Y3248373D01*
X-12285617Y3072667D01*
X-12285614Y3072662D01*
X-12179954Y2914530D01*
X-12045471Y2780047D01*
X-11887339Y2674387D01*
X-11887334Y2674384D01*
X-11757831Y2620742D01*
X-11724007Y2586918D01*
X-11724007Y2539082D01*
X-11757831Y2505258D01*
X-11781749Y2500500D01*
X-14566798Y2500500D01*
X-14610992Y2518806D01*
X-14692681Y2600496D01*
X-14692685Y2600499D01*
X-14692686Y2600500D01*
X-14749750Y2633446D01*
X-14806815Y2666393D01*
X-14806818Y2666394D01*
X-14934102Y2700499D01*
X-14934107Y2700500D01*
X-14934108Y2700500D01*
X-15065892Y2700500D01*
X-15065893Y2700500D01*
X-15065899Y2700499D01*
X-15193183Y2666394D01*
X-15193186Y2666393D01*
X-15307316Y2600499D01*
X-15307320Y2600496D01*
X-15400496Y2507320D01*
X-15400499Y2507316D01*
X-15466393Y2393186D01*
X-15466394Y2393183D01*
X-15500499Y2265899D01*
X-15500500Y2265891D01*
X-19499500Y2265891D01*
X-19499500Y21405094D01*
X-12395500Y21405094D01*
X-12395500Y21214907D01*
X-12358398Y21028376D01*
X-12358397Y21028373D01*
X-12285617Y20852667D01*
X-12285614Y20852662D01*
X-12229753Y20769060D01*
X-12179953Y20694529D01*
X-12045471Y20560047D01*
X-11887336Y20454385D01*
X-11711626Y20381603D01*
X-11525093Y20344500D01*
X-11334907Y20344500D01*
X-11148374Y20381603D01*
X-10972664Y20454385D01*
X-10814529Y20560047D01*
X-10680047Y20694529D01*
X-10574385Y20852664D01*
X-10501603Y21028374D01*
X-10464500Y21214907D01*
X-10464500Y21405093D01*
X-10501603Y21591626D01*
X-10550588Y21709882D01*
X-10550588Y21757715D01*
X-10537042Y21777989D01*
X-9745281Y22569749D01*
X-4830500Y22569749D01*
X-4830500Y20830252D01*
X-4818868Y20771770D01*
X-4818867Y20771768D01*
X-4774553Y20705448D01*
X-4708233Y20661134D01*
X-4708231Y20661133D01*
X-4649748Y20649500D01*
X-2910252Y20649500D01*
X-2851769Y20661133D01*
X-2785448Y20705448D01*
X-2741133Y20771769D01*
X-2729500Y20830252D01*
X-2729500Y22569748D01*
X-2741133Y22628231D01*
X-2742943Y22630940D01*
X-2785448Y22694553D01*
X-2851768Y22738867D01*
X-2851770Y22738868D01*
X-2910252Y22750500D01*
X-4649748Y22750500D01*
X-4708231Y22738868D01*
X-4708233Y22738867D01*
X-4774553Y22694553D01*
X-4818867Y22628233D01*
X-4818868Y22628231D01*
X-4830500Y22569749D01*
X-9745281Y22569749D01*
X-9233835Y23081194D01*
X-9189641Y23099500D01*
X-1696082Y23099500D01*
X-1651888Y23081194D01*
X-1633582Y23037000D01*
X-1651888Y22992806D01*
X-1676768Y22977559D01*
X-1758219Y22951095D01*
X-1758222Y22951094D01*
X-1947555Y22854623D01*
X-2119474Y22729716D01*
X-2269716Y22579474D01*
X-2394623Y22407555D01*
X-2491094Y22218222D01*
X-2491095Y22218219D01*
X-2556757Y22016130D01*
X-2556759Y22016121D01*
X-2567232Y21950001D01*
X-2567231Y21950000D01*
X-1730748Y21950000D01*
X-1752518Y21912292D01*
X-1790000Y21772409D01*
X-1790000Y21627591D01*
X-1752518Y21487708D01*
X-1730748Y21450000D01*
X-2567232Y21450000D01*
X-2556759Y21383880D01*
X-2556757Y21383871D01*
X-2491095Y21181782D01*
X-2491094Y21181779D01*
X-2394623Y20992446D01*
X-2269716Y20820527D01*
X-2119474Y20670285D01*
X-1947555Y20545378D01*
X-1758222Y20448907D01*
X-1758219Y20448906D01*
X-1556130Y20383244D01*
X-1556121Y20383242D01*
X-1490001Y20372769D01*
X-1490000Y20372769D01*
X-1490000Y21209253D01*
X-1452292Y21187482D01*
X-1312409Y21150000D01*
X-1167591Y21150000D01*
X-1027708Y21187482D01*
X-990000Y21209253D01*
X-990000Y20372769D01*
X-923880Y20383242D01*
X-923871Y20383244D01*
X-721782Y20448906D01*
X-721779Y20448907D01*
X-532446Y20545378D01*
X-360527Y20670285D01*
X-210285Y20820527D01*
X-85378Y20992446D01*
X11093Y21181779D01*
X11094Y21181782D01*
X76756Y21383871D01*
X76758Y21383880D01*
X87231Y21450000D01*
X-749252Y21450000D01*
X-727482Y21487708D01*
X-690000Y21627591D01*
X-690000Y21772409D01*
X-698322Y21803466D01*
X249500Y21803466D01*
X249500Y21596535D01*
X289869Y21393582D01*
X369059Y21202402D01*
X369060Y21202399D01*
X484022Y21030346D01*
X630345Y20884023D01*
X802398Y20769061D01*
X802400Y20769061D01*
X802402Y20769059D01*
X993580Y20689870D01*
X1196535Y20649500D01*
X1403465Y20649500D01*
X1606420Y20689870D01*
X1797598Y20769059D01*
X1969655Y20884023D01*
X2115977Y21030345D01*
X2230941Y21202402D01*
X2310130Y21393580D01*
X2350500Y21596535D01*
X2350500Y21803465D01*
X2350500Y21803466D01*
X2789500Y21803466D01*
X2789500Y21596535D01*
X2829869Y21393582D01*
X2909059Y21202402D01*
X2909060Y21202399D01*
X3024022Y21030346D01*
X3170345Y20884023D01*
X3342398Y20769061D01*
X3342400Y20769061D01*
X3342402Y20769059D01*
X3533580Y20689870D01*
X3736535Y20649500D01*
X3943465Y20649500D01*
X4146420Y20689870D01*
X4337598Y20769059D01*
X4509655Y20884023D01*
X4655977Y21030345D01*
X4770941Y21202402D01*
X4850130Y21393580D01*
X4890500Y21596535D01*
X4890500Y21803465D01*
X4850130Y22006420D01*
X4770941Y22197598D01*
X4770939Y22197600D01*
X4770939Y22197602D01*
X4655977Y22369655D01*
X4509654Y22515978D01*
X4337601Y22630940D01*
X4337598Y22630941D01*
X4146418Y22710131D01*
X3943465Y22750500D01*
X3736535Y22750500D01*
X3533581Y22710131D01*
X3342401Y22630941D01*
X3342398Y22630940D01*
X3170345Y22515978D01*
X3024022Y22369655D01*
X2909060Y22197602D01*
X2909059Y22197599D01*
X2829869Y22006419D01*
X2789500Y21803466D01*
X2350500Y21803466D01*
X2310130Y22006420D01*
X2230941Y22197598D01*
X2230939Y22197600D01*
X2230939Y22197602D01*
X2115977Y22369655D01*
X1969654Y22515978D01*
X1797601Y22630940D01*
X1797598Y22630941D01*
X1606418Y22710131D01*
X1403465Y22750500D01*
X1196535Y22750500D01*
X993581Y22710131D01*
X802401Y22630941D01*
X802398Y22630940D01*
X630345Y22515978D01*
X484022Y22369655D01*
X369060Y22197602D01*
X369059Y22197599D01*
X289869Y22006419D01*
X249500Y21803466D01*
X-698322Y21803466D01*
X-727482Y21912292D01*
X-749252Y21950000D01*
X87231Y21950000D01*
X87231Y21950001D01*
X76758Y22016121D01*
X76756Y22016130D01*
X11094Y22218219D01*
X11093Y22218222D01*
X-85378Y22407555D01*
X-210285Y22579474D01*
X-360527Y22729716D01*
X-532446Y22854623D01*
X-721779Y22951094D01*
X-721782Y22951095D01*
X-803232Y22977559D01*
X-839606Y23008626D01*
X-843359Y23056314D01*
X-812292Y23092688D01*
X-783918Y23099500D01*
X6199641Y23099500D01*
X6243835Y23081194D01*
X7565908Y21759121D01*
X7584214Y21714927D01*
X7580708Y21694289D01*
X7577355Y21684707D01*
X7577353Y21684697D01*
X7574500Y21654263D01*
X7574500Y20345738D01*
X7577353Y20315304D01*
X7577354Y20315299D01*
X7622207Y20187118D01*
X7622207Y20187117D01*
X7662528Y20132484D01*
X7702850Y20077850D01*
X7812118Y19997207D01*
X7940301Y19952354D01*
X7970734Y19949500D01*
X7970738Y19949500D01*
X9529262Y19949500D01*
X9529266Y19949500D01*
X9559699Y19952354D01*
X9687882Y19997207D01*
X9797150Y20077850D01*
X9877793Y20187118D01*
X9922646Y20315301D01*
X9925500Y20345734D01*
X9925500Y21405094D01*
X10464500Y21405094D01*
X10464500Y21214907D01*
X10501602Y21028376D01*
X10501603Y21028373D01*
X10574383Y20852667D01*
X10574386Y20852662D01*
X10630247Y20769060D01*
X10680047Y20694529D01*
X10814529Y20560047D01*
X10972664Y20454385D01*
X11148374Y20381603D01*
X11334907Y20344500D01*
X11525093Y20344500D01*
X11711626Y20381603D01*
X11887336Y20454385D01*
X12045471Y20560047D01*
X12179953Y20694529D01*
X12285615Y20852664D01*
X12358397Y21028374D01*
X12395500Y21214907D01*
X12395500Y21405093D01*
X12358397Y21591626D01*
X12285615Y21767336D01*
X12179953Y21925471D01*
X12045471Y22059953D01*
X12045470Y22059954D01*
X11887338Y22165614D01*
X11887333Y22165617D01*
X11711627Y22238397D01*
X11711624Y22238398D01*
X11525093Y22275500D01*
X11334907Y22275500D01*
X11148375Y22238398D01*
X11148372Y22238397D01*
X10972666Y22165617D01*
X10972661Y22165614D01*
X10814529Y22059954D01*
X10680046Y21925471D01*
X10574386Y21767339D01*
X10574383Y21767334D01*
X10501603Y21591628D01*
X10501602Y21591625D01*
X10464500Y21405094D01*
X9925500Y21405094D01*
X9925500Y21654266D01*
X9922646Y21684699D01*
X9877793Y21812882D01*
X9797150Y21922150D01*
X9687882Y22002793D01*
X9559701Y22047646D01*
X9559696Y22047647D01*
X9539699Y22049522D01*
X9529266Y22050500D01*
X9529262Y22050500D01*
X8150359Y22050500D01*
X8106165Y22068806D01*
X6534516Y23640456D01*
X6534512Y23640459D01*
X6534511Y23640460D01*
X6465989Y23680021D01*
X6465988Y23680022D01*
X6465987Y23680022D01*
X6389567Y23700500D01*
X6389562Y23700500D01*
X-9379562Y23700500D01*
X-9379568Y23700500D01*
X-9455987Y23680022D01*
X-9455989Y23680022D01*
X-9524513Y23640459D01*
X-10962010Y22202963D01*
X-11006204Y22184657D01*
X-11030122Y22189415D01*
X-11148373Y22238397D01*
X-11148376Y22238398D01*
X-11334907Y22275500D01*
X-11525093Y22275500D01*
X-11711625Y22238398D01*
X-11711628Y22238397D01*
X-11887334Y22165617D01*
X-11887339Y22165614D01*
X-12045471Y22059954D01*
X-12179954Y21925471D01*
X-12285614Y21767339D01*
X-12285617Y21767334D01*
X-12358397Y21591628D01*
X-12358398Y21591625D01*
X-12395500Y21405094D01*
X-19499500Y21405094D01*
X-19499500Y23945094D01*
X-12395500Y23945094D01*
X-12395500Y23754907D01*
X-12358398Y23568376D01*
X-12358397Y23568373D01*
X-12285617Y23392667D01*
X-12285615Y23392664D01*
X-12179953Y23234529D01*
X-12045471Y23100047D01*
X-11887336Y22994385D01*
X-11711626Y22921603D01*
X-11525093Y22884500D01*
X-11334907Y22884500D01*
X-11148374Y22921603D01*
X-10972664Y22994385D01*
X-10814529Y23100047D01*
X-10680047Y23234529D01*
X-10574385Y23392664D01*
X-10501603Y23568374D01*
X-10464500Y23754907D01*
X-10464500Y23945093D01*
X-10464500Y23945094D01*
X10464500Y23945094D01*
X10464500Y23754907D01*
X10501602Y23568376D01*
X10501603Y23568373D01*
X10574383Y23392667D01*
X10574385Y23392664D01*
X10680047Y23234529D01*
X10814529Y23100047D01*
X10972664Y22994385D01*
X11148374Y22921603D01*
X11334907Y22884500D01*
X11525093Y22884500D01*
X11711626Y22921603D01*
X11887336Y22994385D01*
X12045471Y23100047D01*
X12179953Y23234529D01*
X12285615Y23392664D01*
X12358397Y23568374D01*
X12395500Y23754907D01*
X12395500Y23945093D01*
X12358397Y24131626D01*
X12285615Y24307336D01*
X12179953Y24465471D01*
X12045471Y24599953D01*
X11952810Y24661867D01*
X11887338Y24705614D01*
X11887333Y24705617D01*
X11711627Y24778397D01*
X11711624Y24778398D01*
X11525093Y24815500D01*
X11334907Y24815500D01*
X11148375Y24778398D01*
X11148372Y24778397D01*
X10972666Y24705617D01*
X10972661Y24705614D01*
X10814529Y24599954D01*
X10680046Y24465471D01*
X10574386Y24307339D01*
X10574383Y24307334D01*
X10501603Y24131628D01*
X10501602Y24131625D01*
X10464500Y23945094D01*
X-10464500Y23945094D01*
X-10501603Y24131626D01*
X-10574385Y24307336D01*
X-10680047Y24465471D01*
X-10814529Y24599953D01*
X-10907190Y24661867D01*
X-10972662Y24705614D01*
X-10972667Y24705617D01*
X-11148373Y24778397D01*
X-11148376Y24778398D01*
X-11334907Y24815500D01*
X-11525093Y24815500D01*
X-11711625Y24778398D01*
X-11711628Y24778397D01*
X-11887334Y24705617D01*
X-11887339Y24705614D01*
X-12045471Y24599954D01*
X-12179954Y24465471D01*
X-12285614Y24307339D01*
X-12285617Y24307334D01*
X-12358397Y24131628D01*
X-12358398Y24131625D01*
X-12395500Y23945094D01*
X-19499500Y23945094D01*
X-19499500Y28127848D01*
X-18950500Y28127848D01*
X-18950500Y27872153D01*
X-18917126Y27618658D01*
X-18917126Y27618656D01*
X-18850953Y27371697D01*
X-18850950Y27371687D01*
X-18798730Y27245617D01*
X-18753106Y27135469D01*
X-18753105Y27135466D01*
X-18715043Y27069541D01*
X-18625261Y26914035D01*
X-18469610Y26711187D01*
X-18288813Y26530390D01*
X-18085965Y26374739D01*
X-17864535Y26246896D01*
X-17628313Y26149050D01*
X-17381340Y26082874D01*
X-17127843Y26049500D01*
X-17127837Y26049500D01*
X-16872163Y26049500D01*
X-16872157Y26049500D01*
X-16618660Y26082874D01*
X-16371687Y26149050D01*
X-16135465Y26246896D01*
X-15914035Y26374739D01*
X-15770218Y26485094D01*
X-12395500Y26485094D01*
X-12395500Y26294907D01*
X-12358398Y26108376D01*
X-12358397Y26108373D01*
X-12285617Y25932667D01*
X-12285615Y25932664D01*
X-12179953Y25774529D01*
X-12045471Y25640047D01*
X-11887336Y25534385D01*
X-11711626Y25461603D01*
X-11525093Y25424500D01*
X-11334907Y25424500D01*
X-11148374Y25461603D01*
X-10972664Y25534385D01*
X-10814529Y25640047D01*
X-10680047Y25774529D01*
X-10574385Y25932664D01*
X-10548648Y25994799D01*
X-8582500Y25994799D01*
X-8582500Y25805202D01*
X-8545513Y25619251D01*
X-8472958Y25444088D01*
X-8472957Y25444086D01*
X-8472956Y25444085D01*
X-8367622Y25286442D01*
X-8233558Y25152378D01*
X-8075915Y25047044D01*
X-7900751Y24974488D01*
X-7714798Y24937500D01*
X-7525202Y24937500D01*
X-7339249Y24974488D01*
X-7164085Y25047044D01*
X-7006442Y25152378D01*
X-6872378Y25286442D01*
X-6767044Y25444085D01*
X-6694488Y25619249D01*
X-6657500Y25805202D01*
X-6657500Y25994798D01*
X-6657500Y25994799D01*
X-6042500Y25994799D01*
X-6042500Y25805202D01*
X-6005513Y25619251D01*
X-5932958Y25444088D01*
X-5932957Y25444086D01*
X-5932956Y25444085D01*
X-5827622Y25286442D01*
X-5693558Y25152378D01*
X-5535915Y25047044D01*
X-5360751Y24974488D01*
X-5174798Y24937500D01*
X-4985202Y24937500D01*
X-4799249Y24974488D01*
X-4624085Y25047044D01*
X-4466442Y25152378D01*
X-4332378Y25286442D01*
X-4227044Y25444085D01*
X-4154488Y25619249D01*
X-4117500Y25805202D01*
X-4117500Y25994798D01*
X-4117500Y25994799D01*
X-3502500Y25994799D01*
X-3502500Y25805202D01*
X-3465513Y25619251D01*
X-3392958Y25444088D01*
X-3392957Y25444086D01*
X-3392956Y25444085D01*
X-3287622Y25286442D01*
X-3153558Y25152378D01*
X-2995915Y25047044D01*
X-2820751Y24974488D01*
X-2634798Y24937500D01*
X-2445202Y24937500D01*
X-2259249Y24974488D01*
X-2084085Y25047044D01*
X-1926442Y25152378D01*
X-1792378Y25286442D01*
X-1687044Y25444085D01*
X-1614488Y25619249D01*
X-1577500Y25805202D01*
X-1577500Y25994798D01*
X-1577500Y25994799D01*
X-962500Y25994799D01*
X-962500Y25805202D01*
X-925513Y25619251D01*
X-852958Y25444088D01*
X-852957Y25444086D01*
X-852956Y25444085D01*
X-747622Y25286442D01*
X-613558Y25152378D01*
X-455915Y25047044D01*
X-280751Y24974488D01*
X-94798Y24937500D01*
X94798Y24937500D01*
X280751Y24974488D01*
X455915Y25047044D01*
X613558Y25152378D01*
X747622Y25286442D01*
X852956Y25444085D01*
X925512Y25619249D01*
X962500Y25805202D01*
X962500Y25994798D01*
X962500Y25994799D01*
X1577500Y25994799D01*
X1577500Y25805202D01*
X1614487Y25619251D01*
X1687042Y25444088D01*
X1687043Y25444086D01*
X1687044Y25444085D01*
X1792378Y25286442D01*
X1926442Y25152378D01*
X2084085Y25047044D01*
X2259249Y24974488D01*
X2445202Y24937500D01*
X2634798Y24937500D01*
X2820751Y24974488D01*
X2995915Y25047044D01*
X3153558Y25152378D01*
X3287622Y25286442D01*
X3392956Y25444085D01*
X3465512Y25619249D01*
X3502500Y25805202D01*
X3502500Y25994798D01*
X3471628Y26150001D01*
X3841864Y26150001D01*
X3841866Y26150000D01*
X4696351Y26150000D01*
X4653910Y26076492D01*
X4622750Y25960198D01*
X4622750Y25839802D01*
X4653910Y25723508D01*
X4696351Y25650000D01*
X3841865Y25650000D01*
X3849074Y25604482D01*
X3910458Y25415562D01*
X3910459Y25415559D01*
X4000644Y25238564D01*
X4117400Y25077863D01*
X4117407Y25077855D01*
X4257854Y24937408D01*
X4257862Y24937401D01*
X4418563Y24820645D01*
X4595558Y24730460D01*
X4595561Y24730459D01*
X4784475Y24669077D01*
X4830000Y24661867D01*
X4830000Y25516351D01*
X4903508Y25473910D01*
X5019802Y25442750D01*
X5140198Y25442750D01*
X5256492Y25473910D01*
X5330000Y25516351D01*
X5330000Y24661867D01*
X5375524Y24669077D01*
X5564438Y24730459D01*
X5564441Y24730460D01*
X5741436Y24820645D01*
X5902137Y24937401D01*
X5902145Y24937408D01*
X6042592Y25077855D01*
X6042599Y25077863D01*
X6159355Y25238564D01*
X6249540Y25415559D01*
X6249541Y25415562D01*
X6310925Y25604482D01*
X6318135Y25650000D01*
X5463649Y25650000D01*
X5506090Y25723508D01*
X5537250Y25839802D01*
X5537250Y25960198D01*
X5506090Y26076492D01*
X5463649Y26150000D01*
X6318134Y26150000D01*
X6318135Y26150001D01*
X6310925Y26195519D01*
X6249541Y26384439D01*
X6249540Y26384442D01*
X6159355Y26561437D01*
X6042599Y26722138D01*
X6042592Y26722146D01*
X5902145Y26862593D01*
X5902137Y26862600D01*
X5741436Y26979356D01*
X5564441Y27069541D01*
X5564438Y27069542D01*
X5375517Y27130926D01*
X5375518Y27130926D01*
X5330000Y27138136D01*
X5330000Y26283650D01*
X5256492Y26326090D01*
X5140198Y26357250D01*
X5019802Y26357250D01*
X4903508Y26326090D01*
X4830000Y26283650D01*
X4830000Y27138135D01*
X4829999Y27138136D01*
X4784481Y27130926D01*
X4595561Y27069542D01*
X4595558Y27069541D01*
X4418563Y26979356D01*
X4257862Y26862600D01*
X4257854Y26862593D01*
X4117407Y26722146D01*
X4117400Y26722138D01*
X4000644Y26561437D01*
X3910459Y26384442D01*
X3910458Y26384439D01*
X3849074Y26195519D01*
X3841864Y26150001D01*
X3471628Y26150001D01*
X3465512Y26180750D01*
X3459394Y26195519D01*
X3392956Y26355915D01*
X3287622Y26513558D01*
X3153558Y26647622D01*
X2995915Y26752956D01*
X2995914Y26752957D01*
X2995912Y26752958D01*
X2820749Y26825513D01*
X2634798Y26862500D01*
X2445202Y26862500D01*
X2259250Y26825513D01*
X2084087Y26752958D01*
X2084083Y26752955D01*
X1926442Y26647623D01*
X1792377Y26513558D01*
X1687045Y26355917D01*
X1687042Y26355913D01*
X1614487Y26180750D01*
X1577500Y25994799D01*
X962500Y25994799D01*
X925512Y26180751D01*
X852956Y26355915D01*
X747622Y26513558D01*
X613558Y26647622D01*
X455915Y26752956D01*
X455914Y26752957D01*
X455912Y26752958D01*
X280749Y26825513D01*
X94798Y26862500D01*
X-94798Y26862500D01*
X-280750Y26825513D01*
X-455913Y26752958D01*
X-455917Y26752955D01*
X-613558Y26647623D01*
X-747623Y26513558D01*
X-852955Y26355917D01*
X-852958Y26355913D01*
X-925513Y26180750D01*
X-962500Y25994799D01*
X-1577500Y25994799D01*
X-1614488Y26180751D01*
X-1687044Y26355915D01*
X-1792378Y26513558D01*
X-1926442Y26647622D01*
X-2084085Y26752956D01*
X-2084086Y26752957D01*
X-2084088Y26752958D01*
X-2259251Y26825513D01*
X-2445202Y26862500D01*
X-2634798Y26862500D01*
X-2820750Y26825513D01*
X-2995913Y26752958D01*
X-2995917Y26752955D01*
X-3153558Y26647623D01*
X-3287623Y26513558D01*
X-3392955Y26355917D01*
X-3392958Y26355913D01*
X-3465513Y26180750D01*
X-3502500Y25994799D01*
X-4117500Y25994799D01*
X-4154488Y26180751D01*
X-4227044Y26355915D01*
X-4332378Y26513558D01*
X-4466442Y26647622D01*
X-4624085Y26752956D01*
X-4624086Y26752957D01*
X-4624088Y26752958D01*
X-4799251Y26825513D01*
X-4985202Y26862500D01*
X-5174798Y26862500D01*
X-5360750Y26825513D01*
X-5535913Y26752958D01*
X-5535917Y26752955D01*
X-5693558Y26647623D01*
X-5827623Y26513558D01*
X-5932955Y26355917D01*
X-5932958Y26355913D01*
X-6005513Y26180750D01*
X-6042500Y25994799D01*
X-6657500Y25994799D01*
X-6694488Y26180751D01*
X-6767044Y26355915D01*
X-6872378Y26513558D01*
X-7006442Y26647622D01*
X-7164085Y26752956D01*
X-7164086Y26752957D01*
X-7164088Y26752958D01*
X-7339251Y26825513D01*
X-7525202Y26862500D01*
X-7714798Y26862500D01*
X-7900750Y26825513D01*
X-8075913Y26752958D01*
X-8075917Y26752955D01*
X-8233558Y26647623D01*
X-8367623Y26513558D01*
X-8472955Y26355917D01*
X-8472958Y26355913D01*
X-8545513Y26180750D01*
X-8582500Y25994799D01*
X-10548648Y25994799D01*
X-10501603Y26108374D01*
X-10464500Y26294907D01*
X-10464500Y26485093D01*
X-10501603Y26671626D01*
X-10565345Y26825512D01*
X-10574384Y26847334D01*
X-10574387Y26847339D01*
X-10680047Y27005471D01*
X-10814530Y27139954D01*
X-10972662Y27245614D01*
X-10972667Y27245617D01*
X-11148373Y27318397D01*
X-11148376Y27318398D01*
X-11334907Y27355500D01*
X-11525093Y27355500D01*
X-11711625Y27318398D01*
X-11711628Y27318397D01*
X-11887334Y27245617D01*
X-11887339Y27245614D01*
X-12045471Y27139954D01*
X-12179954Y27005471D01*
X-12285614Y26847339D01*
X-12285617Y26847334D01*
X-12358397Y26671628D01*
X-12358398Y26671625D01*
X-12395500Y26485094D01*
X-15770218Y26485094D01*
X-15711187Y26530390D01*
X-15530390Y26711187D01*
X-15374739Y26914035D01*
X-15246896Y27135465D01*
X-15149050Y27371687D01*
X-15082874Y27618660D01*
X-15049500Y27872157D01*
X-15049500Y28127843D01*
X-15082874Y28381340D01*
X-15149050Y28628313D01*
X-15246896Y28864535D01*
X-15374739Y29085965D01*
X-15530390Y29288813D01*
X-15711187Y29469610D01*
X-15914035Y29625261D01*
X-16008766Y29679954D01*
X-16135466Y29753105D01*
X-16135469Y29753106D01*
X-16190047Y29775713D01*
X-16371687Y29850950D01*
X-16371695Y29850953D01*
X-16371697Y29850953D01*
X-16618657Y29917126D01*
X-16872153Y29950500D01*
X-16872157Y29950500D01*
X-17127843Y29950500D01*
X-17127848Y29950500D01*
X-17381343Y29917126D01*
X-17381345Y29917126D01*
X-17628304Y29850953D01*
X-17628309Y29850952D01*
X-17628313Y29850950D01*
X-17744076Y29803000D01*
X-17864532Y29753106D01*
X-17864535Y29753105D01*
X-18085959Y29625265D01*
X-18085962Y29625263D01*
X-18085965Y29625261D01*
X-18127999Y29593007D01*
X-18288815Y29469609D01*
X-18469609Y29288815D01*
X-18473645Y29283555D01*
X-18625261Y29085965D01*
X-18625263Y29085962D01*
X-18625265Y29085959D01*
X-18753105Y28864535D01*
X-18753106Y28864532D01*
X-18803000Y28744076D01*
X-18850950Y28628313D01*
X-18850952Y28628309D01*
X-18850953Y28628304D01*
X-18917126Y28381345D01*
X-18917126Y28381343D01*
X-18950500Y28127848D01*
X-19499500Y28127848D01*
X-19499500Y30997765D01*
X-19499341Y31002224D01*
X-19492204Y31102009D01*
X-19484556Y31208946D01*
X-19483287Y31217769D01*
X-19439706Y31418111D01*
X-19437204Y31426633D01*
X-19365551Y31618741D01*
X-19361854Y31626835D01*
X-19263596Y31806781D01*
X-19258792Y31814256D01*
X-19135919Y31978396D01*
X-19130091Y31985121D01*
X-18985121Y32130091D01*
X-18978396Y32135919D01*
X-18814256Y32258792D01*
X-18806781Y32263596D01*
X-18626830Y32361857D01*
X-18618735Y32365554D01*
X-18426633Y32437204D01*
X-18418111Y32439706D01*
X-18217767Y32483288D01*
X-18208946Y32484556D01*
X-18002223Y32499341D01*
X-17997764Y32499500D01*
X-17934108Y32499500D01*
X-12131834Y32499500D01*
X-12087640Y32481194D01*
G37*
%TD.AperFunction*%
%TD*%
M02*
