M48
; DRILL file KiCad 10.0.1 date 2026-09-22T18:38:46
; FORMAT={-:-/ absolute / metric / decimal}
; #@! TF.CreationDate,2026-09-22T18:38:46+02:00
; #@! TF.GenerationSoftware,Kicad,Pcbnew,10.0.1
; #@! TF.FileFunction,Plated,1,2,PTH
FMAT,2
METRIC
; #@! TA.AperFunction,Plated,PTH,ViaDrill
T1C0.300
; #@! TA.AperFunction,Plated,PTH,ComponentDrill
T2C0.800
; #@! TA.AperFunction,Plated,PTH,ComponentDrill
T3C0.914
; #@! TA.AperFunction,Plated,PTH,ComponentDrill
T4C0.950
; #@! TA.AperFunction,Plated,PTH,ComponentDrill
T5C1.020
; #@! TA.AperFunction,Plated,PTH,ComponentDrill
T6C1.100
; #@! TA.AperFunction,Plated,PTH,ComponentDrill
T7C3.000
%
G90
G05
T1
X-15.0Y2.2
X-3.8Y18.5
X-3.8Y8.5
X-3.8Y-2.5
X-3.8Y-12.5
X-1.2Y16.0
X-1.2Y11.0
X-1.2Y-5.0
X-1.2Y-9.978
X0.6Y13.5
X0.6Y-7.5
T2
X8.017Y-20.145
X8.017Y-22.145
T3
X-7.62Y25.9
X-5.08Y25.9
X-2.54Y25.9
X0.0Y25.9
X2.54Y25.9
X5.08Y25.9
X7.62Y25.9
T4
X-8.75Y20.992
X-8.75Y18.492
X-8.75Y15.992
X-8.75Y13.492
X-8.75Y10.992
X-8.75Y8.492
X-8.75Y5.992
X-8.75Y0.022
X-8.75Y-2.478
X-8.75Y-4.978
X-8.75Y-7.478
X-8.75Y-9.978
X-8.75Y-12.478
X-8.75Y-14.978
X-2.5Y-15.555
X0.0Y-15.555
X2.5Y-15.555
X8.75Y21.0
X8.75Y18.5
X8.75Y16.0
X8.75Y13.5
X8.75Y11.0
X8.75Y8.5
X8.75Y6.0
X8.75Y0.0
X8.75Y-2.5
X8.75Y-5.0
X8.75Y-7.5
X8.75Y-10.0
X8.75Y-12.5
X8.75Y-15.0
T5
X-11.43Y31.47
X-11.43Y28.93
X-11.43Y26.39
X-11.43Y23.85
X-11.43Y21.31
X-11.43Y18.77
X-11.43Y16.23
X-11.43Y13.69
X-11.43Y11.15
X-11.43Y8.61
X-11.43Y6.07
X-11.43Y3.53
X-11.43Y0.99
X-11.43Y-1.55
X-11.43Y-4.09
X-11.43Y-6.63
X-11.43Y-9.17
X-11.43Y-11.71
X-11.43Y-14.25
X-11.43Y-16.79
X-11.43Y-19.33
X-11.43Y-21.87
X11.43Y31.47
X11.43Y28.93
X11.43Y26.39
X11.43Y23.85
X11.43Y21.31
X11.43Y18.77
X11.43Y16.23
X11.43Y13.69
X11.43Y11.15
X11.43Y8.61
X11.43Y6.07
X11.43Y3.53
X11.43Y0.99
X11.43Y-1.55
X11.43Y-4.09
X11.43Y-6.63
X11.43Y-9.17
X11.43Y-11.71
X11.43Y-14.25
X11.43Y-16.79
X11.43Y-19.33
X11.43Y-21.87
T6
X-8.8Y-19.33
X-8.8Y-21.87
X-3.78Y21.7
X-1.24Y21.7
X1.3Y21.7
X3.84Y21.7
T7
X-17.0Y28.0
X-17.0Y-22.0
X17.0Y28.0
X17.0Y-22.0
M30
