%TF.GenerationSoftware,KiCad,Pcbnew,10.0.1*%
%TF.CreationDate,2026-09-22T18:38:54+02:00*%
%TF.ProjectId,ProPrj_BambuTagger-AMS_2026-09-22(1),50726f50-726a-45f4-9261-6d6275546167,rev?*%
%TF.SameCoordinates,PX8d8dcb0PY678a590*%
%TF.FileFunction,Soldermask,Bot*%
%TF.FilePolarity,Negative*%
%FSLAX46Y46*%
G04 Gerber Fmt 4.6, Leading zero omitted, Abs format (unit mm)*
G04 Created by KiCad (PCBNEW 10.0.1) date 2026-09-22 18:38:54*
%MOMM*%
%LPD*%
G01*
G04 APERTURE LIST*
G04 Aperture macros list*
%AMRoundRect*
0 Rectangle with rounded corners*
0 $1 Rounding radius*
0 $2 $3 $4 $5 $6 $7 $8 $9 X,Y pos of 4 corners*
0 Add a 4 corners polygon primitive as box body*
4,1,4,$2,$3,$4,$5,$6,$7,$8,$9,$2,$3,0*
0 Add four circle primitives for the rounded corners*
1,1,$1+$1,$2,$3*
1,1,$1+$1,$4,$5*
1,1,$1+$1,$6,$7*
1,1,$1+$1,$8,$9*
0 Add four rect primitives between the rounded corners*
20,1,$1+$1,$2,$3,$4,$5,0*
20,1,$1+$1,$4,$5,$6,$7,0*
20,1,$1+$1,$6,$7,$8,$9,0*
20,1,$1+$1,$8,$9,$2,$3,0*%
G04 Aperture macros list end*
%ADD10C,1.734000*%
%ADD11C,3.500000*%
%ADD12R,1.700000X1.700000*%
%ADD13C,1.700000*%
%ADD14RoundRect,0.250000X-0.725000X0.600000X-0.725000X-0.600000X0.725000X-0.600000X0.725000X0.600000X0*%
%ADD15O,1.950000X1.700000*%
%ADD16C,1.524000*%
%ADD17RoundRect,0.250000X0.725000X-0.600000X0.725000X0.600000X-0.725000X0.600000X-0.725000X-0.600000X0*%
%ADD18R,1.800000X1.800000*%
%ADD19C,1.800000*%
%ADD20RoundRect,0.250000X0.600000X0.725000X-0.600000X0.725000X-0.600000X-0.725000X0.600000X-0.725000X0*%
%ADD21O,1.700000X1.950000*%
%ADD22RoundRect,0.250000X-0.550000X0.550000X-0.550000X-0.550000X0.550000X-0.550000X0.550000X0.550000X0*%
%ADD23C,1.600000*%
G04 APERTURE END LIST*
D10*
%TO.C,U1*%
X-11430000Y31470000D03*
X-11430000Y28930000D03*
X-11430000Y26390000D03*
X-11430000Y23850000D03*
X-11430000Y21310000D03*
X-11430000Y18770000D03*
X-11430000Y16230000D03*
X-11430000Y13690000D03*
X-11430000Y11150000D03*
X-11430000Y8610000D03*
X-11430000Y6070000D03*
X-11430000Y3530000D03*
X-11430000Y990000D03*
X-11430000Y-1550000D03*
X-11430000Y-4090000D03*
X-11430000Y-6630000D03*
X-11430000Y-9170000D03*
X-11430000Y-11710000D03*
X-11430000Y-14250000D03*
X-11430000Y-16790000D03*
X-11430000Y-19330000D03*
X-11430000Y-21870000D03*
X11430000Y31470000D03*
X11430000Y28930000D03*
X11430000Y26390000D03*
X11430000Y23850000D03*
X11430000Y21310000D03*
X11430000Y18770000D03*
X11430000Y16230000D03*
X11430000Y13690000D03*
X11430000Y11150000D03*
X11430000Y8610000D03*
X11430000Y6070000D03*
X11430000Y3530000D03*
X11430000Y990000D03*
X11430000Y-1550000D03*
X11430000Y-4090000D03*
X11430000Y-6630000D03*
X11430000Y-9170000D03*
X11430000Y-11710000D03*
X11430000Y-14250000D03*
X11430000Y-16790000D03*
X11430000Y-19330000D03*
X11430000Y-21870000D03*
%TD*%
D11*
%TO.C,*%
X-17000000Y28000000D03*
%TD*%
%TO.C,*%
X-17000000Y-22000000D03*
%TD*%
%TO.C,*%
X17000000Y28000000D03*
%TD*%
%TO.C,*%
X17000000Y-22000000D03*
%TD*%
D12*
%TO.C,SENSOR*%
X-3780000Y21700000D03*
D13*
X-1240000Y21700000D03*
X1300000Y21700000D03*
X3840000Y21700000D03*
%TD*%
D14*
%TO.C,SLOT2*%
X8750000Y21000000D03*
D15*
X8750000Y18500000D03*
X8750000Y16000000D03*
X8750000Y13500000D03*
X8750000Y11000000D03*
X8750000Y8500000D03*
X8750000Y6000000D03*
%TD*%
D16*
%TO.C,TFT*%
X-7620000Y25900000D03*
X-5080000Y25900000D03*
X-2540000Y25900000D03*
X0Y25900000D03*
X2540000Y25900000D03*
X5080000Y25900000D03*
X7620000Y25900000D03*
%TD*%
D17*
%TO.C,SLOT3*%
X-8750000Y-14977766D03*
D15*
X-8750000Y-12477766D03*
X-8750000Y-9977766D03*
X-8750000Y-7477766D03*
X-8750000Y-4977766D03*
X-8750000Y-2477766D03*
X-8750000Y22234D03*
%TD*%
D18*
%TO.C,5V*%
X-8800000Y-19330000D03*
D19*
X-8800000Y-21870000D03*
%TD*%
D17*
%TO.C,SLOT4*%
X-8750000Y5991973D03*
D15*
X-8750000Y8491973D03*
X-8750000Y10991973D03*
X-8750000Y13491973D03*
X-8750000Y15991973D03*
X-8750000Y18491973D03*
X-8750000Y20991973D03*
%TD*%
D14*
%TO.C,SLOT1*%
X8750000Y0D03*
D15*
X8750000Y-2500000D03*
X8750000Y-5000000D03*
X8750000Y-7500000D03*
X8750000Y-10000000D03*
X8750000Y-12500000D03*
X8750000Y-15000000D03*
%TD*%
D20*
%TO.C,WSLED1*%
X2500000Y-15555000D03*
D21*
X0Y-15555000D03*
X-2500000Y-15555000D03*
%TD*%
D22*
%TO.C,C1*%
X8017401Y-20144887D03*
D23*
X8017401Y-22144887D03*
%TD*%
M02*
